SplineFontDB: 3.0
FontName: Shabnam-Bold
FullName: Shabnam Bold
FamilyName: Shabnam
Weight: Bold
Copyright: Copyright (c) 2003 by Bitstream, Inc. All Rights Reserved.\nDejaVu changes are in public domain\nCopyright (c) 2015 by Saber Rastikerdar. All Rights Reserved.\nNon-Arabic(Latin) glyphs and data are imported from Roboto font under the Apache License, Version 2.0.
Version: 1.0.2
ItalicAngle: 0
UnderlinePosition: -500
UnderlineWidth: 100
Ascent: 1638
Descent: 410
InvalidEm: 0
LayerCount: 2
Layer: 0 1 "Back" 1
Layer: 1 1 "Fore" 0
XUID: [1021 502 1027637223 10770418]
UniqueID: 4099970
UseUniqueID: 1
FSType: 0
OS2Version: 1
OS2_WeightWidthSlopeOnly: 0
OS2_UseTypoMetrics: 1
CreationTime: 1431850356
ModificationTime: 1474545709
PfmFamily: 33
TTFWeight: 700
TTFWidth: 5
LineGap: 0
VLineGap: 0
Panose: 2 11 6 3 3 8 4 2 2 4
OS2TypoAscent: 2250
OS2TypoAOffset: 0
OS2TypoDescent: -1100
OS2TypoDOffset: 0
OS2TypoLinegap: 0
OS2WinAscent: 2250
OS2WinAOffset: 0
OS2WinDescent: 1100
OS2WinDOffset: 0
HheadAscent: 2250
HheadAOffset: 0
HheadDescent: -1100
HheadDOffset: 0
OS2SubXSize: 1331
OS2SubYSize: 1433
OS2SubXOff: 0
OS2SubYOff: 286
OS2SupXSize: 1331
OS2SupYSize: 1433
OS2SupXOff: 0
OS2SupYOff: 983
OS2StrikeYSize: 102
OS2StrikeYPos: 530
OS2Vendor: 'PfEd'
OS2CodePages: 00000041.20080000
OS2UnicodeRanges: 80002003.80000000.00000008.00000000
Lookup: 1 9 0 "'fina' Terminal Forms in Arabic lookup 9" { "'fina' Terminal Forms in Arabic lookup 9 subtable"  } ['fina' ('arab' <'KUR ' 'SND ' 'URD ' 'dflt' > ) ]
Lookup: 1 9 0 "'medi' Medial Forms in Arabic lookup 11" { "'medi' Medial Forms in Arabic lookup 11 subtable"  } ['medi' ('arab' <'KUR ' 'SND ' 'URD ' 'dflt' > ) ]
Lookup: 1 9 0 "'init' Initial Forms in Arabic lookup 13" { "'init' Initial Forms in Arabic lookup 13 subtable"  } ['init' ('arab' <'KUR ' 'SND ' 'URD ' 'dflt' > ) ]
Lookup: 4 1 1 "'rlig' Required Ligatures in Arabic lookup 14" { "'rlig' Required Ligatures in Arabic lookup 14 subtable"  } ['rlig' ('arab' <'KUR ' 'dflt' > ) ]

StartChar: exclam
Encoding: 33 33 1
Width: 568
VWidth: 2431
GlyphClass: 2
Flags: W
LayerCount: 2
Fore
SplineSet
110.919921875 172.381835938 m 128,-1,1
 110.919921875 242.950195312 110.919921875 242.950195312 160.635742188 292.666015625 c 128,-1,2
 210.19921875 342.23046875 210.19921875 342.23046875 281.416992188 342.883789062 c 0,3,4
 353.637695312 342.232421875 353.637695312 342.232421875 403.204101562 292.666015625 c 128,-1,5
 452.919921875 242.950195312 452.919921875 242.950195312 452.919921875 172.381835938 c 128,-1,6
 452.919921875 101.813476562 452.919921875 101.813476562 403.204101562 52.09765625 c 0,7,8
 352.9140625 2.951171875 352.9140625 2.951171875 282.422851562 1.8798828125 c 0,9,10
 210.202148438 2.53125 210.202148438 2.53125 160.635742188 52.09765625 c 128,-1,0
 110.919921875 101.813476562 110.919921875 101.813476562 110.919921875 172.381835938 c 128,-1,1
135.518554688 1365.35449219 m 5,11,-1
 420.235351562 1365.35449219 l 5,12,-1
 396.702148438 442.609375 l 1,13,-1
 160.227539062 442.609375 l 1,14,-1
 135.518554688 1365.35449219 l 5,11,-1
EndSplineSet
EndChar

StartChar: period
Encoding: 46 46 2
Width: 572
VWidth: 2431
GlyphClass: 2
Flags: W
LayerCount: 2
Fore
SplineSet
116.255859375 169.43359375 m 128,-1,1
 116.255859375 240.001953125 116.255859375 240.001953125 165.971679688 289.717773438 c 128,-1,2
 215.53515625 339.282226562 215.53515625 339.282226562 286.752929688 339.935546875 c 0,3,4
 358.973632812 339.284179688 358.973632812 339.284179688 408.540039062 289.717773438 c 128,-1,5
 458.255859375 240.001953125 458.255859375 240.001953125 458.255859375 169.43359375 c 128,-1,6
 458.255859375 98.865234375 458.255859375 98.865234375 408.540039062 49.1494140625 c 0,7,8
 358.25 0.0029296875 358.25 0.0029296875 287.758789062 -1.068359375 c 0,9,10
 215.538085938 -0.4169921875 215.538085938 -0.4169921875 165.971679688 49.1494140625 c 128,-1,0
 116.255859375 98.865234375 116.255859375 98.865234375 116.255859375 169.43359375 c 128,-1,1
EndSplineSet
EndChar

StartChar: colon
Encoding: 58 58 3
Width: 579
VWidth: 2431
GlyphClass: 2
Flags: W
LayerCount: 2
Fore
SplineSet
118.203125 874.43359375 m 128,-1,1
 118.203125 945.001953125 118.203125 945.001953125 167.918945312 994.717773438 c 128,-1,2
 217.482421875 1044.28222656 217.482421875 1044.28222656 288.700195312 1044.93554688 c 0,3,4
 324.140625 1044.61621094 324.140625 1044.61621094 355.107421875 1031.87304688 c 128,-1,5
 386.07421875 1019.13085938 386.07421875 1019.13085938 410.487304688 994.717773438 c 0,6,7
 460.203125 945.001953125 460.203125 945.001953125 460.203125 874.43359375 c 128,-1,8
 460.203125 803.865234375 460.203125 803.865234375 410.487304688 754.149414062 c 128,-1,9
 360.923828125 704.584960938 360.923828125 704.584960938 289.706054688 703.931640625 c 0,10,11
 254.265625 704.250976562 254.265625 704.250976562 223.298828125 716.994140625 c 128,-1,12
 192.33203125 729.736328125 192.33203125 729.736328125 167.918945312 754.149414062 c 0,13,0
 118.203125 803.865234375 118.203125 803.865234375 118.203125 874.43359375 c 128,-1,1
118.203125 169.43359375 m 128,-1,15
 118.203125 240.001953125 118.203125 240.001953125 167.918945312 289.717773438 c 128,-1,16
 217.482421875 339.282226562 217.482421875 339.282226562 288.700195312 339.935546875 c 0,17,18
 360.920898438 339.284179688 360.920898438 339.284179688 410.487304688 289.717773438 c 128,-1,19
 460.203125 240.001953125 460.203125 240.001953125 460.203125 169.43359375 c 128,-1,20
 460.203125 98.865234375 460.203125 98.865234375 410.487304688 49.1494140625 c 0,21,22
 360.197265625 0.0029296875 360.197265625 0.0029296875 289.706054688 -1.068359375 c 0,23,24
 217.485351562 -0.4169921875 217.485351562 -0.4169921875 167.918945312 49.1494140625 c 128,-1,14
 118.203125 98.865234375 118.203125 98.865234375 118.203125 169.43359375 c 128,-1,15
EndSplineSet
EndChar

StartChar: afii57388
Encoding: 1548 1548 5
Width: 627
VWidth: 2438
GlyphClass: 2
Flags: W
LayerCount: 2
Fore
SplineSet
322.661132812 -1.06640625 m 0,0,1
 245.924804688 -1.02734375 245.924804688 -1.02734375 194.697265625 38.6552734375 c 128,-1,2
 143.46875 78.337890625 143.46875 78.337890625 127.55078125 151.249023438 c 0,3,4
 112.989257812 217.216796875 112.989257812 217.216796875 138.001953125 325.08984375 c 0,5,6
 181.653320312 516.524414062 181.653320312 516.524414062 382.944335938 710.49609375 c 2,7,-1
 407.16796875 733.838867188 l 1,8,-1
 535.8984375 639.663085938 l 1,9,-1
 504.4375 606.682617188 l 2,10,11
 439.220703125 538.31640625 439.220703125 538.31640625 400.3125 473.939453125 c 128,-1,12
 361.403320312 409.5625 361.403320312 409.5625 348.349609375 351.215820312 c 1,13,14
 421.220703125 341.390625 421.220703125 341.390625 461.375976562 293.36328125 c 128,-1,15
 501.530273438 245.3359375 501.530273438 245.3359375 502.096679688 169.8203125 c 0,16,17
 502.236328125 149.689453125 502.236328125 149.689453125 499.115234375 131.431640625 c 128,-1,18
 495.994140625 113.173828125 495.994140625 113.173828125 489.875976562 97.4775390625 c 128,-1,19
 483.758789062 81.7822265625 483.758789062 81.7822265625 474.69921875 68.236328125 c 128,-1,20
 465.639648438 54.689453125 465.639648438 54.689453125 453.985351562 43.818359375 c 128,-1,21
 442.33203125 32.947265625 442.33203125 32.947265625 428.049804688 24.513671875 c 128,-1,22
 413.767578125 16.0791015625 413.767578125 16.0791015625 397.294921875 10.43359375 c 128,-1,23
 380.821289062 4.787109375 380.821289062 4.787109375 362.032226562 1.865234375 c 128,-1,24
 343.243164062 -1.056640625 343.243164062 -1.056640625 322.661132812 -1.06640625 c 0,0,1
EndSplineSet
EndChar

StartChar: uni0615
Encoding: 1557 1557 6
Width: 11
VWidth: 2553
GlyphClass: 4
Flags: W
AnchorPoint: "Anchor-10" 648 1490.29 mark 0
AnchorPoint: "Anchor-9" 648 1490.29 mark 0
AnchorPoint: "Anchor-1" 648 2306.6 basemark 0
AnchorPoint: "Anchor-1" 648 1490.29 mark 0
LayerCount: 2
Fore
SplineSet
789.803811959 1854.42487825 m 0,0,1
 722.21888052 1859.5602128 722.21888052 1859.5602128 580.627309411 1717.41414648 c 2,2,-1
 566.463941439 1703.1953125 l 1,3,-1
 653.038858802 1703.19530457 l 2,4,5
 828.967665914 1703.01443439 828.967665914 1703.01443439 834.03476242 1779.02088198 c 0,6,7
 836.757290319 1818.04378187 836.757290319 1818.04378187 825.888398441 1835.17502925 c 128,-1,8
 815.019506562 1852.30627664 815.019506562 1852.30627664 789.803811959 1854.42487825 c 0,0,1
945.069866843 1838.21316302 m 0,9,10
 945.739156518 1831.03375789 945.739156518 1831.03375789 946.077019324 1824.05182575 c 128,-1,11
 946.414882129 1817.06989361 946.414882129 1817.06989361 946.419199021 1810.28432186 c 0,12,13
 946.486882552 1703.89495285 946.486882552 1703.89495285 865.940719932 1650.76778892 c 128,-1,14
 785.394557312 1597.640625 785.394557312 1597.640625 631.908203125 1597.640625 c 2,15,-1
 332.12109375 1597.640625 l 1,16,-1
 332.12109375 1703.1953125 l 1,17,-1
 433.844726562 1703.1953125 l 1,18,-1
 433.844726562 2204.28320312 l 1,19,-1
 540.642520135 2204.28320312 l 1,20,-1
 540.968494669 1821.04611665 l 1,21,-1
 549.498603854 1829.86351639 l 2,22,23
 616.083627839 1898.93567138 616.083627839 1898.93567138 674.252942294 1934.12560116 c 128,-1,24
 732.42225675 1969.31553094 732.42225675 1969.31553094 783.871974051 1969.69770502 c 0,25,26
 855.888423263 1970.39213447 855.888423263 1970.39213447 897.435174467 1936.88370594 c 128,-1,27
 938.981925671 1903.37527742 938.981925671 1903.37527742 945.069866843 1838.21316302 c 0,9,10
EndSplineSet
EndChar

StartChar: uni061B
Encoding: 1563 1563 7
Width: 627
VWidth: 2438
GlyphClass: 2
Flags: W
LayerCount: 2
Fore
SplineSet
322.743164062 442.862304688 m 0,0,1
 246.006835938 442.901367188 246.006835938 442.901367188 194.779296875 482.583984375 c 128,-1,2
 143.55078125 522.266601562 143.55078125 522.266601562 127.6328125 595.177734375 c 0,3,4
 113.071289062 661.145507812 113.071289062 661.145507812 138.083984375 769.018554688 c 0,5,6
 181.735351562 960.453125 181.735351562 960.453125 383.026367188 1154.42480469 c 2,7,-1
 407.25 1177.76757812 l 1,8,-1
 535.98046875 1083.59179688 l 1,9,-1
 504.51953125 1050.61132812 l 2,10,11
 375.276367188 915.126953125 375.276367188 915.126953125 348.431640625 795.14453125 c 1,12,13
 384.80078125 790.241210938 384.80078125 790.241210938 413.610351562 775.264648438 c 128,-1,14
 442.419921875 760.2890625 442.419921875 760.2890625 461.814453125 736.944335938 c 128,-1,15
 481.208984375 713.599609375 481.208984375 713.599609375 491.553710938 682.3515625 c 128,-1,16
 501.8984375 651.103515625 501.8984375 651.103515625 502.178710938 613.749023438 c 0,17,18
 502.547851562 560.333984375 502.547851562 560.333984375 480.634765625 521.625 c 128,-1,19
 458.721679688 482.916015625 458.721679688 482.916015625 418.245117188 462.90234375 c 128,-1,20
 377.768554688 442.888671875 377.768554688 442.888671875 322.743164062 442.862304688 c 0,0,1
148.907226562 169.43359375 m 132,-1,22
 149 240 149 240 198.623046875 289.717773438 c 4,23,24
 250 341 250 341 319.404296875 339.935546875 c 4,25,26
 392 339 392 339 441.19140625 289.717773438 c 4,27,28
 491 240 491 240 490.907226562 169.43359375 c 132,-1,29
 491 99 491 99 441.19140625 49.1494140625 c 4,30,31
 389 -2 389 -2 320.41015625 -1.068359375 c 4,32,33
 248 0 248 0 198.623046875 49.1494140625 c 4,34,21
 149 99 149 99 148.907226562 169.43359375 c 132,-1,22
EndSplineSet
EndChar

StartChar: uni061F
Encoding: 1567 1567 8
Width: 1041
VWidth: 2438
GlyphClass: 2
Flags: W
LayerCount: 2
Fore
SplineSet
405.284179688 169.43359375 m 128,-1,1
 405.284179688 240.001953125 405.284179688 240.001953125 455 289.717773438 c 128,-1,2
 504.563476562 339.282226562 504.563476562 339.282226562 575.78125 339.935546875 c 0,3,4
 648.001953125 339.284179688 648.001953125 339.284179688 697.568359375 289.717773438 c 128,-1,5
 747.284179688 240.001953125 747.284179688 240.001953125 747.284179688 169.43359375 c 128,-1,6
 747.284179688 98.865234375 747.284179688 98.865234375 697.568359375 49.1494140625 c 0,7,8
 681.373046875 32.9541015625 681.373046875 32.9541015625 662.24609375 21.8203125 c 128,-1,9
 643.118164062 10.6865234375 643.118164062 10.6865234375 621.59765625 4.916015625 c 128,-1,10
 600.077148438 -0.8544921875 600.077148438 -0.8544921875 576.787109375 -1.068359375 c 0,11,12
 504.56640625 -0.4169921875 504.56640625 -0.4169921875 455 49.1494140625 c 128,-1,0
 405.284179688 98.865234375 405.284179688 98.865234375 405.284179688 169.43359375 c 128,-1,1
438.52734375 471.243164062 m 2,13,14
 438.046241772 513.971561017 438.046241772 513.971561017 321.03125 585.936523438 c 0,15,16
 70 741 70 741 74.0068359375 980.745117188 c 0,17,18
 77 1178 77 1178 207.452148438 1292.29980469 c 0,19,20
 319 1390 319 1390 498.915039062 1390.4453125 c 0,21,22
 606 1391 606 1391 698.174804688 1354.3125 c 0,23,24
 791 1318 791 1318 856.938476562 1245.75683594 c 0,25,26
 922.979214699 1174.02257725 922.979214699 1174.02257725 960.712890625 1067.2734375 c 2,27,-1
 972.661132812 1033.47167969 l 1,28,-1
 764.659179688 933.2421875 l 1,29,-1
 746.643554688 967.293945312 l 2,30,31
 706 1044 706 1044 644.328125 1080.78710938 c 0,32,33
 583 1117 583 1117 524.227539062 1116.69921875 c 0,34,35
 410 1116 410 1116 367.684570312 1042.07519531 c 0,36,37
 347 1005 347 1005 348.928710938 964.397460938 c 0,38,39
 356 858 356 858 460.091796875 789.345703125 c 0,40,41
 714.66645919 620.221584485 714.66645919 620.221584485 719.5234375 473.012695312 c 2,42,-1
 720.88671875 431.693359375 l 1,43,-1
 438.97265625 431.693359375 l 1,44,-1
 438.52734375 471.243164062 l 2,13,14
EndSplineSet
EndChar

StartChar: uni0621
Encoding: 1569 1569 9
Width: 807
VWidth: 2593
GlyphClass: 2
Flags: W
AnchorPoint: "Anchor-7" 470.143 -26.166 basechar 0
AnchorPoint: "Anchor-10" 322.188 1131.55 basechar 0
LayerCount: 2
Fore
SplineSet
444.806640625 670.45703125 m 0,0,1
 406.693359375 670.262695312 406.693359375 670.262695312 378.037109375 660.173828125 c 128,-1,2
 349.379882812 650.084960938 349.379882812 650.084960938 328.401367188 630.858398438 c 0,3,4
 312.487304688 615.466796875 312.487304688 615.466796875 304.833984375 595.3125 c 128,-1,5
 297.1796875 575.157226562 297.1796875 575.157226562 297.30078125 546.038085938 c 0,6,7
 297.243164062 520.442382812 297.243164062 520.442382812 304.42578125 500.15234375 c 128,-1,8
 311.607421875 479.861328125 311.607421875 479.861328125 327.69921875 462.592773438 c 128,-1,9
 343.790039062 445.32421875 343.790039062 445.32421875 370.572265625 432.1171875 c 128,-1,10
 397.353515625 418.909179688 397.353515625 418.909179688 435.588867188 409.282226562 c 0,11,12
 463.98828125 402.012695312 463.98828125 402.012695312 497.697265625 402.09765625 c 0,13,14
 562.192382812 402.012695312 562.192382812 402.012695312 649.756835938 447.828125 c 2,15,-1
 692.821289062 470.359375 l 1,16,-1
 764.1796875 229.887695312 l 1,17,-1
 145.283203125 -7.1513671875 l 1,18,-1
 52.4921875 211.08203125 l 1,19,-1
 205.474609375 265.021484375 l 1,20,21
 51.0947265625 353.728515625 51.0947265625 353.728515625 51.69921875 555.795898438 c 0,22,23
 52.0380859375 752.337890625 52.0380859375 752.337890625 210.185546875 849.97265625 c 0,24,25
 257.4921875 879.57421875 257.4921875 879.57421875 314.295898438 894.426757812 c 128,-1,26
 371.100585938 909.278320312 371.100585938 909.278320312 436.12890625 909.607421875 c 0,27,28
 446.962890625 909.654296875 446.962890625 909.654296875 457.588867188 909.232421875 c 128,-1,29
 468.213867188 908.809570312 468.213867188 908.809570312 478.671875 907.911132812 c 128,-1,30
 489.130859375 907.013671875 489.130859375 907.013671875 499.366210938 905.641601562 c 128,-1,31
 509.6015625 904.270507812 509.6015625 904.270507812 519.659179688 902.415039062 c 128,-1,32
 529.715820312 900.55859375 529.715820312 900.55859375 539.536132812 898.2265625 c 128,-1,33
 549.356445312 895.89453125 549.356445312 895.89453125 558.987304688 893.068359375 c 128,-1,34
 568.6171875 890.2421875 568.6171875 890.2421875 577.997070312 886.936523438 c 128,-1,35
 587.376953125 883.631835938 587.376953125 883.631835938 596.555664062 879.823242188 c 128,-1,36
 605.734375 876.015625 605.734375 876.015625 614.6484375 871.725585938 c 2,37,-1
 637.30078125 860.822265625 l 1,38,-1
 637.30078125 627.87109375 l 1,39,-1
 584.24609375 646.190429688 l 2,40,41
 549.559570312 658.166992188 549.559570312 658.166992188 514.828125 664.20703125 c 128,-1,42
 480.095703125 670.248046875 480.095703125 670.248046875 444.806640625 670.45703125 c 0,0,1
EndSplineSet
EndChar

StartChar: uni0627
Encoding: 1575 1575 15
Width: 531
VWidth: 2553
GlyphClass: 2
Flags: W
AnchorPoint: "Anchor-10" 259.338 1445.41 basechar 0
AnchorPoint: "Anchor-7" 263.805 -254.859 basechar 0
LayerCount: 2
Fore
SplineSet
137.299804688 0.6943359375 m 1,0,-1
 137.299804688 1357.72460938 l 5,1,-1
 392.393554688 1357.72753906 l 5,2,-1
 392.393554688 0.736328125 l 1,3,-1
 137.299804688 0.6943359375 l 1,0,-1
EndSplineSet
Substitution2: "'fina' Terminal Forms in Arabic lookup 9 subtable" uniFE8E
EndChar

StartChar: uni062D
Encoding: 1581 1581 21
Width: 1369
VWidth: 2593
GlyphClass: 2
Flags: W
AnchorPoint: "Anchor-10" 558.649 1205.29 basechar 0
AnchorPoint: "Anchor-7" 332.854 -853.488 basechar 0
LayerCount: 2
Fore
SplineSet
1113.94824219 305.901367188 m 2,0,1
 712.151367188 245.482421875 712.151367188 245.482421875 519.208007812 127.30859375 c 128,-1,2
 326.264648438 9.134765625 326.264648438 9.134765625 325.6875 -157.934570312 c 0,3,4
 324.932617188 -325.814453125 324.932617188 -325.814453125 447.067382812 -409.193359375 c 128,-1,5
 569.202148438 -492.571289062 569.202148438 -492.571289062 834.43359375 -492.172851562 c 2,6,-1
 1288.33007812 -491.89453125 l 1,7,-1
 1288.33007812 -755.55859375 l 1,8,-1
 822.388671875 -754.58203125 l 2,9,10
 418.592773438 -753.9765625 418.592773438 -753.9765625 244.374023438 -587.7109375 c 0,11,12
 66.7705078125 -417.326171875 66.7705078125 -417.326171875 70.1123046875 -175.166015625 c 0,13,14
 73.0771484375 105.540039062 73.0771484375 105.540039062 284.814453125 279.286132812 c 128,-1,15
 496.55078125 453.033203125 496.55078125 453.033203125 902.203125 519.7265625 c 1,16,-1
 737.169921875 596.186523438 l 2,17,18
 711.783203125 607.970703125 711.783203125 607.970703125 687.502929688 615.821289062 c 128,-1,19
 663.221679688 623.670898438 663.221679688 623.670898438 641.349609375 627.452148438 c 128,-1,20
 619.478515625 631.232421875 619.478515625 631.232421875 598.961914062 631.418945312 c 0,21,22
 576.3828125 631.2109375 576.3828125 631.2109375 556.423828125 626.899414062 c 128,-1,23
 536.463867188 622.587890625 536.463867188 622.587890625 518.4375 614.109375 c 128,-1,24
 500.411132812 605.629882812 500.411132812 605.629882812 483.141601562 592.567382812 c 2,25,-1
 297.6875 452.288085938 l 1,26,-1
 128.193359375 642.698242188 l 1,27,-1
 305.234375 792.055664062 l 2,28,29
 439.375976562 904.974609375 439.375976562 904.974609375 590.848632812 905.236328125 c 0,30,31
 626.602539062 905.149414062 626.602539062 905.149414062 663.005859375 898.758789062 c 128,-1,32
 699.409179688 892.368164062 699.409179688 892.368164062 735.698242188 880.005859375 c 128,-1,33
 771.987304688 867.64453125 771.987304688 867.64453125 808.854492188 849.268554688 c 2,34,-1
 1129.87402344 689.258789062 l 2,35,36
 1284.91894531 611.765625 1284.91894531 611.765625 1285.26367188 506.504882812 c 2,37,-1
 1285.16992188 327.66015625 l 1,38,-1
 1248.80761719 324.357421875 l 2,39,40
 1171.72949219 317.35546875 1171.72949219 317.35546875 1115.80761719 306.2265625 c 2,41,-1
 1114.88183594 306.041992188 l 1,42,-1
 1113.94824219 305.901367188 l 2,0,1
EndSplineSet
Substitution2: "'fina' Terminal Forms in Arabic lookup 9 subtable" uniFEA2
Substitution2: "'medi' Medial Forms in Arabic lookup 11 subtable" uniFEA4
Substitution2: "'init' Initial Forms in Arabic lookup 13 subtable" uniFEA3
EndChar

StartChar: uni062F
Encoding: 1583 1583 23
Width: 1040
VWidth: 2593
GlyphClass: 2
Flags: W
AnchorPoint: "Anchor-10" 353.659 1340.16 basechar 0
AnchorPoint: "Anchor-7" 406.382 -262.53 basechar 0
LayerCount: 2
Fore
SplineSet
477.982421875 0 m 2,0,-1
 71.8994140625 0 l 1,1,-1
 71.8994140625 268 l 1,2,-1
 478.934570312 268 l 2,3,4
 503.329101562 267.985351562 503.329101562 267.985351562 525.26171875 269.022460938 c 0,5,6
 577.921875 271.512695312 577.921875 271.512695312 614.353515625 279.142578125 c 128,-1,7
 650.786132812 286.772460938 650.786132812 286.772460938 668.624023438 298.192382812 c 128,-1,8
 686.461914062 309.611328125 686.461914062 309.611328125 693.448242188 321.331054688 c 128,-1,9
 700.434570312 333.049804688 700.434570312 333.049804688 699.768554688 347.106445312 c 0,10,11
 699.392578125 355.026367188 699.392578125 355.026367188 696.833007812 364.748046875 c 128,-1,12
 694.272460938 374.469726562 694.272460938 374.469726562 689.459960938 386.172851562 c 128,-1,13
 684.646484375 397.875 684.646484375 397.875 677.079101562 411.561523438 c 128,-1,14
 669.51171875 425.247070312 669.51171875 425.247070312 659.650390625 440.278320312 c 128,-1,15
 649.7890625 455.30859375 649.7890625 455.30859375 636.568359375 472.55859375 c 128,-1,16
 623.34765625 489.80859375 623.34765625 489.80859375 607.755859375 507.822265625 c 2,17,-1
 309.907226562 851.931640625 l 1,18,-1
 487.30078125 1050.34863281 l 1,19,-1
 817.330078125 666.078125 l 2,20,21
 960.966796875 499.022460938 960.966796875 499.022460938 960.288085938 336.833007812 c 0,22,23
 959.81640625 224.14453125 959.81640625 224.14453125 901.474609375 148.208984375 c 128,-1,24
 843.133789062 72.2734375 843.133789062 72.2734375 736.633789062 36.150390625 c 128,-1,25
 630.134765625 0.02734375 630.134765625 0.02734375 477.982421875 0 c 2,0,-1
EndSplineSet
Substitution2: "'fina' Terminal Forms in Arabic lookup 9 subtable" uniFEAA
EndChar

StartChar: uni0631
Encoding: 1585 1585 25
Width: 797
VWidth: 2593
GlyphClass: 2
Flags: W
AnchorPoint: "Anchor-10" 470.527 995.269 basechar 0
AnchorPoint: "Anchor-7" 353.998 -826.627 basechar 0
LayerCount: 2
Fore
SplineSet
144.227539062 -224.440429688 m 2,0,1
 310.021484375 -224.5546875 310.021484375 -224.5546875 385.202148438 -159.736328125 c 128,-1,2
 460.3828125 -94.91796875 460.3828125 -94.91796875 460.3828125 42.53125 c 2,3,-1
 460.383789062 688.400390625 l 1,4,-1
 726.180664062 689.913085938 l 1,5,-1
 726.180664062 45.01171875 l 2,6,7
 726.084960938 -216.959960938 726.084960938 -216.959960938 577.736328125 -353.390625 c 128,-1,8
 429.387695312 -489.8203125 429.387695312 -489.8203125 146.66015625 -491.411132812 c 2,9,-1
 1.9482421875 -492.225585938 l 1,10,-1
 1.953125 -224.342773438 l 1,11,-1
 144.227539062 -224.440429688 l 2,0,1
EndSplineSet
PairPos2: "'kern' Horizontal Kerning lookup 15-1" uniFEFB dx=-100 dy=0 dh=-100 dv=0 dx=0 dy=0 dh=0 dv=0
PairPos2: "'kern' Horizontal Kerning lookup 15-1" uniFEDF dx=-100 dy=0 dh=-100 dv=0 dx=0 dy=0 dh=0 dv=0
PairPos2: "'kern' Horizontal Kerning lookup 15-1" uni062F dx=-100 dy=0 dh=-100 dv=0 dx=0 dy=0 dh=0 dv=0
PairPos2: "'kern' Horizontal Kerning lookup 15-2" uniFB90 dx=-142 dy=0 dh=-142 dv=0 dx=0 dy=0 dh=0 dv=0
PairPos2: "'kern' Horizontal Kerning lookup 15-2" uniFB8E dx=-142 dy=0 dh=-142 dv=0 dx=0 dy=0 dh=0 dv=0
PairPos2: "'kern' Horizontal Kerning lookup 15-2" uni06A9 dx=-142 dy=0 dh=-142 dv=0 dx=0 dy=0 dh=0 dv=0
PairPos2: "'kern' Horizontal Kerning lookup 15-2" uniFEEB dx=-100 dy=0 dh=-100 dv=0 dx=0 dy=0 dh=0 dv=0
PairPos2: "'kern' Horizontal Kerning lookup 15-2" uni0647 dx=-100 dy=0 dh=-100 dv=0 dx=0 dy=0 dh=0 dv=0
PairPos2: "'kern' Horizontal Kerning lookup 15-2" uniFEE7 dx=-100 dy=0 dh=-100 dv=0 dx=0 dy=0 dh=0 dv=0
PairPos2: "'kern' Horizontal Kerning lookup 15-2" uniFEE3 dx=-100 dy=0 dh=-100 dv=0 dx=0 dy=0 dh=0 dv=0
PairPos2: "'kern' Horizontal Kerning lookup 15-2" uni0645 dx=-100 dy=0 dh=-100 dv=0 dx=0 dy=0 dh=0 dv=0
PairPos2: "'kern' Horizontal Kerning lookup 15-2" uniFEDB dx=-100 dy=0 dh=-100 dv=0 dx=0 dy=0 dh=0 dv=0
PairPos2: "'kern' Horizontal Kerning lookup 15-2" uni0643 dx=-100 dy=0 dh=-100 dv=0 dx=0 dy=0 dh=0 dv=0
PairPos2: "'kern' Horizontal Kerning lookup 15-2" uniFED7 dx=-100 dy=0 dh=-100 dv=0 dx=0 dy=0 dh=0 dv=0
PairPos2: "'kern' Horizontal Kerning lookup 15-2" uniFED3 dx=-100 dy=0 dh=-100 dv=0 dx=0 dy=0 dh=0 dv=0
PairPos2: "'kern' Horizontal Kerning lookup 15-2" uni0641 dx=-100 dy=0 dh=-100 dv=0 dx=0 dy=0 dh=0 dv=0
PairPos2: "'kern' Horizontal Kerning lookup 15-2" uniFECF dx=-100 dy=0 dh=-100 dv=0 dx=0 dy=0 dh=0 dv=0
PairPos2: "'kern' Horizontal Kerning lookup 15-2" uniFECB dx=-100 dy=0 dh=-100 dv=0 dx=0 dy=0 dh=0 dv=0
PairPos2: "'kern' Horizontal Kerning lookup 15-2" uniFEC7 dx=-100 dy=0 dh=-100 dv=0 dx=0 dy=0 dh=0 dv=0
PairPos2: "'kern' Horizontal Kerning lookup 15-2" uni0638 dx=-100 dy=0 dh=-100 dv=0 dx=0 dy=0 dh=0 dv=0
PairPos2: "'kern' Horizontal Kerning lookup 15-2" uniFEC3 dx=-100 dy=0 dh=-100 dv=0 dx=0 dy=0 dh=0 dv=0
PairPos2: "'kern' Horizontal Kerning lookup 15-2" uni0637 dx=-100 dy=0 dh=-100 dv=0 dx=0 dy=0 dh=0 dv=0
PairPos2: "'kern' Horizontal Kerning lookup 15-2" uniFEBF dx=-100 dy=0 dh=-100 dv=0 dx=0 dy=0 dh=0 dv=0
PairPos2: "'kern' Horizontal Kerning lookup 15-2" uni0636 dx=-100 dy=0 dh=-100 dv=0 dx=0 dy=0 dh=0 dv=0
PairPos2: "'kern' Horizontal Kerning lookup 15-2" uniFEBB dx=-100 dy=0 dh=-100 dv=0 dx=0 dy=0 dh=0 dv=0
PairPos2: "'kern' Horizontal Kerning lookup 15-2" uni0635 dx=-100 dy=0 dh=-100 dv=0 dx=0 dy=0 dh=0 dv=0
PairPos2: "'kern' Horizontal Kerning lookup 15-2" uniFEB7 dx=-100 dy=0 dh=-100 dv=0 dx=0 dy=0 dh=0 dv=0
PairPos2: "'kern' Horizontal Kerning lookup 15-2" uni0634 dx=-100 dy=0 dh=-100 dv=0 dx=0 dy=0 dh=0 dv=0
PairPos2: "'kern' Horizontal Kerning lookup 15-2" uniFEB3 dx=-100 dy=0 dh=-100 dv=0 dx=0 dy=0 dh=0 dv=0
PairPos2: "'kern' Horizontal Kerning lookup 15-2" uni0633 dx=-100 dy=0 dh=-100 dv=0 dx=0 dy=0 dh=0 dv=0
PairPos2: "'kern' Horizontal Kerning lookup 15-2" uniFEA7 dx=-100 dy=0 dh=-100 dv=0 dx=0 dy=0 dh=0 dv=0
PairPos2: "'kern' Horizontal Kerning lookup 15-2" uniFEA3 dx=-100 dy=0 dh=-100 dv=0 dx=0 dy=0 dh=0 dv=0
PairPos2: "'kern' Horizontal Kerning lookup 15-2" uniFE9F dx=-100 dy=0 dh=-100 dv=0 dx=0 dy=0 dh=0 dv=0
PairPos2: "'kern' Horizontal Kerning lookup 15-2" uniFE9B dx=-100 dy=0 dh=-100 dv=0 dx=0 dy=0 dh=0 dv=0
PairPos2: "'kern' Horizontal Kerning lookup 15-2" uni062B dx=-100 dy=0 dh=-100 dv=0 dx=0 dy=0 dh=0 dv=0
PairPos2: "'kern' Horizontal Kerning lookup 15-2" uniFE97 dx=-100 dy=0 dh=-100 dv=0 dx=0 dy=0 dh=0 dv=0
PairPos2: "'kern' Horizontal Kerning lookup 15-2" uni062A dx=-100 dy=0 dh=-100 dv=0 dx=0 dy=0 dh=0 dv=0
PairPos2: "'kern' Horizontal Kerning lookup 15-2" uni0629 dx=-100 dy=0 dh=-100 dv=0 dx=0 dy=0 dh=0 dv=0
PairPos2: "'kern' Horizontal Kerning lookup 15-2" uniFE91 dx=-47 dy=0 dh=-47 dv=0 dx=0 dy=0 dh=0 dv=0
PairPos2: "'kern' Horizontal Kerning lookup 15-2" uni0628 dx=-100 dy=0 dh=-100 dv=0 dx=0 dy=0 dh=0 dv=0
PairPos2: "'kern' Horizontal Kerning lookup 15-2" uni0627 dx=-100 dy=0 dh=-100 dv=0 dx=0 dy=0 dh=0 dv=0
PairPos2: "'kern' Horizontal Kerning lookup 15-2" uni0622 dx=-100 dy=0 dh=-100 dv=0 dx=0 dy=0 dh=0 dv=0
PairPos2: "'kern' Horizontal Kerning lookup 15-2" uni0621 dx=-100 dy=0 dh=-100 dv=0 dx=0 dy=0 dh=0 dv=0
PairPos2: "'kern' Horizontal Kerning lookup 15-2" uniFB94 dx=-142 dy=0 dh=-142 dv=0 dx=0 dy=0 dh=0 dv=0
PairPos2: "'kern' Horizontal Kerning lookup 15-2" uniFB92 dx=-142 dy=0 dh=-142 dv=0 dx=0 dy=0 dh=0 dv=0
PairPos2: "'kern' Horizontal Kerning lookup 15-2" afii57509 dx=-142 dy=0 dh=-142 dv=0 dx=0 dy=0 dh=0 dv=0
PairPos2: "'kern' Horizontal Kerning lookup 15-2" uniFB7C dx=-100 dy=0 dh=-100 dv=0 dx=0 dy=0 dh=0 dv=0
PairPos2: "'kern' Horizontal Kerning lookup 15-2" afii57506 dx=-100 dy=0 dh=-100 dv=0 dx=0 dy=0 dh=0 dv=0
PairPos2: "'kern' Horizontal Kerning lookup 15-2" afii57440 dx=-94 dy=0 dh=-94 dv=0 dx=0 dy=0 dh=0 dv=0
Substitution2: "'fina' Terminal Forms in Arabic lookup 9 subtable" uniFEAE
EndChar

StartChar: uni0633
Encoding: 1587 1587 27
Width: 2503
VWidth: 2593
GlyphClass: 2
Flags: W
AnchorPoint: "Anchor-10" 567.364 1027.96 basechar 0
AnchorPoint: "Anchor-7" 329.092 -601.765 basechar 0
LayerCount: 2
Fore
SplineSet
70.9814453125 525.9921875 m 1,0,-1
 329.91796875 526.041015625 l 1,1,-1
 329.91796875 144.456054688 l 2,2,3
 329.943359375 32.3701171875 329.943359375 32.3701171875 369.963867188 -39.5927734375 c 128,-1,4
 409.983398438 -111.556640625 409.983398438 -111.556640625 494.84765625 -147.5234375 c 128,-1,5
 579.7109375 -183.490234375 579.7109375 -183.490234375 713.396484375 -183.490234375 c 2,6,-1
 738.139648438 -183.490234375 l 1,7,-1
 759.305664062 -182.916015625 l 2,8,9
 950.459960938 -177.752929688 950.459960938 -177.752929688 1037.20703125 -110.748046875 c 128,-1,10
 1123.95410156 -43.7431640625 1123.95410156 -43.7431640625 1123.88574219 88.537109375 c 2,11,-1
 1123.55859375 724.787109375 l 1,12,-1
 1393.80273438 725.025390625 l 1,13,-1
 1394.48339844 405.245117188 l 2,14,15
 1394.59277344 366.345703125 1394.59277344 366.345703125 1403.109375 339.248046875 c 128,-1,16
 1411.62597656 312.150390625 1411.62597656 312.150390625 1430.54589844 293.953125 c 128,-1,17
 1449.46582031 275.755859375 1449.46582031 275.755859375 1479.18359375 267.078125 c 128,-1,18
 1508.90234375 258.399414062 1508.90234375 258.399414062 1551.98632812 257.669921875 c 0,19,20
 1606.92675781 256.6875 1606.92675781 256.6875 1633.9453125 296.23046875 c 128,-1,21
 1660.96386719 335.7734375 1660.96386719 335.7734375 1660.69042969 436.678710938 c 2,22,-1
 1659.890625 732.041992188 l 1,23,-1
 1923.84765625 732.041992188 l 1,24,-1
 1924.58886719 430.727539062 l 2,25,26
 1924.77050781 335.865234375 1924.77050781 335.865234375 1959.31640625 296.684570312 c 128,-1,27
 1993.86230469 257.504882812 1993.86230469 257.504882812 2070.84375 258.56640625 c 0,28,29
 2120.15039062 259.418945312 2120.15039062 259.418945312 2146.27246094 302.5234375 c 128,-1,30
 2172.39550781 345.627929688 2172.39550781 345.627929688 2172.39550781 451.665039062 c 2,31,-1
 2172.39550781 773.979492188 l 1,32,-1
 2431.15234375 773.979492188 l 1,33,-1
 2431.15234375 457.6328125 l 2,34,35
 2431.07226562 237.954101562 2431.07226562 237.954101562 2341.50976562 118.741210938 c 128,-1,36
 2251.94824219 -0.4716796875 2251.94824219 -0.4716796875 2076.58789062 -1.06640625 c 0,37,38
 1880.17382812 -1.8759765625 1880.17382812 -1.8759765625 1793.85839844 119.591796875 c 1,39,40
 1715.78027344 -2.80078125 1715.78027344 -2.80078125 1562.27148438 -0.9970703125 c 0,41,42
 1449.15820312 0.3681640625 1449.15820312 0.3681640625 1379.02441406 43.75390625 c 1,43,44
 1365.11132812 -193.635742188 1365.11132812 -193.635742188 1206.42480469 -318.497070312 c 128,-1,45
 1047.73925781 -443.358398438 1047.73925781 -443.358398438 758.692382812 -452.186523438 c 2,46,-1
 739.025390625 -452.787109375 l 1,47,-1
 711.239257812 -452.787109375 l 2,48,49
 277.223632812 -452.94140625 277.223632812 -452.94140625 135.182617188 -167.409179688 c 0,50,51
 71.4521484375 -38.1220703125 71.4521484375 -38.1220703125 71.16015625 143.2578125 c 2,52,-1
 70.9814453125 525.9921875 l 1,0,-1
EndSplineSet
Substitution2: "'fina' Terminal Forms in Arabic lookup 9 subtable" uniFEB2
Substitution2: "'medi' Medial Forms in Arabic lookup 11 subtable" uniFEB4
Substitution2: "'init' Initial Forms in Arabic lookup 13 subtable" uniFEB3
EndChar

StartChar: uni0635
Encoding: 1589 1589 29
Width: 2528
VWidth: 2593
GlyphClass: 2
Flags: W
AnchorPoint: "Anchor-10" 559.495 1027.96 basechar 0
AnchorPoint: "Anchor-7" 266.07 -590.58 basechar 0
LayerCount: 2
Fore
SplineSet
2195.55078125 454.962890625 m 0,0,1
 2184.03808594 503.26953125 2184.03808594 503.26953125 2161.78515625 533.262695312 c 128,-1,2
 2139.53222656 563.256835938 2139.53222656 563.256835938 2104.13671875 577.6328125 c 128,-1,3
 2068.74023438 592.009765625 2068.74023438 592.009765625 2017.12402344 592.013671875 c 0,4,5
 1941.52246094 592.008789062 1941.52246094 592.008789062 1859.8984375 513.499023438 c 128,-1,6
 1778.2734375 434.990234375 1778.2734375 434.990234375 1696.50585938 271.52734375 c 1,7,-1
 1991.19921875 271.52734375 l 2,8,9
 2061.12988281 271.7421875 2061.12988281 271.7421875 2107.25488281 282.045898438 c 128,-1,10
 2153.37988281 292.349609375 2153.37988281 292.349609375 2170.671875 307.114257812 c 0,11,12
 2201 334.38671875 2201 334.38671875 2201 389 c 0,13,14
 2201 409.26171875 2201 409.26171875 2199.5390625 426.142578125 c 128,-1,15
 2198.078125 443.0234375 2198.078125 443.0234375 2195.55078125 454.962890625 c 0,0,1
1437.27441406 308.534179688 m 1,16,17
 1674.61328125 853 1674.61328125 853 2027.5 853 c 0,18,19
 2096.34082031 853 2096.34082031 853 2156.40722656 835.506835938 c 128,-1,20
 2216.47460938 818.014648438 2216.47460938 818.014648438 2267.01757812 782.963867188 c 128,-1,21
 2317.56054688 747.9140625 2317.56054688 747.9140625 2356.9140625 696.021484375 c 0,22,23
 2449.953125 572.436523438 2449.953125 572.436523438 2450.5625 399.588867188 c 0,24,25
 2451.04785156 204.943359375 2451.04785156 204.943359375 2321.18847656 99.9267578125 c 0,26,27
 2279.42578125 65.9951171875 2279.42578125 65.9951171875 2225.64941406 43.689453125 c 128,-1,28
 2171.87304688 21.384765625 2171.87304688 21.384765625 2108.78027344 10.802734375 c 128,-1,29
 2045.6875 0.220703125 2045.6875 0.220703125 1971.28417969 0.1845703125 c 2,30,-1
 1590.32421875 0 l 2,31,32
 1461.09375 0 1461.09375 0 1379.73046875 55.2470703125 c 1,33,34
 1375.20996094 -66.3349609375 1375.20996094 -66.3349609375 1332.28613281 -159.848632812 c 128,-1,35
 1289.36132812 -253.361328125 1289.36132812 -253.361328125 1210.3359375 -316.454101562 c 128,-1,36
 1131.30957031 -379.546875 1131.30957031 -379.546875 1018.01855469 -413.635742188 c 128,-1,37
 904.7265625 -447.724609375 904.7265625 -447.724609375 758.65234375 -452.186523438 c 2,38,-1
 738.985351562 -452.787109375 l 1,39,-1
 711.202148438 -452.787109375 l 2,40,41
 398.112304688 -452.8984375 398.112304688 -452.8984375 234.66796875 -301.454101562 c 128,-1,42
 71.224609375 -150.009765625 71.224609375 -150.009765625 71.12109375 143.262695312 c 2,43,-1
 70.986328125 525.9921875 l 1,44,-1
 329.877929688 526.041015625 l 1,45,-1
 329.877929688 144.462890625 l 2,46,47
 329.93359375 -23.4677734375 329.93359375 -23.4677734375 421.995117188 -103.478515625 c 128,-1,48
 514.057617188 -183.490234375 514.057617188 -183.490234375 713.356445312 -183.490234375 c 2,49,-1
 738.217773438 -183.490234375 l 1,50,-1
 765.4921875 -182.911132812 l 2,51,52
 953.407226562 -178.704101562 953.407226562 -178.704101562 1038.66601562 -111.854492188 c 128,-1,53
 1123.92382812 -45.005859375 1123.92382812 -45.005859375 1123.84570312 88.5341796875 c 2,54,-1
 1123.47363281 724.797851562 l 1,55,-1
 1384.9296875 724.931640625 l 1,56,-1
 1385.0390625 486.595703125 l 2,57,58
 1385.01269531 349.39453125 1385.01269531 349.39453125 1437.27441406 308.534179688 c 1,16,17
EndSplineSet
Substitution2: "'fina' Terminal Forms in Arabic lookup 9 subtable" uniFEBA
Substitution2: "'medi' Medial Forms in Arabic lookup 11 subtable" uniFEBC
Substitution2: "'init' Initial Forms in Arabic lookup 13 subtable" uniFEBB
EndChar

StartChar: uni0637
Encoding: 1591 1591 31
Width: 1321
VWidth: 2593
GlyphClass: 2
Flags: W
AnchorPoint: "Anchor-10" 405.723 1450.59 basechar 0
AnchorPoint: "Anchor-7" 674.688 -237.098 basechar 0
LayerCount: 2
Fore
SplineSet
989.270507812 454.779296875 m 0,0,1
 972.528320312 526.541015625 972.528320312 526.541015625 930.224609375 559.274414062 c 128,-1,2
 887.919921875 592.0078125 887.919921875 592.0078125 810.799804688 592.013671875 c 0,3,4
 734.85546875 592.008789062 734.85546875 592.008789062 653.243164062 513.528320312 c 128,-1,5
 571.630859375 435.046875 571.630859375 435.046875 490.087890625 271.52734375 c 1,6,-1
 784.875 271.52734375 l 2,7,8
 855.026367188 271.7421875 855.026367188 271.7421875 901.1875 282.026367188 c 128,-1,9
 947.348632812 292.310546875 947.348632812 292.310546875 964.330078125 307.09765625 c 0,10,11
 979.498046875 320.4453125 979.498046875 320.4453125 987.15234375 339.950195312 c 128,-1,12
 994.806640625 359.456054688 994.806640625 359.456054688 994.674804688 389.055664062 c 0,13,14
 994.967773438 429.662109375 994.967773438 429.662109375 989.270507812 454.779296875 c 0,0,1
295.905273438 452 m 1,15,-1
 295.905273438 1368.640625 l 5,16,-1
 551 1368.64355469 l 5,17,-1
 551 751.286132812 l 1,18,19
 584 777 584 777 616.5078125 795.452148438 c 128,-1,20
 649 814 649 814 682.823242188 827.240234375 c 0,21,22
 716 840 716 840 750.422851562 846.543945312 c 128,-1,23
 785 853 785 853 819.17578125 853 c 0,24,25
 1035 853 1035 853 1151.62207031 697.979492188 c 0,26,27
 1198 637 1198 637 1220.9765625 561.56640625 c 128,-1,28
 1244 486 1244 486 1244.23828125 399.584960938 c 0,29,30
 1245 205 1245 205 1114.86425781 99.9267578125 c 0,31,32
 1053 49 1053 49 964.961914062 24.7470703125 c 0,33,34
 877.772423606 0.21731247554 877.772423606 0.21731247554 764.952148438 0.1845703125 c 2,35,-1
 71.7705078125 -0.0166015625 l 1,36,-1
 71.7705078125 269.266601562 l 1,37,-1
 205.73828125 269.044921875 l 1,38,39
 231 328 231 328 295.905273438 452 c 1,15,-1
EndSplineSet
Substitution2: "'fina' Terminal Forms in Arabic lookup 9 subtable" uniFEC2
Substitution2: "'medi' Medial Forms in Arabic lookup 11 subtable" uniFEC4
Substitution2: "'init' Initial Forms in Arabic lookup 13 subtable" uniFEC3
EndChar

StartChar: uni0639
Encoding: 1593 1593 33
Width: 1300
VWidth: 2593
GlyphClass: 2
Flags: W
AnchorPoint: "Anchor-10" 685.349 1495.99 basechar 0
AnchorPoint: "Anchor-7" 310.438 -831.494 basechar 0
LayerCount: 2
Fore
SplineSet
1227.28515625 -754.077148438 m 1,0,-1
 820.399414062 -753.098632812 l 2,1,2
 461.627929688 -751.958007812 461.627929688 -751.958007812 277.000976562 -613.719726562 c 0,3,4
 70.939453125 -458.935546875 70.939453125 -458.935546875 71.8046875 -174.63671875 c 0,5,6
 72.3798828125 4.7939453125 72.3798828125 4.7939453125 165.545898438 141.622070312 c 128,-1,7
 258.711914062 278.450195312 258.711914062 278.450195312 438.991210938 368.283203125 c 1,8,9
 410.408203125 386.141601562 410.408203125 386.141601562 386.661132812 408.158203125 c 128,-1,10
 362.9140625 430.174804688 362.9140625 430.174804688 343.010742188 457.07421875 c 0,11,12
 266.887695312 557.725585938 266.887695312 557.725585938 267.924804688 682.30859375 c 0,13,14
 269.108398438 848.404296875 269.108398438 848.404296875 364.211914062 954.6953125 c 0,15,16
 427.618164062 1025.33300781 427.618164062 1025.33300781 520.666015625 1060.01855469 c 128,-1,17
 613.712890625 1094.70507812 613.712890625 1094.70507812 733.09765625 1094.37109375 c 0,18,19
 894.780273438 1093.9765625 894.780273438 1093.9765625 1055.33105469 1010.91308594 c 2,20,-1
 1084.06640625 996.045898438 l 1,21,-1
 1021.46582031 767.056640625 l 1,22,-1
 979.981445312 783.39453125 l 2,23,24
 846.411132812 835.998046875 846.411132812 835.998046875 742.923828125 835.978515625 c 0,25,26
 703.201171875 836.13671875 703.201171875 836.13671875 671.547851562 831.806640625 c 128,-1,27
 639.89453125 827.475585938 639.89453125 827.475585938 615.756835938 818.400390625 c 128,-1,28
 591.620117188 809.325195312 591.620117188 809.325195312 574.372070312 796.044921875 c 128,-1,29
 557.125 782.764648438 557.125 782.764648438 546.0859375 764.336914062 c 128,-1,30
 535.046875 745.91015625 535.046875 745.91015625 529.727539062 723.606445312 c 128,-1,31
 524.408203125 701.302734375 524.408203125 701.302734375 523.997070312 673.495117188 c 0,32,33
 523.671875 642.470703125 523.671875 642.470703125 530.881835938 616.825195312 c 128,-1,34
 538.090820312 591.180664062 538.090820312 591.180664062 554.052734375 569.173828125 c 128,-1,35
 570.014648438 547.166992188 570.014648438 547.166992188 595.159179688 530.057617188 c 128,-1,36
 620.302734375 512.948242188 620.302734375 512.948242188 656.065429688 499.838867188 c 128,-1,37
 691.828125 486.728515625 691.828125 486.728515625 738.420898438 478.033203125 c 1,38,-1
 1150.87597656 507.22265625 l 1,39,-1
 1150.64355469 247.525390625 l 1,40,-1
 1111.51171875 246.709960938 l 2,41,42
 704.462890625 238.23046875 704.462890625 238.23046875 503.618164062 117.72265625 c 0,43,44
 324.20703125 9.53515625 324.20703125 9.53515625 325.930664062 -179.397460938 c 0,45,46
 327.291992188 -335.26171875 327.291992188 -335.26171875 445 -413.56640625 c 128,-1,47
 562.70703125 -491.872070312 562.70703125 -491.872070312 816.659179688 -492.5 c 2,48,-1
 1228.80664062 -493.51953125 l 1,49,-1
 1227.28515625 -754.077148438 l 1,0,-1
EndSplineSet
Substitution2: "'fina' Terminal Forms in Arabic lookup 9 subtable" uniFECA
Substitution2: "'medi' Medial Forms in Arabic lookup 11 subtable" uniFECC
Substitution2: "'init' Initial Forms in Arabic lookup 13 subtable" uniFECB
EndChar

StartChar: afii57440
Encoding: 1600 1600 35
Width: 763
VWidth: 2593
GlyphClass: 2
Flags: W
AnchorPoint: "Anchor-10" 381.758 1531.26 basechar 0
AnchorPoint: "Anchor-7" 353.758 -189.351 basechar 0
LayerCount: 2
Fore
SplineSet
767.9765625 268 m 2,0,1
 821.989257812 268 821.989257812 268 852.490234375 231.794921875 c 128,-1,2
 882.991210938 195.58984375 882.991210938 195.58984375 882.9765625 139 c 2,3,-1
 882.9765625 128 l 2,4,5
 882.9765625 71.78515625 882.9765625 71.78515625 852.46875 35.892578125 c 128,-1,6
 821.961914062 0 821.961914062 0 767.9765625 0 c 2,7,-1
 -5.0234375 0 l 2,8,9
 -58.85546875 0 -58.85546875 0 -89.431640625 35.8876953125 c 128,-1,10
 -120.008789062 71.775390625 -120.008789062 71.775390625 -120.0234375 128 c 2,11,-1
 -120.0234375 139 l 2,12,13
 -120.0234375 195.59765625 -120.0234375 195.59765625 -89.609375 231.798828125 c 128,-1,14
 -59.1962890625 268 -59.1962890625 268 -5.0234375 268 c 2,15,-1
 767.9765625 268 l 2,0,1
EndSplineSet
EndChar

StartChar: uni0643
Encoding: 1603 1603 38
Width: 1877
VWidth: 2593
GlyphClass: 2
Flags: W
AnchorPoint: "Anchor-10" 597.194 1671.14 basechar 0
AnchorPoint: "Anchor-7" 427.008 -249.033 basechar 0
LayerCount: 2
Fore
SplineSet
708.515625 823.330078125 m 2,0,1
 770.712890625 815.491210938 770.712890625 815.491210938 832.82421875 815.491210938 c 0,2,3
 889.9453125 815.491210938 889.9453125 815.491210938 938.538085938 834.377929688 c 0,4,5
 997.059570312 857.123046875 997.059570312 857.123046875 997.059570312 881.939453125 c 0,6,7
 997.059570312 883.768554688 997.059570312 883.768554688 996.76171875 885.190429688 c 128,-1,8
 996.462890625 886.611328125 996.462890625 886.611328125 993.48046875 890.141601562 c 128,-1,9
 990.499023438 893.671875 990.499023438 893.671875 985.084960938 896.528320312 c 128,-1,10
 979.670898438 899.385742188 979.670898438 899.385742188 967.943359375 902.901367188 c 128,-1,11
 956.216796875 906.416015625 956.216796875 906.416015625 939.924804688 908.993164062 c 0,12,13
 833.236328125 925.873046875 833.236328125 925.873046875 787.447265625 985.76171875 c 0,14,15
 720.083984375 1073.86523438 720.083984375 1073.86523438 750.875 1170.64257812 c 0,16,17
 806.237304688 1344.65527344 806.237304688 1344.65527344 1097.48144531 1366.29980469 c 2,18,-1
 1169.71484375 1371.66699219 l 1,19,-1
 1169.71484375 1191.28027344 l 1,20,-1
 1107.91796875 1186.25292969 l 2,21,22
 1055.40527344 1181.98144531 1055.40527344 1181.98144531 1017.90917969 1173.31054688 c 128,-1,23
 980.412109375 1164.640625 980.412109375 1164.640625 962.197265625 1153.81933594 c 128,-1,24
 943.981445312 1142.99902344 943.981445312 1142.99902344 936.287109375 1133.17089844 c 128,-1,25
 928.592773438 1123.34375 928.592773438 1123.34375 928.592773438 1113.37695312 c 0,26,27
 928.592773438 1105.625 928.592773438 1105.625 929.982421875 1101.57226562 c 128,-1,28
 931.372070312 1097.52050781 931.372070312 1097.52050781 937.109375 1093.4296875 c 128,-1,29
 942.845703125 1089.33984375 942.845703125 1089.33984375 954.782226562 1085.49902344 c 0,30,31
 979.47265625 1077.55566406 979.47265625 1077.55566406 1027.60058594 1070.4765625 c 0,32,33
 1091.75683594 1061.04003906 1091.75683594 1061.04003906 1134.72851562 1019.41601562 c 0,34,35
 1180.609375 974.971679688 1180.609375 974.971679688 1180.609375 900.932617188 c 0,36,37
 1180.609375 832.294921875 1180.609375 832.294921875 1151.16210938 785.510742188 c 0,38,39
 1024.44335938 584.1875 1024.44335938 584.1875 689.719726562 636.505859375 c 2,40,-1
 632.857421875 645.396484375 l 1,41,-1
 632.857421875 832.864257812 l 1,42,-1
 708.515625 823.330078125 l 2,0,1
1371.84667969 268.23046875 m 2,43,44
 1452.17530163 268.23046875 1452.17530163 268.23046875 1490.95410156 319.212890625 c 0,45,46
 1529.41601562 370.555335316 1529.41601562 370.555335316 1529.41601562 490.396484375 c 2,47,-1
 1529.41601562 1367.17089844 l 5,48,-1
 1788.17382812 1367.18847656 l 5,49,-1
 1788.17382812 517.376953125 l 2,50,51
 1787.99926581 155.477900247 1787.99926581 155.477900247 1573.74902344 44.95703125 c 0,52,53
 1484.87176087 -1.06640625 1484.87176087 -1.06640625 1364.62988281 -1.06640625 c 2,54,-1
 472.948242188 -1.06640625 l 2,55,56
 266 -1 266 -1 158.533203125 123.331054688 c 128,-1,57
 51.1503150401 247.825731801 51.1503150401 247.825731801 51.1494140625 481.006835938 c 2,58,-1
 51.1484375 733.75 l 1,59,-1
 309.904296875 733.75 l 1,60,-1
 309.904296875 491.5859375 l 2,61,62
 310 371 310 371 348.447265625 319.490234375 c 0,63,64
 386.827439113 268.23046875 386.827439113 268.23046875 467.470703125 268.23046875 c 2,65,-1
 1371.84667969 268.23046875 l 2,43,44
EndSplineSet
Substitution2: "'fina' Terminal Forms in Arabic lookup 9 subtable" uniFEDA
Substitution2: "'medi' Medial Forms in Arabic lookup 11 subtable" uniFEDC
Substitution2: "'init' Initial Forms in Arabic lookup 13 subtable" uniFEDB
EndChar

StartChar: uni0644
Encoding: 1604 1604 39
Width: 1417
VWidth: 2593
GlyphClass: 2
Flags: W
AnchorPoint: "Anchor-10" 417.625 1189.69 basechar 0
AnchorPoint: "Anchor-7" 380.231 -571.937 basechar 0
LayerCount: 2
Fore
SplineSet
329.877929688 144.44921875 m 2,0,1
 329.877929688 -20.8916015625 329.877929688 -20.8916015625 417.830078125 -99.185546875 c 0,2,3
 505.47265625 -177.528320312 505.47265625 -177.528320312 696.356445312 -177.528320312 c 2,4,-1
 721.217773438 -177.528320312 l 1,5,-1
 748.532226562 -176.947265625 l 2,6,7
 982 -172 982 -172 1034.55273438 -5.9189453125 c 0,8,9
 1052.36425781 52.189453125 1052.36425781 52.189453125 1052.36523438 128.416015625 c 2,10,-1
 1052.37695312 1366.63671875 l 1,11,-1
 1306.33105469 1366.63671875 l 5,12,-1
 1305.25488281 123.965820312 l 2,13,14
 1305 -147 1305 -147 1161.33203125 -292.516601562 c 0,15,16
 1018 -438 1018 -438 721.986328125 -446.825195312 c 1,17,-1
 694.198242188 -446.825195312 l 2,18,19
 271.715820312 -447.000976562 271.715820312 -447.000976562 134.182617188 -165.686523438 c 0,20,21
 71.1845703125 -37.3759765625 71.1845703125 -37.3759765625 71.12109375 143.262695312 c 2,22,-1
 70.986328125 525.9921875 l 1,23,-1
 329.877929688 526.041015625 l 1,24,-1
 329.877929688 144.44921875 l 2,0,1
EndSplineSet
Substitution2: "'fina' Terminal Forms in Arabic lookup 9 subtable" uniFEDE
Substitution2: "'medi' Medial Forms in Arabic lookup 11 subtable" uniFEE0
Substitution2: "'init' Initial Forms in Arabic lookup 13 subtable" uniFEDF
EndChar

StartChar: uni0645
Encoding: 1605 1605 40
Width: 1324
VWidth: 2593
GlyphClass: 2
Flags: W
AnchorPoint: "Anchor-10" 655.137 1292.98 basechar 0
AnchorPoint: "Anchor-7" 154.119 -697.918 basechar 0
LayerCount: 2
Fore
SplineSet
852.844726562 574.115234375 m 0,0,1
 777.768554688 574.043945312 777.768554688 574.043945312 736.734375 572.2734375 c 1,2,3
 736.366210938 560.329101562 736.366210938 560.329101562 736.125976562 546.196289062 c 128,-1,4
 735.885742188 532.0625 735.885742188 532.0625 735.772460938 515.61328125 c 128,-1,5
 735.659179688 499.165039062 735.659179688 499.165039062 735.673828125 480.38671875 c 128,-1,6
 735.688476562 461.609375 735.688476562 461.609375 735.831054688 440.404296875 c 0,7,8
 736.875 304.438476562 736.875 304.438476562 778.83984375 261.5390625 c 0,9,10
 816.779296875 222.979492188 816.779296875 222.979492188 888.750976562 222.890625 c 0,11,12
 947.794921875 222.930664062 947.794921875 222.930664062 977.26171875 274.202148438 c 128,-1,13
 1006.72753906 325.474609375 1006.72753906 325.474609375 1002.99121094 450.612304688 c 0,14,15
 1000.98339844 516.0859375 1000.98339844 516.0859375 967.053710938 545.075195312 c 128,-1,16
 933.125 574.065429688 933.125 574.065429688 852.844726562 574.115234375 c 0,0,1
898.188476562 824.5390625 m 2,17,18
 1072.2109375 824.546875 1072.2109375 824.546875 1163.15136719 722.704101562 c 128,-1,19
 1254.09277344 620.860351562 1254.09277344 620.860351562 1253.04785156 431.815429688 c 0,20,21
 1251.91503906 146.60546875 1251.91503906 146.60546875 1082.72949219 33.154296875 c 0,22,23
 1044.95996094 7.9296875 1044.95996094 7.9296875 995.532226562 -4.1435546875 c 128,-1,24
 946.104492188 -16.216796875 946.104492188 -16.216796875 885.279296875 -16.4755859375 c 0,25,26
 712.498046875 -18.15234375 712.498046875 -18.15234375 604.036132812 82.2021484375 c 0,27,28
 472.575195312 202.802734375 472.575195312 202.802734375 478.90234375 466.270507812 c 0,29,30
 479.985351562 511.315429688 479.985351562 511.315429688 481.65625 544.856445312 c 1,31,32
 325.010742188 495.831054688 325.010742188 495.831054688 325.010742188 201.032226562 c 2,33,-1
 325.010742188 -496.416992188 l 1,34,-1
 70.94921875 -496.416992188 l 1,35,-1
 70.9541015625 199.573242188 l 2,36,37
 70.4580078125 503.796875 70.4580078125 503.796875 202.649414062 664.155273438 c 128,-1,38
 334.83984375 824.513671875 334.83984375 824.513671875 593.25390625 824.525390625 c 2,39,-1
 898.188476562 824.5390625 l 2,17,18
EndSplineSet
Substitution2: "'init' Initial Forms in Arabic lookup 13 subtable" uniFEE3
Substitution2: "'medi' Medial Forms in Arabic lookup 11 subtable" uniFEE4
Substitution2: "'fina' Terminal Forms in Arabic lookup 9 subtable" uniFEE2
EndChar

StartChar: uni0647
Encoding: 1607 1607 42
Width: 939
VWidth: 2370
GlyphClass: 2
Flags: W
AnchorPoint: "Anchor-10" 427.833 1157.93 basechar 0
AnchorPoint: "Anchor-7" 329.418 -160.202 basechar 0
LayerCount: 2
Fore
SplineSet
468.419921875 607.82421875 m 1,0,1
 418.41015625 554.828125 418.41015625 554.828125 384.8984375 507.087890625 c 128,-1,2
 351.385742188 459.346679688 351.385742188 459.346679688 336.58984375 423.297851562 c 128,-1,3
 321.794921875 387.248046875 321.794921875 387.248046875 321.731445312 359.33203125 c 0,4,5
 321.827148438 310.264648438 321.827148438 310.264648438 356.905273438 286.114257812 c 128,-1,6
 391.983398438 261.96484375 391.983398438 261.96484375 481.702148438 261.935546875 c 0,7,8
 563.919921875 261.963867188 563.919921875 261.963867188 595.509765625 284.602539062 c 128,-1,9
 627.100585938 307.240234375 627.100585938 307.240234375 627.15625 354.545898438 c 0,10,11
 627.100585938 397.181640625 627.100585938 397.181640625 587.690429688 462.334960938 c 128,-1,12
 548.280273438 527.489257812 548.280273438 527.489257812 468.419921875 607.82421875 c 1,0,1
70.951171875 342.151367188 m 0,13,14
 71.0009765625 541.764648438 71.0009765625 541.764648438 291.35546875 781.60546875 c 1,15,-1
 253.463867188 816.638671875 l 1,16,-1
 408.830078125 991.799804688 l 1,17,-1
 438.346679688 969.405273438 l 2,18,19
 874.036132812 638.833984375 874.036132812 638.833984375 873.499023438 345.002929688 c 0,20,21
 873.315429688 232.9140625 873.315429688 232.9140625 826.891601562 155.60546875 c 128,-1,22
 780.46875 78.296875 780.46875 78.296875 692.803710938 39.640625 c 128,-1,23
 605.137695312 0.9853515625 605.137695312 0.9853515625 480.0859375 0.9775390625 c 0,24,25
 198.885742188 1.7568359375 198.885742188 1.7568359375 108.747070312 172.45703125 c 0,26,27
 71.1923828125 244.739257812 71.1923828125 244.739257812 70.951171875 342.151367188 c 0,13,14
EndSplineSet
Substitution2: "'fina' Terminal Forms in Arabic lookup 9 subtable" uniFEEA
Substitution2: "'medi' Medial Forms in Arabic lookup 11 subtable" uniFEEC
Substitution2: "'init' Initial Forms in Arabic lookup 13 subtable" uniFEEB
EndChar

StartChar: uni0648
Encoding: 1608 1608 43
Width: 897
VWidth: 2593
GlyphClass: 2
Flags: W
AnchorPoint: "Anchor-10" 372.019 1245.88 basechar 0
AnchorPoint: "Anchor-7" 375.433 -677.366 basechar 0
LayerCount: 2
Fore
SplineSet
822.920898438 49.5498046875 m 2,0,1
 823.12109375 -215.772460938 823.12109375 -215.772460938 674.108398438 -353.162109375 c 128,-1,2
 525.096679688 -490.551757812 525.096679688 -490.551757812 240.734375 -490.412109375 c 2,3,-1
 97.044921875 -490.341796875 l 1,4,-1
 96.8994140625 -222.166992188 l 1,5,-1
 236.938476562 -222.265625 l 2,6,7
 401.356445312 -222.59765625 401.356445312 -222.59765625 477.624023438 -167.639648438 c 128,-1,8
 553.891601562 -112.682617188 553.891601562 -112.682617188 559.5390625 0.1064453125 c 1,9,-1
 419.052734375 0.1064453125 l 2,10,11
 248.120117188 0.0478515625 248.120117188 0.0478515625 159.310546875 104.94140625 c 128,-1,12
 70.501953125 209.834960938 70.501953125 209.834960938 71.076171875 403.893554688 c 0,13,14
 72.107421875 599.079101562 72.107421875 599.079101562 168.552734375 703.673828125 c 128,-1,15
 264.999023438 808.267578125 264.999023438 808.267578125 447.521484375 808.58984375 c 0,16,17
 538.943359375 808.702148438 538.943359375 808.702148438 609.501953125 781.455078125 c 128,-1,18
 680.060546875 754.208007812 680.060546875 754.208007812 727.099609375 701.754882812 c 128,-1,19
 774.137695312 649.301757812 774.137695312 649.301757812 798.361328125 572.522460938 c 128,-1,20
 822.584960938 495.743164062 822.584960938 495.743164062 822.659179688 396.983398438 c 2,21,-1
 822.920898438 49.5498046875 l 2,0,1
443.610351562 553.374023438 m 0,22,23
 372.05859375 553.219726562 372.05859375 553.219726562 340.989257812 519.587890625 c 128,-1,24
 309.919921875 485.956054688 309.919921875 485.956054688 309.859375 405.2265625 c 0,25,26
 309.900390625 353.618164062 309.900390625 353.618164062 321.734375 323.612304688 c 128,-1,27
 333.567382812 293.60546875 333.567382812 293.60546875 356.567382812 281.309570312 c 128,-1,28
 379.567382812 269.013671875 379.567382812 269.013671875 418.014648438 269 c 2,29,-1
 569.598632812 268.9453125 l 1,30,-1
 569.258789062 390.918945312 l 2,31,32
 569.14453125 480.258789062 569.14453125 480.258789062 539.278320312 516.7421875 c 128,-1,33
 509.412109375 553.225585938 509.412109375 553.225585938 443.610351562 553.374023438 c 0,22,23
EndSplineSet
Substitution2: "'fina' Terminal Forms in Arabic lookup 9 subtable" uniFEEE
EndChar

StartChar: uni0649
Encoding: 1609 1609 44
Width: 1506
VWidth: 2593
GlyphClass: 2
Flags: W
AnchorPoint: "Anchor-10" 464.637 1268.75 basechar 0
AnchorPoint: "Anchor-7" 305.837 -646.501 basechar 0
LayerCount: 2
Fore
SplineSet
1160.77441406 353.370117188 m 2,0,1
 1286.9296875 353.370117188 1286.9296875 353.370117188 1356.02929688 284.997070312 c 128,-1,2
 1425.12792969 216.625 1425.12792969 216.625 1425.12792969 91.36328125 c 2,3,-1
 1425.12792969 62.0126953125 l 2,4,5
 1425.05957031 -205.4921875 1425.05957031 -205.4921875 1258.51660156 -342.392578125 c 128,-1,6
 1091.97363281 -479.291992188 1091.97363281 -479.291992188 775.419921875 -479.280273438 c 2,7,-1
 720.922851562 -479.280273438 l 2,8,9
 402.856445312 -479.133789062 402.856445312 -479.133789062 236.657226562 -328.017578125 c 128,-1,10
 70.45703125 -176.901367188 70.45703125 -176.901367188 70.267578125 116.006835938 c 2,11,-1
 69.9736328125 569 l 1,12,-1
 329.022460938 569 l 1,13,-1
 329.022460938 117.203125 l 2,14,15
 329.012695312 -49.943359375 329.012695312 -49.943359375 423.572265625 -129.956054688 c 128,-1,16
 518.131835938 -209.969726562 518.131835938 -209.969726562 723.114257812 -209.98046875 c 2,17,-1
 784.022460938 -209.98046875 l 2,18,19
 986.21875 -209.990234375 986.21875 -209.990234375 1077.46875 -146.684570312 c 128,-1,20
 1168.71875 -83.37890625 1168.71875 -83.37890625 1168.71875 44.416015625 c 2,21,-1
 1168.71875 56.22265625 l 2,22,23
 1168.80859375 81.41796875 1168.80859375 81.41796875 1162.1484375 88.0791015625 c 128,-1,24
 1155.48925781 94.740234375 1155.48925781 94.740234375 1130.29003906 94.740234375 c 2,25,-1
 938.946289062 94.7412109375 l 2,26,27
 838.70703125 94.890625 838.70703125 94.890625 782.236328125 149.27734375 c 128,-1,28
 725.765625 203.6640625 725.765625 203.6640625 725.765625 301.583007812 c 2,29,-1
 725.765625 367.397460938 l 2,30,31
 725.888671875 616.266601562 725.888671875 616.266601562 843.755859375 748.02734375 c 128,-1,32
 961.623046875 879.787109375 961.623046875 879.787109375 1188.51269531 879.901367188 c 2,33,-1
 1424.8125 880.01953125 l 1,34,-1
 1426.08007812 610.604492188 l 1,35,-1
 1147.2421875 610.604492188 l 2,36,37
 1067.27734375 610.764648438 1067.27734375 610.764648438 1027.14746094 556.086914062 c 128,-1,38
 987.017578125 501.409179688 987.017578125 501.409179688 984.514648438 373.22265625 c 2,39,-1
 984.126953125 353.370117188 l 1,40,-1
 1160.77441406 353.370117188 l 2,0,1
EndSplineSet
Substitution2: "'fina' Terminal Forms in Arabic lookup 9 subtable" uniFEF0
Substitution2: "'medi' Medial Forms in Arabic lookup 11 subtable" uniFBE9
Substitution2: "'init' Initial Forms in Arabic lookup 13 subtable" uniFBE8
EndChar

StartChar: uni064B
Encoding: 1611 1611 46
Width: 0
VWidth: 2186
GlyphClass: 4
Flags: W
AnchorPoint: "Anchor-10" 547.84 1041.5 mark 0
AnchorPoint: "Anchor-9" 547.84 1041.5 mark 0
AnchorPoint: "Anchor-1" 547.84 1576.5 basemark 0
AnchorPoint: "Anchor-1" 547.84 1041.5 mark 0
LayerCount: 2
Fore
SplineSet
271 970.660808568 m 1,0,-1
 271 1130.14229745 l 1,1,-1
 795 1344.40950393 l 1,2,-1
 795 1184.92801505 l 1,3,-1
 271 970.660808568 l 1,0,-1
271 1229.66080857 m 1,4,-1
 271 1389.14229745 l 1,5,-1
 795 1603.40950393 l 1,6,-1
 795 1443.92801505 l 1,7,-1
 271 1229.66080857 l 1,4,-1
EndSplineSet
EndChar

StartChar: uni064C
Encoding: 1612 1612 47
Width: 0
VWidth: 2186
GlyphClass: 4
Flags: W
AnchorPoint: "Anchor-10" 554.386 1155.44 mark 0
AnchorPoint: "Anchor-9" 554.386 1155.44 mark 0
AnchorPoint: "Anchor-1" 546.386 1810.94 basemark 0
AnchorPoint: "Anchor-1" 554.386 1155.44 mark 0
LayerCount: 2
Fore
SplineSet
556.773120018 1309.48494326 m 0,0,1
 595.031865613 1346.71037191 595.031865613 1346.71037191 617.263112758 1390.09403343 c 1,2,3
 599.372864237 1394.10780402 599.372864237 1394.10780402 585.478494622 1399.16457918 c 128,-1,4
 571.584125008 1404.22135435 571.584125008 1404.22135435 559.338233611 1411.14576614 c 0,5,6
 502.373845412 1441.21024618 502.373845412 1441.21024618 472.554922706 1482.3728837 c 128,-1,7
 442.736 1523.53552122 442.736 1523.53552122 442.736 1574.47 c 0,8,9
 442.736 1621.01504542 442.736 1621.01504542 461.5732648 1658.98278414 c 128,-1,10
 480.4105296 1696.95052286 480.4105296 1696.95052286 517.351314613 1724.78973661 c 0,11,12
 547.860251624 1747.67 547.860251624 1747.67 615.937 1747.67 c 0,13,14
 694.861902825 1747.67 694.861902825 1747.67 738.228157773 1705.38181019 c 0,15,16
 797.696 1647.00468424 797.696 1647.00468424 797.696 1561.63 c 0,17,18
 797.696 1521.16278712 797.696 1521.16278712 785.533386118 1481.10655416 c 1,19,20
 795.623260817 1480.60849016 795.623260817 1480.60849016 803.033899461 1480.396356 c 128,-1,21
 810.444538106 1480.18422185 810.444538106 1480.18422185 817.834922113 1480.16997212 c 0,22,-1
 818.610869113 1480.14839062 l 2,23,24
 831.735833639 1479.44311602 831.735833639 1479.44311602 846.08244292 1479.19780774 c 2,25,-1
 860.826 1478.94571217 l 1,26,-1
 860.826 1357.34498968 l 1,27,-1
 845.731290568 1357.440299 l 2,28,29
 805.434593043 1357.69473589 805.434593043 1357.69473589 786.914921263 1359.55178662 c 2,30,-1
 732.755953201 1364.75881984 l 1,31,32
 718.347745847 1331.54787027 718.347745847 1331.54787027 691.540073552 1294.89073936 c 128,-1,33
 664.732401257 1258.23360845 664.732401257 1258.23360845 624.860831176 1216.76884086 c 0,34,35
 533.30758644 1124.1400082 533.30758644 1124.1400082 431.911683806 1124.1400082 c 0,36,37
 359.663561363 1124.06446646 359.663561363 1124.06446646 313.015572016 1167.01877614 c 128,-1,38
 266.367582669 1209.97308582 266.367582669 1209.97308582 247.610773327 1291.92244782 c 0,39,40
 232.742333709 1352.27826323 232.742333709 1352.27826323 231.994514376 1442.57577836 c 2,41,-1
 231.869259707 1457.7 l 1,42,-1
 332.167144041 1457.7 l 1,43,-1
 332.29841535 1442.83243547 l 2,44,45
 332.999301948 1363.45121531 332.999301948 1363.45121531 345.623802785 1323.06539473 c 0,46,47
 369.986951111 1245.12760142 369.986951111 1245.12760142 431.809578374 1245.84 c 0,48,49
 491.006366117 1245.84 491.006366117 1245.84 556.773120018 1309.48494326 c 0,0,1
660.818541472 1500.94617695 m 1,50,-1
 666.52882455 1514.26878948 l 2,51,52
 675.996 1536.35886553 675.996 1536.35886553 675.996 1561.63 c 0,53,54
 675.996 1574.23142689 675.996 1574.23142689 673.795558522 1584.07604309 c 128,-1,55
 671.595117045 1593.92065928 671.595117045 1593.92065928 667.816447751 1600.41598121 c 128,-1,56
 664.037778458 1606.91130313 664.037778458 1606.91130313 658.532715168 1611.44242694 c 0,57,58
 656.243894727 1613.32789398 656.243894727 1613.32789398 653.945894008 1614.95540593 c 128,-1,59
 651.647893289 1616.58291789 651.647893289 1616.58291789 649.330742327 1617.95724666 c 128,-1,60
 647.013591365 1619.33157543 647.013591365 1619.33157543 644.677753752 1620.46063612 c 128,-1,61
 642.341916139 1621.58969682 642.341916139 1621.58969682 639.963393378 1622.47945469 c 128,-1,62
 637.584870616 1623.36921256 637.584870616 1623.36921256 635.179090067 1624.02630982 c 128,-1,63
 632.773309517 1624.68340709 632.773309517 1624.68340709 630.301308914 1625.11508189 c 128,-1,64
 627.829308311 1625.54675669 627.829308311 1625.54675669 625.321478781 1625.75837835 c 128,-1,65
 622.813649252 1625.97 622.813649252 1625.97 620.217 1625.97 c 0,66,67
 596.921788944 1625.97 596.921788944 1625.97 584.982037896 1616.71053997 c 0,68,69
 566.576 1602.85620716 566.576 1602.85620716 566.576 1574.47 c 0,70,71
 566.576 1555.14289835 566.576 1555.14289835 577.575303245 1541.28914025 c 128,-1,72
 588.57460649 1527.43538215 588.57460649 1527.43538215 613.46776389 1517.47758882 c 0,73,74
 623.424599818 1513.49576354 623.424599818 1513.49576354 635.80146612 1509.18194265 c 128,-1,75
 648.178332421 1504.86812176 648.178332421 1504.86812176 660.818541472 1500.94617695 c 1,50,-1
EndSplineSet
EndChar

StartChar: uni064D
Encoding: 1613 1613 48
Width: 0
VWidth: 2186
GlyphClass: 4
Flags: W
AnchorPoint: "Anchor-7" 531.84 75.5 mark 0
AnchorPoint: "Anchor-6" 531.84 75.5 mark 0
AnchorPoint: "Anchor-0" 547.84 -439.5 basemark 0
AnchorPoint: "Anchor-0" 531.84 75.5 mark 0
LayerCount: 2
Fore
SplineSet
276 -519.339191432 m 1,0,-1
 276 -359.857702546 l 1,1,-1
 800 -145.590496068 l 1,2,-1
 800 -305.071984954 l 1,3,-1
 276 -519.339191432 l 1,0,-1
276 -260.339191432 m 1,4,-1
 276 -100.857702546 l 1,5,-1
 800 113.409503932 l 1,6,-1
 800 -46.0719849545 l 1,7,-1
 276 -260.339191432 l 1,4,-1
EndSplineSet
EndChar

StartChar: uni064E
Encoding: 1614 1614 49
Width: 0
VWidth: 2186
GlyphClass: 4
Flags: W
AnchorPoint: "Anchor-10" 517.84 1279.5 mark 0
AnchorPoint: "Anchor-9" 517.84 1279.5 mark 0
AnchorPoint: "Anchor-1" 517.84 1600.5 basemark 0
AnchorPoint: "Anchor-1" 517.84 1279.5 mark 0
LayerCount: 2
Fore
SplineSet
242 1228.66080857 m 1,0,-1
 242 1388.14229745 l 1,1,-1
 766 1602.40950393 l 1,2,-1
 766 1442.92801505 l 1,3,-1
 242 1228.66080857 l 1,0,-1
EndSplineSet
EndChar

StartChar: uni064F
Encoding: 1615 1615 50
Width: 0
VWidth: 2186
GlyphClass: 4
Flags: W
AnchorPoint: "Anchor-10" 531.84 1205.5 mark 0
AnchorPoint: "Anchor-9" 531.84 1205.5 mark 0
AnchorPoint: "Anchor-1" 547.84 1825 basemark 0
AnchorPoint: "Anchor-1" 531.84 1205.5 mark 0
LayerCount: 2
Fore
SplineSet
561.843413998 1424.70503489 m 0,0,1
 443.981846826 1475.10843101 443.981846826 1475.10843101 444.19 1588.53 c 0,2,3
 444.19 1619.52104692 444.19 1619.52104692 452.570023096 1646.79383115 c 128,-1,4
 460.950046192 1674.06661539 460.950046192 1674.06661539 477.576305112 1697.18764707 c 128,-1,5
 494.202564032 1720.30867875 494.202564032 1720.30867875 518.805314613 1738.84973661 c 0,6,7
 534.917130208 1750.93283818 534.917130208 1750.93283818 559.312611734 1756.33141909 c 128,-1,8
 583.70809326 1761.73 583.70809326 1761.73 617.39 1761.73 c 0,9,10
 643.140122588 1761.73 643.140122588 1761.73 665.225932061 1757.19655646 c 128,-1,11
 687.311741535 1752.66311291 687.311741535 1752.66311291 706.169054082 1743.19800592 c 128,-1,12
 725.02636663 1733.73289892 725.02636663 1733.73289892 739.682089141 1719.44187756 c 0,13,14
 799.15 1661.06468424 799.15 1661.06468424 799.15 1575.69 c 0,15,16
 799.15 1542.41827314 799.15 1542.41827314 784.834559205 1495.14749697 c 1,17,18
 802.014933701 1494.18456075 802.014933701 1494.18456075 819.675185126 1493.69422522 c 0,19,20
 826.082106793 1493.51639239 826.082106793 1493.51639239 833.016877359 1493.39512454 c 128,-1,21
 839.951647925 1493.27385669 839.951647925 1493.27385669 847.409554665 1493.20944051 c 2,22,-1
 862.28 1493.08100001 l 1,23,-1
 862.28 1371.37048835 l 1,24,-1
 847.121336436 1371.53083916 l 2,25,26
 816.48237826 1371.85494305 816.48237826 1371.85494305 788.48769687 1373.60118414 c 0,27,28
 757.3551286 1375.68287839 757.3551286 1375.68287839 727.489030539 1378.84007522 c 1,29,30
 680.982535195 1313.61198739 680.982535195 1313.61198739 607.707953526 1269.01451949 c 0,31,32
 403.327017015 1143.33584691 403.327017015 1143.33584691 249.354513818 1137.38490237 c 2,33,-1
 233.4 1136.80055422 l 1,34,-1
 233.4 1258.58202041 l 1,35,-1
 247.965917412 1259.00371776 l 2,36,37
 403.301017276 1263.50081869 403.301017276 1263.50081869 545.535723047 1375.03206392 c 0,38,39
 553.24447874 1381.06569037 553.24447874 1381.06569037 561.080317768 1387.83625251 c 128,-1,40
 568.916156796 1394.60681464 568.916156796 1394.60681464 575.945929467 1401.25116785 c 128,-1,41
 582.975702139 1407.89552105 582.975702139 1407.89552105 589.041131908 1414.21461251 c 1,42,43
 581.639381476 1416.74941128 581.639381476 1416.74941128 575.506264313 1419.12199364 c 128,-1,44
 569.373147149 1421.494576 569.373147149 1421.494576 561.843413998 1424.70503489 c 0,0,1
662.272534412 1515.00616048 m 1,45,-1
 667.98282455 1528.32878948 l 2,46,47
 677.45 1550.41886553 677.45 1550.41886553 677.45 1575.69 c 0,48,49
 677.45 1611.12869472 677.45 1611.12869472 659.986715168 1625.50242694 c 128,-1,50
 642.351293606 1640.03 642.351293606 1640.03 621.67 1640.03 c 0,51,52
 598.375788944 1640.03 598.375788944 1640.03 586.436037896 1630.77053997 c 0,53,54
 568.03 1616.91620716 568.03 1616.91620716 568.03 1588.53 c 0,55,56
 568.03 1550.29529347 568.03 1550.29529347 614.92198311 1531.53750115 c 0,57,58
 635.444838257 1523.3298582 635.444838257 1523.3298582 662.272534412 1515.00616048 c 1,45,-1
EndSplineSet
EndChar

StartChar: uni0650
Encoding: 1616 1616 51
Width: 0
VWidth: 2186
GlyphClass: 4
Flags: W
AnchorPoint: "Anchor-7" 509.84 -12.5 mark 0
AnchorPoint: "Anchor-6" 509.84 -12.5 mark 0
AnchorPoint: "Anchor-0" 556.84 -311.5 basemark 0
AnchorPoint: "Anchor-0" 509.84 -12.5 mark 0
LayerCount: 2
Fore
SplineSet
286 -365.339191432 m 1,0,-1
 286 -205.857702546 l 1,1,-1
 810 8.4095039322 l 1,2,-1
 810 -151.071984954 l 1,3,-1
 286 -365.339191432 l 1,0,-1
EndSplineSet
EndChar

StartChar: uni0651
Encoding: 1617 1617 52
Width: 0
VWidth: 2186
GlyphClass: 4
Flags: W
AnchorPoint: "Anchor-10" 547.84 1316.5 mark 0
AnchorPoint: "Anchor-9" 547.84 1316.5 mark 0
AnchorPoint: "Anchor-1" 535.84 1818.5 basemark 0
AnchorPoint: "Anchor-1" 547.84 1316.5 mark 0
LayerCount: 2
Fore
SplineSet
408.853054278 1274.38976463 m 0,0,1
 318.030214121 1274.17499998 318.030214121 1274.17499998 270.784610733 1327.19745503 c 128,-1,2
 223.539007345 1380.21991009 223.539007345 1380.21991009 223.000285947 1480.96336487 c 2,3,-1
 222.114764888 1646.56 l 1,4,-1
 340.538703774 1646.56 l 1,5,-1
 342.138645122 1480.08997721 l 2,6,7
 342.491669503 1444.84724472 342.491669503 1444.84724472 358.168851762 1429.15462528 c 128,-1,8
 373.846034022 1413.46200583 373.846034022 1413.46200583 408.955213198 1413.08974468 c 0,9,10
 428.123274873 1413.0718357 428.123274873 1413.0718357 442.117214539 1418.84203972 c 128,-1,11
 456.111154204 1424.61224373 456.111154204 1424.61224373 465.986283785 1437.15933886 c 128,-1,12
 475.861413366 1449.706434 475.861413366 1449.706434 480.876860778 1469.97939088 c 128,-1,13
 485.89230819 1490.25234777 485.89230819 1490.25234777 486.267728817 1518.80296328 c 2,14,-1
 488.661257047 1700.83 l 1,15,-1
 605.764780276 1700.83 l 1,16,-1
 608.336737676 1527.88437984 l 2,17,18
 608.999732181 1493.72729295 608.999732181 1493.72729295 628.165013019 1477.88916956 c 128,-1,19
 647.330293858 1462.05104617 647.330293858 1462.05104617 690.862259799 1462.08983119 c 0,20,21
 720.558894257 1462.05654711 720.558894257 1462.05654711 736.196089642 1486.89920349 c 128,-1,22
 751.833285026 1511.74185988 751.833285026 1511.74185988 752.541552787 1569.30563276 c 2,23,-1
 754.766051612 1750.09960938 l 1,24,-1
 877.96109511 1750.09960938 l 1,25,-1
 875.678267597 1570.63180208 l 2,26,27
 874.262285474 1451.80747426 874.262285474 1451.80747426 828.106633156 1388.93304448 c 128,-1,28
 781.950980839 1326.05861471 781.950980839 1326.05861471 692.010414636 1326.13280869 c 0,29,30
 651.074298497 1326.07844042 651.074298497 1326.07844042 618.790403996 1336.559603 c 128,-1,31
 586.506509495 1347.04076558 586.506509495 1347.04076558 563.304518715 1368.38635843 c 1,32,33
 544.614224043 1321.95040582 544.614224043 1321.95040582 505.274943486 1298.31032245 c 128,-1,34
 465.935662929 1274.67023908 465.935662929 1274.67023908 408.853054278 1274.38976463 c 0,0,1
EndSplineSet
EndChar

StartChar: uni0652
Encoding: 1618 1618 53
Width: 0
VWidth: 2186
GlyphClass: 4
Flags: W
AnchorPoint: "Anchor-10" 565.84 1128.5 mark 0
AnchorPoint: "Anchor-9" 565.84 1128.5 mark 0
AnchorPoint: "Anchor-1" 551.84 1702 basemark 0
AnchorPoint: "Anchor-1" 565.84 1128.5 mark 0
LayerCount: 2
Fore
SplineSet
659.569 1383.62 m 0,0,1
 659.569 1421.93679659 659.569 1421.93679659 632.83188719 1448.6739094 c 128,-1,2
 606.098373148 1475.41 606.098373148 1475.41 567.126 1475.41 c 0,3,4
 556.977484735 1475.41 556.977484735 1475.41 547.891557416 1473.78427943 c 128,-1,5
 538.805630098 1472.15855886 538.805630098 1472.15855886 530.611022653 1468.85719166 c 128,-1,6
 522.416415208 1465.55582446 522.416415208 1465.55582446 515.095485186 1460.62108809 c 128,-1,7
 507.774555165 1455.68635173 507.774555165 1455.68635173 501.091601718 1449.00339828 c 0,8,9
 492.161352306 1440.07314887 492.161352306 1440.07314887 486.32687578 1430.02966768 c 128,-1,10
 480.492399255 1419.98618649 480.492399255 1419.98618649 477.588699628 1408.44424224 c 128,-1,11
 474.685 1396.90229798 474.685 1396.90229798 474.685 1383.62 c 0,12,13
 474.685 1375.49880899 474.685 1375.49880899 475.730239316 1368.06068833 c 128,-1,14
 476.775478632 1360.62256766 476.775478632 1360.62256766 478.866292082 1353.80086747 c 128,-1,15
 480.957105532 1346.97916728 480.957105532 1346.97916728 484.132411538 1340.69943213 c 128,-1,16
 487.307717544 1334.41969699 487.307717544 1334.41969699 491.52776367 1328.67504532 c 128,-1,17
 495.747809796 1322.93039364 495.747809796 1322.93039364 501.091601718 1317.58660172 c 0,18,19
 514.456253909 1304.22194953 514.456253909 1304.22194953 530.68325127 1297.70097476 c 128,-1,20
 546.910248631 1291.18 546.910248631 1291.18 567.126 1291.18 c 0,21,22
 580.392652403 1291.18 580.392652403 1291.18 591.957967711 1294.1120701 c 128,-1,23
 603.523283019 1297.04414021 603.523283019 1297.04414021 613.652408198 1302.95421153 c 128,-1,24
 623.781533376 1308.86428286 623.781533376 1308.86428286 632.832398282 1317.91660172 c 0,25,26
 659.569 1344.65320344 659.569 1344.65320344 659.569 1383.62 c 0,0,1
765.396 1383.73 m 0,27,28
 765.396 1356.31337281 765.396 1356.31337281 758.971867048 1331.36807504 c 128,-1,29
 752.547734096 1306.42277727 752.547734096 1306.42277727 739.7543418 1284.21818183 c 128,-1,30
 726.960949503 1262.01358639 726.960949503 1262.01358639 707.955730472 1242.88663084 c 0,31,32
 650.499709077 1185.07 650.499709077 1185.07 567.436 1185.07 c 128,-1,33
 484.372208032 1185.07 484.372208032 1185.07 426.916690644 1242.88721339 c 0,34,35
 398.393228402 1271.59283975 398.393228402 1271.59283975 383.934614201 1307.07635105 c 128,-1,36
 369.476 1342.55986236 369.476 1342.55986236 369.476 1383.73 c 0,37,38
 369.476 1411.14187582 369.476 1411.14187582 375.89987994 1436.04769365 c 128,-1,39
 382.32375988 1460.95351149 382.32375988 1460.95351149 395.121322245 1483.08768744 c 128,-1,40
 407.918884611 1505.2218634 407.918884611 1505.2218634 426.930298333 1524.23650177 c 0,41,42
 484.382713763 1581.69 484.382713763 1581.69 567.436 1581.69 c 128,-1,43
 650.489286177 1581.69 650.489286177 1581.69 707.942501129 1524.23570223 c 0,44,45
 736.473572359 1495.69979167 736.473572359 1495.69979167 750.934786179 1460.29739856 c 128,-1,46
 765.396 1424.89500546 765.396 1424.89500546 765.396 1383.73 c 0,27,28
EndSplineSet
EndChar

StartChar: uni0653
Encoding: 1619 1619 54
Width: 11
VWidth: 2553
GlyphClass: 4
Flags: W
AnchorPoint: "Anchor-10" 404.334 1442.64 mark 0
AnchorPoint: "Anchor-9" 404.334 1442.64 mark 0
AnchorPoint: "Anchor-1" 397.691 1800.13 basemark 0
AnchorPoint: "Anchor-1" 404.334 1442.64 mark 0
LayerCount: 2
Fore
SplineSet
305.551907958 1701.04003906 m 2,0,-1
 724.852641844 1701.04003906 l 1,1,-1
 726.668390606 1519.54003906 l 1,2,-1
 318.125373324 1519.54003906 l 2,3,4
 277.162569213 1519.75134942 277.162569213 1519.75134942 242.352007848 1500.98599426 c 128,-1,5
 207.541446483 1482.2206391 207.541446483 1482.2206391 177.61882797 1443.22668752 c 2,6,-1
 146.423245411 1402.57386046 l 1,7,-1
 24.7560898501 1540.04663454 l 1,8,-1
 42.5039276555 1567.07884218 l 2,9,10
 71.850423083 1611.52436429 71.850423083 1611.52436429 111.23264149 1641.36958107 c 128,-1,11
 150.614859898 1671.21479784 150.614859898 1671.21479784 199.277060376 1686.12049349 c 128,-1,12
 247.939260854 1701.02618914 247.939260854 1701.02618914 305.551907958 1701.04003906 c 2,0,-1
EndSplineSet
EndChar

StartChar: uni0657
Encoding: 1623 1623 57
Width: 11
VWidth: 2553
GlyphClass: 4
Flags: W
AnchorPoint: "Anchor-10" 648 1490.29 mark 0
AnchorPoint: "Anchor-9" 648 1490.29 mark 0
AnchorPoint: "Anchor-1" 648 2306.6 basemark 0
AnchorPoint: "Anchor-1" 648 1490.29 mark 0
LayerCount: 2
Fore
SplineSet
291.93359375 2007.97115093 m 1,0,-1
 443.225964296 1997.41132331 l 1,1,2
 503.121761897 2079.72521763 503.121761897 2079.72521763 584.53337713 2129.27595052 c 0,3,4
 698.165036541 2199.14958899 698.165036541 2199.14958899 798.938001501 2237.22756857 c 128,-1,5
 899.710966461 2275.30554815 899.710966461 2275.30554815 988.044706553 2281.33625762 c 2,6,-1
 1004.06640625 2282.43008899 l 1,7,-1
 1004.06640625 2165.50416075 l 1,8,-1
 989.891884388 2164.72292634 l 2,9,10
 806.541000201 2154.61746941 806.541000201 2154.61746941 642.696263449 2026.14265694 c 0,11,12
 613.200516378 2003.0532131 613.200516378 2003.0532131 588.792726095 1977.3726646 c 2,13,-1
 575.834319682 1963.7302736 l 1,14,-1
 594.193942143 1959.64594183 l 2,15,16
 600.95922918 1958.14512724 600.95922918 1958.14512724 611.594695956 1953.07509079 c 128,-1,17
 622.230162731 1948.00505434 622.230162731 1948.00505434 646.865251953 1935.18185137 c 0,18,19
 691.02394478 1912.19610627 691.02394478 1912.19610627 723.441429368 1867.70657245 c 0,20,21
 756.662109375 1822.11473872 756.662109375 1822.11473872 756.662109375 1767.10302734 c 0,22,23
 756.662109375 1713.46116945 756.662109375 1713.46116945 740.806221057 1681.49103185 c 0,24,25
 688.008919668 1575.03613281 688.008919668 1575.03613281 560.003986708 1575.03613281 c 0,26,27
 496.598915266 1575.03613281 496.598915266 1575.03613281 451.555652566 1605.00046806 c 128,-1,28
 406.512389866 1634.96480331 406.512389866 1634.96480331 382.453702642 1693.20074807 c 0,29,30
 366.028320312 1732.96271625 366.028320312 1732.96271625 366.028320312 1776.31761495 c 0,31,32
 366.028320312 1783.53961396 366.028320312 1783.53961396 366.511804305 1791.08122284 c 128,-1,33
 366.995288299 1798.62283173 366.995288299 1798.62283173 367.958940523 1806.44927786 c 128,-1,34
 368.922592747 1814.27572398 368.922592747 1814.27572398 370.352919802 1822.3996916 c 128,-1,35
 371.783246858 1830.52365923 371.783246858 1830.52365923 373.689176622 1838.97217937 c 128,-1,36
 375.595106385 1847.42069952 375.595106385 1847.42069952 377.950085576 1856.14053253 c 128,-1,37
 380.305064767 1864.86036554 380.305064767 1864.86036554 383.130264901 1873.94034612 c 2,38,-1
 387.170426152 1886.92666557 l 1,39,-1
 373.587337094 1887.72898623 l 2,40,41
 343.415188082 1889.50302192 343.415188082 1889.50302192 306.695528497 1890.08587367 c 2,42,-1
 291.93359375 1890.3201901 l 1,43,-1
 291.93359375 2007.97115093 l 1,0,-1
506.352997261 1867.47919396 m 1,44,-1
 495.046578455 1841.10175862 l 2,45,46
 482.884765625 1812.74194463 482.884765625 1812.74194463 482.884765625 1770.71402496 c 0,47,48
 482.884765625 1732.68359241 482.884765625 1732.68359241 506.992113341 1712.82720432 c 0,49,50
 519.923260849 1702.1762656 519.923260849 1702.1762656 533.394633374 1697.03442186 c 128,-1,51
 546.8660059 1691.89257812 546.8660059 1691.89257812 561.129440024 1691.89257812 c 0,52,53
 592.86649204 1692.80377383 592.86649204 1692.80377383 610.292027343 1704.76700544 c 128,-1,54
 627.717562645 1716.73023705 627.717562645 1716.73023705 634.239039163 1740.75598169 c 0,55,56
 635.018550756 1743.62666872 635.018550756 1743.62666872 635.598833834 1746.39306993 c 128,-1,57
 636.179116912 1749.15947114 636.179116912 1749.15947114 636.552717796 1751.77070292 c 128,-1,58
 636.92631868 1754.3819347 636.92631868 1754.3819347 637.110131996 1756.84517591 c 128,-1,59
 637.293945312 1759.30841713 637.293945312 1759.30841713 637.293945312 1761.6640625 c 0,60,61
 637.293945312 1827.21284431 637.293945312 1827.21284431 515.499164071 1864.66314908 c 2,62,-1
 506.352997261 1867.47919396 l 1,44,-1
EndSplineSet
EndChar

StartChar: uni065A
Encoding: 1626 1626 58
Width: 1295
VWidth: 2553
GlyphClass: 4
Flags: W
AnchorPoint: "Anchor-10" 648 1490.29 mark 0
AnchorPoint: "Anchor-9" 648 1490.29 mark 0
AnchorPoint: "Anchor-1" 645.488 2055.43 basemark 0
AnchorPoint: "Anchor-1" 648 1490.29 mark 0
LayerCount: 2
Fore
SplineSet
561.101121571 1578.80273438 m 1,0,-1
 328.943548807 1966.92480469 l 1,1,-1
 479.041493773 1966.92480469 l 1,2,-1
 647.9998967 1713.48347123 l 1,3,-1
 816.955502828 1966.92480469 l 1,4,-1
 967.055660333 1966.92480469 l 1,5,-1
 734.89491246 1578.80273438 l 1,6,-1
 561.101121571 1578.80273438 l 1,0,-1
EndSplineSet
EndChar

StartChar: afii57392
Encoding: 1632 1632 59
Width: 1056
VWidth: 2593
GlyphClass: 2
Flags: W
LayerCount: 2
Fore
SplineSet
446.86328125 496.818359375 m 0,0,1
 461.16015625 468.974609375 461.16015625 468.974609375 480.360351562 457.157226562 c 128,-1,2
 499.559570312 445.33984375 499.559570312 445.33984375 530.181640625 445.33984375 c 0,3,4
 568.423828125 445.33984375 568.423828125 445.33984375 595.688476562 472.76171875 c 128,-1,5
 623.083007812 500.313476562 623.083007812 500.313476562 623.083007812 539.098632812 c 0,6,7
 623.083007812 545.908203125 623.083007812 545.908203125 622.385742188 552.078125 c 128,-1,8
 621.690429688 558.249023438 621.690429688 558.249023438 620.233398438 564.05078125 c 128,-1,9
 618.77734375 569.852539062 618.77734375 569.852539062 616.5703125 575.19921875 c 128,-1,10
 614.362304688 580.546875 614.362304688 580.546875 611.299804688 585.692382812 c 128,-1,11
 608.237304688 590.836914062 608.237304688 590.836914062 604.370117188 595.71484375 c 128,-1,12
 600.50390625 600.592773438 600.50390625 600.592773438 595.689453125 605.436523438 c 0,13,14
 581.360351562 619.850585938 581.360351562 619.850585938 565.7890625 626.354492188 c 128,-1,15
 550.21875 632.859375 550.21875 632.859375 530.181640625 632.859375 c 0,16,17
 491.939453125 632.859375 491.939453125 632.859375 464.67578125 605.4375 c 128,-1,18
 437.279296875 577.87890625 437.279296875 577.87890625 437.279296875 536.223632812 c 0,19,20
 437.279296875 515.479492188 437.279296875 515.479492188 446.86328125 496.818359375 c 0,0,1
235.1015625 390.94921875 m 0,21,22
 200.337890625 458.654296875 200.337890625 458.654296875 200.337890625 534.272460938 c 0,23,24
 200.337890625 562.193359375 200.337890625 562.193359375 204.212890625 588.69921875 c 128,-1,25
 208.088867188 615.205078125 208.088867188 615.205078125 215.833984375 640.115234375 c 128,-1,26
 223.579101562 665.026367188 223.579101562 665.026367188 235.095703125 688.153320312 c 128,-1,27
 246.612304688 711.279296875 246.612304688 711.279296875 261.993164062 732.59375 c 128,-1,28
 277.374023438 753.908203125 277.374023438 753.908203125 296.422851562 773.069335938 c 0,29,30
 343.861328125 820.783203125 343.861328125 820.783203125 402.478515625 845.26953125 c 128,-1,31
 461.095703125 869.756835938 461.095703125 869.756835938 528 869.756835938 c 0,32,33
 550.278320312 869.756835938 550.278320312 869.756835938 571.750976562 867.008789062 c 128,-1,34
 593.223632812 864.260742188 593.223632812 864.260742188 613.657226562 858.823242188 c 128,-1,35
 634.08984375 853.384765625 634.08984375 853.384765625 653.547851562 845.2578125 c 128,-1,36
 673.005859375 837.130859375 673.005859375 837.130859375 691.276367188 826.401367188 c 128,-1,37
 709.545898438 815.670898438 709.545898438 815.670898438 726.669921875 802.30859375 c 128,-1,38
 743.793945312 788.946289062 743.793945312 788.946289062 759.581054688 773.067382812 c 0,39,40
 807.026367188 725.338867188 807.026367188 725.338867188 831.344726562 666.431640625 c 128,-1,41
 855.662109375 607.5234375 855.662109375 607.5234375 855.662109375 540.294921875 c 0,42,43
 855.662109375 513.438476562 855.662109375 513.438476562 851.747070312 487.778320312 c 128,-1,44
 847.83203125 462.119140625 847.83203125 462.119140625 840.0546875 437.940429688 c 128,-1,45
 832.27734375 413.762695312 832.27734375 413.762695312 820.732421875 391.133789062 c 128,-1,46
 809.186523438 368.504882812 809.186523438 368.504882812 793.857421875 347.54296875 c 128,-1,47
 778.52734375 326.581054688 778.52734375 326.581054688 759.577148438 307.521484375 c 0,48,49
 712.138671875 259.80859375 712.138671875 259.80859375 653.521484375 235.321289062 c 128,-1,50
 594.904296875 210.834960938 594.904296875 210.834960938 528 210.834960938 c 0,51,52
 462.637695312 210.834960938 462.637695312 210.834960938 407.319335938 231.3671875 c 128,-1,53
 352.001953125 251.900390625 352.001953125 251.900390625 308.602539062 292.111328125 c 128,-1,54
 265.203125 332.323242188 265.203125 332.323242188 235.1015625 390.94921875 c 0,21,22
EndSplineSet
EndChar

StartChar: afii57393
Encoding: 1633 1633 60
Width: 712
VWidth: 2593
GlyphClass: 2
Flags: W
LayerCount: 2
Fore
SplineSet
511.890625 3.9091796875 m 1,0,-1
 247.008789062 3.9091796875 l 1,1,-1
 246.869140625 43.7685546875 l 2,2,3
 243.997070312 775.779296875 243.997070312 775.779296875 98.8984375 1229.82421875 c 6,4,-1
 86.216796875 1269.5078125 l 5,5,-1
 341.5390625 1339.79394531 l 5,6,-1
 353.143554688 1303.04492188 l 6,7,8
 432 1052 432 1052 471.905273438 757.708984375 c 0,9,10
 511.423828125 459.806640625 511.423828125 459.806640625 511.849609375 43.9501953125 c 2,11,-1
 511.890625 3.9091796875 l 1,0,-1
EndSplineSet
EndChar

StartChar: afii57394
Encoding: 1634 1634 61
Width: 1098
VWidth: 2593
GlyphClass: 2
Flags: W
LayerCount: 2
Fore
SplineSet
498.8515625 51.9873046875 m 2,0,-1
 498.927734375 3.9091796875 l 1,1,-1
 234.1875 3.9091796875 l 1,2,-1
 234.076171875 51.7705078125 l 2,3,4
 233.001640743 648.089457628 233.001640743 648.089457628 94.98828125 1230.23730469 c 6,5,-1
 86.21484375 1267.24414062 l 5,6,-1
 340.678710938 1341.29589844 l 5,7,-1
 394.072265625 1104.11425781 l 6,8,9
 417 1003 417 1003 470.05078125 957.336914062 c 4,10,11
 524 911 524 911 615.52734375 910.381835938 c 4,12,13
 701 910 701 910 740.497070312 951.745117188 c 4,14,15
 780 994 780 994 783.649414062 1091.64746094 c 4,16,17
 786.992440896 1183.79164764 786.992440896 1183.79164764 784.236328125 1300.74511719 c 6,18,-1
 783.271484375 1341.6875 l 5,19,-1
 1026.86230469 1341.6875 l 5,20,-1
 1027.56640625 1302.40527344 l 6,21,22
 1030 1176 1030 1176 1027.18847656 1092.50292969 c 4,23,24
 1025 1009 1025 1009 1016.28613281 962.430664062 c 4,25,26
 988 808 988 808 885.765625 728.022460938 c 4,27,28
 783 648 783 648 616.465820312 647.407226562 c 4,29,30
 597 647 597 647 577.100585938 649.107421875 c 4,31,32
 558 651 558 651 539.129882812 654.383789062 c 4,33,34
 521 658 521 658 503.190429688 663.127929688 c 4,35,36
 486 668 486 668 469.846679688 675.1953125 c 5,37,38
 498 405 498 405 498.8515625 51.9873046875 c 2,0,-1
EndSplineSet
EndChar

StartChar: afii57395
Encoding: 1635 1635 62
Width: 1375
VWidth: 2593
GlyphClass: 2
Flags: W
LayerCount: 2
Fore
SplineSet
883.4140625 1044.36035156 m 6,0,1
 883.281118248 993.307237542 883.281118248 993.307237542 894.57421875 965.477539062 c 4,2,3
 906 937 906 937 928.063476562 924.904296875 c 132,-1,4
 950 913 950 913 987.748046875 913.254882812 c 4,5,6
 1027 913 1027 913 1045.09375 939.58203125 c 4,7,8
 1063.60540954 965.44863321 1063.60540954 965.44863321 1063.40429688 1038.65625 c 6,9,-1
 1062.57519531 1340.45996094 l 5,10,-1
 1313.88085938 1340.45996094 l 5,11,-1
 1315.0078125 1115.26269531 l 6,12,13
 1316 896 1316 896 1235.92089844 776.571289062 c 132,-1,14
 1156 657 1156 657 994.713867188 656.75 c 4,15,16
 923 657 923 657 865.264648438 679.416015625 c 4,17,18
 808 702 808 702 768.768554688 746.706054688 c 5,19,20
 698 663 698 663 588.91015625 659.930664062 c 4,21,22
 559 659 559 659 530.376953125 663.260742188 c 4,23,24
 502 668 502 668 476.1484375 676.830078125 c 5,25,26
 499.149346593 429.393375309 499.149346593 429.393375309 499.517578125 51.9560546875 c 2,27,-1
 499.564453125 3.9091796875 l 1,28,-1
 234.672851562 3.9091796875 l 1,29,-1
 234.825195312 79.119140625 l 2,30,31
 236.001439229 786.865985205 236.001439229 786.865985205 94.9501953125 1234.44238281 c 6,32,-1
 82.970703125 1272.45507812 l 5,33,-1
 331.88671875 1351.88574219 l 5,34,-1
 402.682617188 1084.95605469 l 6,35,36
 427 993 427 993 465.875976562 953.025390625 c 4,37,38
 504 913 504 913 558.473632812 913.147460938 c 4,39,40
 603 913 603 913 624.720703125 943.565429688 c 4,41,42
 646.275313936 974.393765894 646.275313936 974.393765894 646.405273438 1054.49414062 c 6,43,-1
 646.870117188 1341 l 5,44,-1
 884.186523438 1341 l 5,45,-1
 883.4140625 1044.36035156 l 6,0,1
EndSplineSet
EndChar

StartChar: afii57396
Encoding: 1636 1636 63
Width: 947
VWidth: 2593
GlyphClass: 2
Flags: W
LayerCount: 2
Fore
SplineSet
91.3994140625 345.736328125 m 0,0,1
 126 503 126 503 310.204101562 675.54296875 c 1,2,3
 206.60108224 736.868421218 206.60108224 736.868421218 128.438476562 827.482421875 c 0,4,5
 86 876 86 876 101.323242188 928.37890625 c 4,6,7
 181.854724847 1199.51089016 181.854724847 1199.51089016 586.611328125 1346.82714844 c 6,8,-1
 626.072265625 1361.18945312 l 5,9,-1
 638.500976562 1321.07714844 l 6,10,11
 653.489746402 1273.61570125 653.489746402 1273.61570125 664.741210938 1113.63671875 c 6,12,-1
 666.841796875 1083.76953125 l 5,13,-1
 638.776367188 1073.33789062 l 6,14,15
 480 1014 480 1014 415.7578125 962.838867188 c 4,16,17
 406 955 406 955 392.788085938 944.723632812 c 4,18,19
 380 934 380 934 369.061523438 920.403320312 c 5,20,21
 373 917 373 917 378.758789062 913.01953125 c 4,22,23
 442.114299215 871.579327993 442.114299215 871.579327993 698.920898438 820.802734375 c 2,24,-1
 733.918945312 813.8828125 l 1,25,-1
 731.03125 778.32421875 l 2,26,27
 730.982638018 777.677541572 730.982638018 777.677541572 721.365234375 659.39453125 c 2,28,-1
 719.666015625 638.49609375 l 1,29,-1
 701.512695312 628.004882812 l 2,30,31
 454 485 454 485 368.305664062 387.783203125 c 0,32,33
 365 384 365 384 363 380 c 128,-1,34
 361 376 361 376 359 373.5 c 128,-1,35
 357 371 357 371 359 368.5 c 128,-1,36
 361 366 361 366 375.009765625 362.020507812 c 0,37,38
 540.485143678 310.849977322 540.485143678 310.849977322 794.48046875 333.98828125 c 2,39,-1
 832.67578125 337.467773438 l 1,40,-1
 871.754882812 45.103515625 l 1,41,-1
 829.130859375 42.2373046875 l 2,42,43
 386.325860411 12.157993427 386.325860411 12.157993427 137.346679688 170.66796875 c 0,44,45
 63 218 63 218 91.3994140625 345.736328125 c 0,0,1
EndSplineSet
EndChar

StartChar: afii57397
Encoding: 1637 1637 64
Width: 1258
VWidth: 2593
GlyphClass: 2
Flags: W
LayerCount: 2
Fore
SplineSet
616.90234375 920.498046875 m 5,0,1
 439 764 439 764 374.9296875 574.555664062 c 4,2,3
 354 513 354 513 353.795898438 472.78515625 c 4,4,5
 353 269 353 269 605.520996094 268.468261719 c 0,6,7
 728 268 728 268 787.559570312 293.712890625 c 0,8,9
 938 359 938 359 866.751953125 572.551757812 c 4,10,11
 811 739 811 739 616.90234375 920.498046875 c 5,0,1
350.169921875 1105.07128906 m 5,12,-1
 504.373046875 1327.69140625 l 5,13,-1
 536.87109375 1306.83789062 l 6,14,15
 1182 893 1182 893 1184.625 412.1953125 c 4,16,17
 1186 222 1186 222 991.587890625 92.1220703125 c 0,18,19
 852 -2 852 -2 645.022460938 -1.3291015625 c 0,20,21
 345 -1 345 -1 201.371582031 150.69140625 c 0,22,23
 61 299 61 299 88.8935546875 513.275390625 c 4,24,25
 109 671 109 671 208.520507812 826.798828125 c 4,26,27
 305 977 305 977 405.443359375 1074.36425781 c 5,28,-1
 350.169921875 1105.07128906 l 5,12,-1
EndSplineSet
EndChar

StartChar: afii57398
Encoding: 1638 1638 65
Width: 1290
VWidth: 2593
GlyphClass: 2
Flags: W
LayerCount: 2
Fore
SplineSet
121.435546875 1328.875 m 6,0,1
 336.027229082 1273.9999595 336.027229082 1273.9999595 551.360351562 1273.6796875 c 4,2,3
 767.555844183 1273.99934329 767.555844183 1273.99934329 1017.24121094 1330.02929688 c 6,4,-1
 1065.72070312 1340.90820312 l 5,5,-1
 1065.99902344 1291.22460938 l 6,6,7
 1070.01406455 662.798644942 1070.01406455 662.798644942 1219.91894531 53.46484375 c 2,8,-1
 1232.11035156 3.9091796875 l 1,9,-1
 945.448242188 3.9091796875 l 1,10,-1
 938.583984375 35.38671875 l 2,11,12
 851 438 851 438 807.143554688 1026.49023438 c 5,13,14
 760 1016 760 1016 711.258789062 1008.84667969 c 4,15,16
 662 1002 662 1002 610.440429688 998.352539062 c 4,17,18
 559 995 559 995 503.75 994.829101562 c 4,19,20
 439 995 439 995 372.31640625 1001.50390625 c 4,21,22
 306 1008 306 1008 237.959960938 1021.22070312 c 4,23,24
 173.809686866 1033.28362055 173.809686866 1033.28362055 100.663085938 1053.92382812 c 6,25,-1
 71.5263671875 1062.14550781 l 5,26,-1
 71.5263671875 1341.63769531 l 5,27,-1
 121.435546875 1328.875 l 6,0,1
EndSplineSet
EndChar

StartChar: afii57399
Encoding: 1639 1639 66
Width: 1252
VWidth: 2593
GlyphClass: 2
Flags: W
LayerCount: 2
Fore
SplineSet
496.583984375 37.11328125 m 2,0,1
 403.104152634 579.318630796 403.104152634 579.318630796 65.3828125 1217.12207031 c 6,2,-1
 43.328125 1258.7734375 l 5,3,-1
 313.146484375 1349.28417969 l 5,4,-1
 328.249023438 1316.91113281 l 6,5,6
 525 895 525 895 631.088867188 522.771484375 c 5,7,8
 724.534792209 848.866244431 724.534792209 848.866244431 933.482421875 1316.32324219 c 6,9,-1
 948.546875 1350.02539062 l 5,10,-1
 1208.36035156 1258.0625 l 5,11,-1
 1186.59375 1217.078125 l 6,12,13
 857.239459861 597.450505575 857.239459861 597.450505575 764.423828125 37.369140625 c 2,14,-1
 758.87890625 3.9091796875 l 1,15,-1
 502.30859375 3.9091796875 l 1,16,-1
 496.583984375 37.11328125 l 2,0,1
EndSplineSet
EndChar

StartChar: afii57400
Encoding: 1640 1640 67
Width: 1252
VWidth: 2593
GlyphClass: 2
Flags: W
LayerCount: 2
Fore
SplineSet
502.30859375 1340 m 5,0,-1
 758.87890625 1340 l 5,1,-1
 764.423828125 1306.54003906 l 6,2,3
 856.898167379 747.615486983 856.898167379 747.615486983 1186.59375 126.831054688 c 2,4,-1
 1208.36035156 85.8466796875 l 1,5,-1
 948.546875 -6.1162109375 l 1,6,-1
 933.482421875 27.5859375 l 2,7,8
 727 489 727 489 631.088867188 821.137695312 c 1,9,10
 525.187146404 449.14475081 525.187146404 449.14475081 328.249023438 26.998046875 c 2,11,-1
 313.146484375 -5.375 l 1,12,-1
 43.328125 85.1357421875 l 1,13,-1
 65.3828125 126.787109375 l 2,14,15
 403.259229853 765.490033802 403.259229853 765.490033802 496.583984375 1306.79589844 c 6,16,-1
 502.30859375 1340 l 5,0,-1
EndSplineSet
EndChar

StartChar: afii57401
Encoding: 1641 1641 68
Width: 1203
VWidth: 2593
GlyphClass: 2
Flags: W
LayerCount: 2
Fore
SplineSet
713.631835938 544.994140625 m 1,0,1
 618 507 618 507 501.427734375 507.34375 c 0,2,3
 289 507 289 507 189.5 623.5 c 128,-1,4
 90 740 90 740 90 914 c 128,-1,5
 90 1088 90 1088 192.547851562 1199.20800781 c 0,6,7
 320 1339 320 1339 535 1339 c 0,8,9
 802.634095927 1339 802.634095927 1339 895.989257812 1121.04785156 c 0,10,11
 925.809663147 1051.44426384 925.809663147 1051.44426384 934.801757812 940.81640625 c 2,12,-1
 954.923828125 693.258789062 l 2,13,14
 956 676 956 676 979.733398438 314.708984375 c 1,15,16
 1002 48 1002 48 1002.17285156 46.4560546875 c 2,17,-1
 1004.88769531 3.9091796875 l 1,18,-1
 744.443359375 3.9091796875 l 1,19,-1
 742.624023438 42 l 1,20,21
 728 293 728 293 713.631835938 544.994140625 c 1,0,1
394.43359375 774.180664062 m 0,22,23
 445 736 445 736 551.489257812 748.046875 c 0,24,25
 631 757 631 757 687.88671875 812.401367188 c 1,26,27
 682 1018 682 1018 633.576171875 1062.87988281 c 4,28,29
 600 1094 600 1094 540.5 1094 c 0,30,31
 497 1094 497 1094 464 1086.09751389 c 0,32,33
 403 1071 403 1071 368.799697835 1015 c 0,34,35
 339 965 339 965 339.5 901.5 c 0,36,37
 340 815 340 815 394.43359375 774.180664062 c 0,22,23
EndSplineSet
EndChar

StartChar: afii57381
Encoding: 1642 1642 69
Width: 1291
VWidth: 2593
GlyphClass: 2
Flags: W
LayerCount: 2
Fore
SplineSet
755.737304688 218.348632812 m 0,0,1
 755.219726562 297.611328125 755.219726562 297.611328125 813.62109375 353.755859375 c 0,2,3
 871.114257812 409.72265625 871.114257812 409.72265625 950.860351562 409.545898438 c 0,4,5
 989.8125 409.631835938 989.8125 409.631835938 1024.9140625 395.345703125 c 128,-1,6
 1060.01660156 381.05859375 1060.01660156 381.05859375 1088.09960938 353.755859375 c 0,7,8
 1146.42578125 297.612304688 1146.42578125 297.612304688 1145.984375 218.348632812 c 0,9,10
 1146.20019531 180.021484375 1146.20019531 180.021484375 1131.34179688 145.349609375 c 128,-1,11
 1116.48339844 110.677734375 1116.48339844 110.677734375 1088.25976562 83.0947265625 c 0,12,13
 1030.53222656 26.5673828125 1030.53222656 26.5673828125 950.860351562 27.1484375 c 0,14,15
 871.114257812 26.5673828125 871.114257812 26.5673828125 813.4609375 83.0947265625 c 0,16,17
 755.219726562 139.942382812 755.219726562 139.942382812 755.737304688 218.348632812 c 0,0,1
145.40625 1244.66210938 m 0,18,19
 144.888671875 1323.92480469 144.888671875 1323.92480469 203.290039062 1380.06933594 c 0,20,21
 260.783203125 1436.03613281 260.783203125 1436.03613281 340.529296875 1435.859375 c 0,22,23
 420.202148438 1436.03613281 420.202148438 1436.03613281 477.768554688 1380.06933594 c 0,24,25
 536.094726562 1323.92578125 536.094726562 1323.92578125 535.653320312 1244.66210938 c 0,26,27
 535.869140625 1206.33496094 535.869140625 1206.33496094 521.010742188 1171.66308594 c 128,-1,28
 506.15234375 1136.99121094 506.15234375 1136.99121094 477.928710938 1109.40820312 c 0,29,30
 420.201171875 1052.88085938 420.201171875 1052.88085938 340.529296875 1053.46191406 c 0,31,32
 260.783203125 1052.88085938 260.783203125 1052.88085938 203.129882812 1109.40820312 c 0,33,34
 193.745117188 1118.56835938 193.745117188 1118.56835938 185.791015625 1128.56542969 c 128,-1,35
 177.836914062 1138.56347656 177.836914062 1138.56347656 171.397460938 1149.25976562 c 128,-1,36
 164.958007812 1159.95703125 164.958007812 1159.95703125 160.057617188 1171.37890625 c 128,-1,37
 155.157226562 1182.80078125 155.157226562 1182.80078125 151.874023438 1194.73632812 c 128,-1,38
 148.590820312 1206.671875 148.590820312 1206.671875 146.956054688 1219.22460938 c 128,-1,39
 145.321289062 1231.77734375 145.321289062 1231.77734375 145.40625 1244.66210938 c 0,18,19
873.991210938 1453.59667969 m 1,40,-1
 1100.76464844 1339.16992188 l 1,41,-1
 373.6953125 -4.97265625 l 1,42,-1
 149.616210938 113.5078125 l 1,43,-1
 873.991210938 1453.59667969 l 1,40,-1
EndSplineSet
EndChar

StartChar: uni066B
Encoding: 1643 1643 70
Width: 667
VWidth: 2593
GlyphClass: 2
Flags: W
LayerCount: 2
Fore
SplineSet
0.7509765625 -189.515625 m 1,0,-1
 436.03125 668.345703125 l 1,1,-1
 631.059570312 575.581054688 l 1,2,-1
 200.056640625 -284.180664062 l 1,3,-1
 0.7509765625 -189.515625 l 1,0,-1
EndSplineSet
EndChar

StartChar: uni066C
Encoding: 1644 1644 71
Width: 592
VWidth: 2304
GlyphClass: 2
Flags: W
LayerCount: 2
Fore
SplineSet
299 262 m 0,0,1
 431 259 431 259 441.162109375 146.842773438 c 0,2,3
 450 48 450 48 420 -53 c 0,4,5
 364 -243 364 -243 170 -331 c 1,6,-1
 120 -285 l 1,7,8
 310 -179 310 -179 328.817382812 -0.3359375 c 1,9,10
 298 -1 298 -1 287.9140625 -0.0322265625 c 0,11,12
 153 7 153 7 155.07421875 124 c 4,13,14
 157 265 157 265 299 262 c 0,0,1
EndSplineSet
EndChar

StartChar: afii63167
Encoding: 1645 1645 72
Width: 1411
VWidth: 2553
GlyphClass: 2
Flags: W
LayerCount: 2
Fore
SplineSet
192.791992188 910.817382812 m 1,0,-1
 583.680664062 910.817382812 l 1,1,-1
 705.771484375 1282.53027344 l 1,2,-1
 827.856445312 910.817382812 l 1,3,-1
 1218.74707031 910.817382812 l 1,4,-1
 902.943359375 679.956054688 l 1,5,-1
 1023.75 308.823242188 l 1,6,-1
 705.771484375 538.59765625 l 1,7,-1
 387.788085938 308.823242188 l 1,8,-1
 508.595703125 679.956054688 l 1,9,-1
 192.791992188 910.817382812 l 1,0,-1
EndSplineSet
EndChar

StartChar: uni066E
Encoding: 1646 1646 73
Width: 1971
VWidth: 2593
GlyphClass: 2
Flags: W
AnchorPoint: "Anchor-10" 889.751 1269.53 basechar 0
AnchorPoint: "Anchor-7" 889.751 -174.707 basechar 0
LayerCount: 2
Fore
SplineSet
1483.10742188 268 m 2,0,1
 1563.68652344 268 1563.68652344 268 1602.18457031 319.260742188 c 128,-1,2
 1640.68261719 370.521484375 1640.68261719 370.521484375 1640.68261719 491.366210938 c 2,3,-1
 1640.68261719 733.75 l 1,4,-1
 1899.44042969 733.75 l 1,5,-1
 1899.44042969 487.823242188 l 2,6,7
 1899.32519531 370.564453125 1899.32519531 370.564453125 1872.30273438 279.74609375 c 128,-1,8
 1845.28125 188.926757812 1845.28125 188.926757812 1792.46386719 126.7265625 c 128,-1,9
 1739.64648438 64.52734375 1739.64648438 64.52734375 1659.97949219 32.263671875 c 128,-1,10
 1580.3125 0 1580.3125 0 1476.4609375 0 c 2,11,-1
 492.935546875 0 l 2,12,13
 285.912109375 0 285.912109375 0 178.53125 124.337890625 c 128,-1,14
 71.150390625 248.676757812 71.150390625 248.676757812 71.1494140625 481.977539062 c 2,15,-1
 71.1484375 733.75 l 1,16,-1
 329.904296875 733.75 l 1,17,-1
 329.904296875 492.555664062 l 2,18,19
 329.948242188 371.076171875 329.948242188 371.076171875 368.481445312 319.538085938 c 128,-1,20
 407.015625 268 407.015625 268 487.470703125 268 c 2,21,-1
 1483.10742188 268 l 2,0,1
EndSplineSet
Substitution2: "'init' Initial Forms in Arabic lookup 13 subtable" uni066E.init
Substitution2: "'medi' Medial Forms in Arabic lookup 11 subtable" uni066E.medi
Substitution2: "'fina' Terminal Forms in Arabic lookup 9 subtable" uni066E.fina
EndChar

StartChar: uni066F
Encoding: 1647 1647 74
Width: 1443
VWidth: 2593
GlyphClass: 2
Flags: W
AnchorPoint: "Anchor-10" 343.676 1201.52 basechar 0
AnchorPoint: "Anchor-7" 415.271 -673.467 basechar 0
LayerCount: 2
Fore
SplineSet
1383.15039062 25.5546875 m 2,0,1
 1383.26074219 -226.86328125 1383.26074219 -226.86328125 1223.09082031 -355.931640625 c 128,-1,2
 1062.92089844 -485 1062.92089844 -485 759.385742188 -485 c 2,3,-1
 701.184570312 -485 l 2,4,5
 383.236328125 -485 383.236328125 -485 217.2265625 -332.922851562 c 128,-1,6
 51.216796875 -180.845703125 51.216796875 -180.845703125 51.12109375 113.90625 c 2,7,-1
 50.9873046875 525.849609375 l 1,8,-1
 309.877929688 526.826171875 l 1,9,-1
 309.877929688 115.10546875 l 2,10,11
 309.93359375 -54.033203125 309.93359375 -54.033203125 404.40625 -134.872070312 c 128,-1,12
 498.879882812 -215.711914062 498.879882812 -215.711914062 703.356445312 -215.711914062 c 2,13,-1
 730.428710938 -215.711914062 l 1,14,-1
 756.885742188 -215.134765625 l 2,15,16
 953.23046875 -210.7890625 953.23046875 -210.7890625 1041.22558594 -149.885742188 c 128,-1,17
 1129.22070312 -88.982421875 1129.22070312 -88.982421875 1128.56445312 28.7119140625 c 2,18,-1
 1128.42871094 52.98046875 l 1,19,-1
 987.34375 52.98046875 l 2,20,21
 816.395507812 52.9912109375 816.395507812 52.9912109375 727.520507812 157.094726562 c 128,-1,22
 638.645507812 261.198242188 638.645507812 261.198242188 639.383789062 453.780273438 c 0,23,24
 640.25 648.51171875 640.25 648.51171875 736.682617188 753.088867188 c 128,-1,25
 833.115234375 857.665039062 833.115234375 857.665039062 1015.7578125 858.463867188 c 0,26,27
 1195.18847656 858.7578125 1195.18847656 858.7578125 1289.03417969 752.108398438 c 128,-1,28
 1382.87988281 645.458007812 1382.87988281 645.458007812 1382.96679688 446.844726562 c 2,29,-1
 1383.15039062 25.5546875 l 2,0,1
1012.0390625 603.248046875 m 0,30,31
 940.153320312 603.145507812 940.153320312 603.145507812 909.124023438 569.559570312 c 128,-1,32
 878.094726562 535.973632812 878.094726562 535.973632812 878.166992188 455.098632812 c 0,33,34
 878.094726562 379.000976562 878.094726562 379.000976562 903.389648438 348.948242188 c 128,-1,35
 928.684570312 318.89453125 928.684570312 318.89453125 986.322265625 318.874023438 c 2,36,-1
 1137.90625 318.819335938 l 1,37,-1
 1137.56640625 440.762695312 l 2,38,39
 1137.39648438 501.682617188 1137.39648438 501.682617188 1123.35546875 537.700195312 c 128,-1,40
 1109.31445312 573.717773438 1109.31445312 573.717773438 1082.53320312 588.583007812 c 128,-1,41
 1055.75195312 603.447265625 1055.75195312 603.447265625 1012.0390625 603.248046875 c 0,30,31
EndSplineSet
Substitution2: "'init' Initial Forms in Arabic lookup 13 subtable" uni066F.init
Substitution2: "'medi' Medial Forms in Arabic lookup 11 subtable" uni066F.medi
Substitution2: "'fina' Terminal Forms in Arabic lookup 9 subtable" uni066F.fina
EndChar

StartChar: uni0670
Encoding: 1648 1648 75
Width: 11
VWidth: 2553
GlyphClass: 4
Flags: W
AnchorPoint: "Anchor-10" 648 1490.29 mark 0
AnchorPoint: "Anchor-9" 648 1490.29 mark 0
AnchorPoint: "Anchor-1" 648 2086.6 basemark 0
AnchorPoint: "Anchor-1" 648 1490.29 mark 0
LayerCount: 2
Fore
SplineSet
589.571289062 1542.38378906 m 1,0,-1
 589.571289062 2034.51757812 l 1,1,-1
 706.427734375 2034.51757812 l 1,2,-1
 706.427734375 1542.38378906 l 1,3,-1
 589.571289062 1542.38378906 l 1,0,-1
EndSplineSet
EndChar

StartChar: uni0674
Encoding: 1652 1652 76
Width: 759
VWidth: 2553
GlyphClass: 2
Flags: W
LayerCount: 2
Fore
SplineSet
146.505859375 1788.46233987 m 1,0,-1
 233.480294663 1808.5323103 l 1,1,2
 174.283558377 1853.50546087 174.283558377 1853.50546087 157.894126208 1915.22012901 c 0,3,4
 153.436184912 1931.65077893 153.436184912 1931.65077893 151.22251545 1949.82706106 c 128,-1,5
 149.008845988 1968.00334318 149.008845988 1968.00334318 149.018554893 1987.76607481 c 0,6,7
 148.998554093 2108.74459728 148.998554093 2108.74459728 257.366647787 2170.08922836 c 0,8,9
 287.936044562 2187.44478812 287.936044562 2187.44478812 323.013475378 2195.94685674 c 128,-1,10
 358.090906195 2204.44892535 358.090906195 2204.44892535 396.96610473 2204.17070567 c 128,-1,11
 435.841303265 2203.892486 435.841303265 2203.892486 478.928446196 2195.0454093 c 0,12,13
 519.162372335 2186.22446411 519.162372335 2186.22446411 566.242288882 2161.68701465 c 2,14,-1
 574.309570312 2157.4824509 l 1,15,-1
 574.309570312 2007.54864781 l 1,16,-1
 551.853188259 2020.41360082 l 2,17,18
 516.54404798 2040.64172257 516.54404798 2040.64172257 479.35167263 2049.48760805 c 128,-1,19
 442.159297279 2058.33349352 442.159297279 2058.33349352 402.858329082 2055.91337386 c 0,20,21
 364.946462566 2052.98594764 364.946462566 2052.98594764 340.266527626 2043.35508019 c 128,-1,22
 315.586592685 2033.72421274 315.586592685 2033.72421274 303.911493799 2018.82425646 c 128,-1,23
 292.236394912 2003.92430018 292.236394912 2003.92430018 290.382888611 1982.74944426 c 0,24,25
 282.891221656 1899.2603626 282.891221656 1899.2603626 399.931139313 1865.79048136 c 0,26,27
 433.466810949 1856.44180219 433.466810949 1856.44180219 582.534833688 1888.43648158 c 2,28,-1
 600.682617188 1892.33156588 l 1,29,-1
 600.682617188 1740.89163815 l 1,30,-1
 146.505859375 1638.92840073 l 1,31,-1
 146.505859375 1788.46233987 l 1,0,-1
EndSplineSet
EndChar

StartChar: uni06A1
Encoding: 1697 1697 80
Width: 1971
VWidth: 2593
GlyphClass: 2
Flags: W
AnchorPoint: "Anchor-10" 514.245 1247.49 basechar 0
AnchorPoint: "Anchor-7" 531.19 -145.02 basechar 0
LayerCount: 2
Fore
SplineSet
1896.39257812 403.8828125 m 2,0,1
 1896.47753906 345.88671875 1896.47753906 345.88671875 1884.15722656 295.810546875 c 128,-1,2
 1871.83691406 245.735351562 1871.83691406 245.735351562 1847.8125 204.719726562 c 128,-1,3
 1823.78808594 163.704101562 1823.78808594 163.704101562 1788.28222656 130.64453125 c 128,-1,4
 1752.77636719 97.5859375 1752.77636719 97.5859375 1706.62597656 73.2080078125 c 128,-1,5
 1660.47558594 48.8291015625 1660.47558594 48.8291015625 1603.7578125 32.4716796875 c 128,-1,6
 1547.04101562 16.1142578125 1547.04101562 16.1142578125 1480.73828125 8.056640625 c 128,-1,7
 1414.43554688 0 1414.43554688 0 1338.48925781 0 c 2,8,-1
 492.358398438 0 l 2,9,10
 285.330078125 0 285.330078125 0 177.943359375 124.313476562 c 128,-1,11
 70.556640625 248.627929688 70.556640625 248.627929688 70.5556640625 481.885742188 c 2,12,-1
 70.5546875 733.66015625 l 1,13,-1
 329.311523438 733.66015625 l 1,14,-1
 329.311523438 492.421875 l 2,15,16
 329.168945312 370.991210938 329.168945312 370.991210938 367.68359375 319.495117188 c 128,-1,17
 406.198242188 268 406.198242188 268 486.877929688 268 c 2,18,-1
 1335.04296875 268 l 2,19,20
 1481.53222656 268 1481.53222656 268 1551.0234375 296.18359375 c 128,-1,21
 1620.51464844 324.368164062 1620.51464844 324.368164062 1627.81054688 368.393554688 c 1,22,23
 1577.97851562 366.1015625 1577.97851562 366.1015625 1528.83789062 366.33984375 c 0,24,25
 1475.72558594 366.513671875 1475.72558594 366.513671875 1429.91601562 372.76171875 c 128,-1,26
 1384.10644531 379.009765625 1384.10644531 379.009765625 1344.11621094 391.783203125 c 128,-1,27
 1304.12597656 404.556640625 1304.12597656 404.556640625 1271.18457031 424.807617188 c 128,-1,28
 1238.24316406 445.059570312 1238.24316406 445.059570312 1213.23535156 472.522460938 c 0,29,30
 1139.00390625 554.588867188 1139.00390625 554.588867188 1138.96191406 728.30859375 c 0,31,32
 1138.98242188 914.838867188 1138.98242188 914.838867188 1235.27441406 1014.50878906 c 128,-1,33
 1331.56640625 1114.17773438 1331.56640625 1114.17773438 1513.3359375 1114.38964844 c 0,34,35
 1697.22070312 1114.1796875 1697.22070312 1114.1796875 1796.41796875 1024.79003906 c 128,-1,36
 1895.61523438 935.399414062 1895.61523438 935.399414062 1895.86328125 765.715820312 c 2,37,-1
 1896.39257812 403.8828125 l 2,0,1
1640 748.452148438 m 2,38,39
 1639.92773438 808.370117188 1639.92773438 808.370117188 1612.1328125 833.80078125 c 128,-1,40
 1584.33886719 859.232421875 1584.33886719 859.232421875 1514.95996094 859.401367188 c 0,41,42
 1440.5625 859.23046875 1440.5625 859.23046875 1410.23144531 831.432617188 c 128,-1,43
 1379.90039062 803.634765625 1379.90039062 803.634765625 1379.83300781 738.9921875 c 0,44,45
 1379.89648438 683.405273438 1379.89648438 683.405273438 1411.64941406 658.203125 c 128,-1,46
 1443.40234375 633 1443.40234375 633 1524 633 c 0,47,48
 1588.75878906 633 1588.75878906 633 1640.13378906 637.481445312 c 1,49,-1
 1640 748.452148438 l 2,38,39
EndSplineSet
Substitution2: "'init' Initial Forms in Arabic lookup 13 subtable" uni06A1.init
Substitution2: "'medi' Medial Forms in Arabic lookup 11 subtable" uni06A1.medi
Substitution2: "'fina' Terminal Forms in Arabic lookup 9 subtable" uni06A1.fina
EndChar

StartChar: uni06A9
Encoding: 1705 1705 81
Width: 1875
VWidth: 2593
GlyphClass: 2
Flags: W
AnchorPoint: "Anchor-10" 479.222 1445.6 basechar 0
AnchorPoint: "Anchor-7" 422.269 -275.044 basechar 0
LayerCount: 2
Fore
SplineSet
329.814453125 491.571289062 m 2,0,1
 329.814453125 370.6171875 329.814453125 370.6171875 368.31640625 319.30859375 c 128,-1,2
 406.819335938 268 406.819335938 268 487.379882812 268 c 2,3,-1
 1310.24316406 268 l 2,4,5
 1403.43066406 268 1403.43066406 268 1440.37695312 292.040039062 c 128,-1,6
 1477.32226562 316.080078125 1477.32226562 316.080078125 1478.03710938 363.537109375 c 0,7,8
 1478.18261719 371.782226562 1478.18261719 371.782226562 1469.44335938 390.557617188 c 128,-1,9
 1460.70410156 409.333007812 1460.70410156 409.333007812 1437.38769531 443.275390625 c 128,-1,10
 1414.07128906 477.21875 1414.07128906 477.21875 1380.89941406 515.038085938 c 2,11,-1
 1110.12207031 823.754882812 l 2,12,13
 1081.81835938 855.994140625 1081.81835938 855.994140625 1061.28515625 880.737304688 c 128,-1,14
 1040.75195312 905.479492188 1040.75195312 905.479492188 1026.82910156 924.21484375 c 0,15,16
 994.15625 969.157226562 994.15625 969.157226562 998.280273438 1033.33203125 c 0,17,18
 1003.92773438 1108.95214844 1003.92773438 1108.95214844 1040.90039062 1161.83984375 c 128,-1,19
 1077.87304688 1214.72753906 1077.87304688 1214.72753906 1143.38671875 1237.65722656 c 2,20,-1
 1843.82421875 1482.81542969 l 1,21,-1
 1843.82421875 1213.47851562 l 1,22,-1
 1284.71972656 1021.63378906 l 1,23,-1
 1577.68164062 691.026367188 l 2,24,25
 1739.70898438 508.249023438 1739.70898438 508.249023438 1719.14648438 322.352539062 c 0,26,27
 1698.64453125 152.983398438 1698.64453125 152.983398438 1561.07226562 60.564453125 c 0,28,29
 1514.66113281 29.6669921875 1514.66113281 29.6669921875 1454.02050781 14.837890625 c 128,-1,30
 1393.38085938 0.0087890625 1393.38085938 0.0087890625 1318.75488281 0 c 2,31,-1
 494.57421875 -0.0966796875 l 2,32,33
 286.748046875 -0.0439453125 286.748046875 -0.0439453125 178.903320312 124.291015625 c 128,-1,34
 71.05859375 248.625976562 71.05859375 248.625976562 71.0576171875 481.977539062 c 2,35,-1
 71.056640625 735.930664062 l 1,36,-1
 329.814453125 734.479492188 l 1,37,-1
 329.814453125 491.571289062 l 2,0,1
EndSplineSet
Substitution2: "'init' Initial Forms in Arabic lookup 13 subtable" uniFB90
Substitution2: "'medi' Medial Forms in Arabic lookup 11 subtable" uniFB91
Substitution2: "'fina' Terminal Forms in Arabic lookup 9 subtable" uniFB8F
EndChar

StartChar: afii57514
Encoding: 1722 1722 83
Width: 1462
VWidth: 2593
GlyphClass: 2
Flags: W
AnchorPoint: "Anchor-10" 607.158 965.159 basechar 0
AnchorPoint: "Anchor-7" 711.132 -666.307 basechar 0
LayerCount: 2
Fore
SplineSet
70.986328125 525.9921875 m 1,0,-1
 329.877929688 526.041015625 l 1,1,-1
 329.877929688 144.603515625 l 2,2,3
 329.93359375 -23.2099609375 329.93359375 -23.2099609375 422.107421875 -103.186523438 c 128,-1,4
 514.28125 -183.163085938 514.28125 -183.163085938 713.842773438 -183.163085938 c 2,5,-1
 734.98046875 -183.163085938 l 1,6,-1
 756.185546875 -182.587890625 l 2,7,8
 950.392578125 -177.12890625 950.392578125 -177.12890625 1039.66503906 -100.90234375 c 128,-1,9
 1128.93847656 -24.67578125 1128.93847656 -24.67578125 1128.84277344 128.671875 c 2,10,-1
 1128.46972656 724.797851562 l 1,11,-1
 1389.94726562 724.931640625 l 1,12,-1
 1389.94726562 129.314453125 l 2,13,14
 1389.96582031 -56.29296875 1389.96582031 -56.29296875 1317.61035156 -184.533203125 c 128,-1,15
 1245.25585938 -312.7734375 1245.25585938 -312.7734375 1104.80566406 -379.732421875 c 128,-1,16
 964.35546875 -446.69140625 964.35546875 -446.69140625 759.577148438 -451.861328125 c 2,17,-1
 735.864257812 -452.459960938 l 1,18,-1
 711.641601562 -452.459960938 l 2,19,20
 277.1484375 -452.126953125 277.1484375 -452.126953125 135.081054688 -166.7265625 c 0,21,22
 71.392578125 -37.607421875 71.392578125 -37.607421875 71.12109375 143.403320312 c 2,23,-1
 70.986328125 525.9921875 l 1,0,-1
EndSplineSet
Substitution2: "'init' Initial Forms in Arabic lookup 13 subtable" uni06BA.init
Substitution2: "'medi' Medial Forms in Arabic lookup 11 subtable" uni06BA.medi
Substitution2: "'fina' Terminal Forms in Arabic lookup 9 subtable" uniFB9F
EndChar

StartChar: uni06F4
Encoding: 1780 1780 90
Width: 1136
VWidth: 2593
GlyphClass: 2
Flags: W
LayerCount: 2
Fore
SplineSet
965.233398438 1072.47070312 m 2,0,1
 939.914810238 1078.74541592 939.914810238 1078.74541592 909.90234375 1085.11132812 c 0,2,3
 884 1091 884 1091 860.854492188 1094.13867188 c 0,4,5
 838 1098 838 1098 818.916992188 1099.54199219 c 128,-1,6
 800 1101 800 1101 783.94921875 1101.49121094 c 0,7,8
 746 1101 746 1101 715.116210938 1094.47753906 c 0,9,10
 684 1088 684 1088 660.413085938 1074.90722656 c 128,-1,11
 637 1062 637 1062 618.278320312 1043.31542969 c 0,12,13
 557 982 557 982 557 878 c 0,14,15
 557 831 557 831 600.889648438 804.709960938 c 0,16,17
 645 778 645 778 753.608398438 775.716796875 c 0,18,19
 784 775 784 775 815.571289062 776.497070312 c 128,-1,20
 847 778 847 778 879.701171875 781.458007812 c 0,21,22
 912 785 912 785 946.094726562 790.643554688 c 128,-1,23
 980.267962982 796.390409125 980.267962982 796.390409125 1014.64257812 804.071289062 c 2,24,-1
 1062.59960938 814.787109375 l 1,25,-1
 1066.34667969 572.919921875 l 1,26,-1
 1035.24023438 565.412109375 l 2,27,28
 672 478 672 478 468.72265625 596.087890625 c 1,29,30
 491.235814732 377.712621907 491.235814732 377.712621907 493.034179688 44.1240234375 c 2,31,-1
 493.250976562 3.9091796875 l 1,32,-1
 234.19921875 3.9091796875 l 1,33,-1
 234.0546875 43.7646484375 l 2,34,35
 230.996760571 800.801970995 230.996760571 800.801970995 94.91796875 1229.18554688 c 2,36,-1
 82.4384765625 1268.47167969 l 1,37,-1
 333.115234375 1339.88574219 l 1,38,-1
 343.666015625 1300.69335938 l 2,39,40
 364.201910175 1223.74993259 364.201910175 1223.74993259 365.7578125 1212.30957031 c 0,41,42
 380 1132 380 1132 394.900390625 1052.57324219 c 1,43,44
 418.782016114 1156.71860379 418.782016114 1156.71860379 467.644925268 1224 c 4,45,46
 549.316008626 1336.45635214 549.316008626 1336.45635214 748.069335938 1340.98925781 c 0,47,48
 815 1343 815 1343 875.430664062 1331.453125 c 0,49,50
 937.840979009 1319.65188717 937.840979009 1319.65188717 990.939453125 1296.33105469 c 2,51,-1
 1014.85546875 1285.82714844 l 1,52,-1
 1014.85546875 1060.17285156 l 1,53,-1
 965.233398438 1072.47070312 l 2,0,1
EndSplineSet
EndChar

StartChar: uni06F5
Encoding: 1781 1781 91
Width: 1245
VWidth: 2593
GlyphClass: 2
Flags: W
LayerCount: 2
Fore
SplineSet
404.8359375 271.653320312 m 0,0,1
 513.148906244 270.999100593 513.148906244 270.999100593 520.610351562 462.265625 c 2,2,-1
 522.024414062 498.513671875 l 1,3,-1
 729.655273438 498.513671875 l 1,4,-1
 731.278320312 460.208007812 l 2,5,6
 739 269 739 269 852.826171875 267.560546875 c 0,7,8
 942 266 942 266 941.333984375 386.630859375 c 0,9,10
 940.607499234 530.997476691 940.607499234 530.997476691 621.078125 902.336914062 c 1,11,12
 307.561121574 529.966396998 307.561121574 529.966396998 311.30078125 385.8828125 c 0,13,14
 314 272 314 272 404.8359375 271.653320312 c 0,0,1
1184.93261719 325.642578125 m 4,15,16
 1185 0 1185 0 866.9296875 -0.01171875 c 0,17,18
 696 0 696 0 619.469726562 116.004882812 c 1,19,20
 542 -0 542 -0 383.5 -0 c 0,21,22
 60 -0 60 -0 60.068359375 348.860351562 c 0,23,24
 60 615 60 615 454.8671875 1081.359375 c 1,25,26
 454 1082 454 1082 428.7890625 1108.95117188 c 2,27,-1
 403.772460938 1135.24707031 l 1,28,-1
 581.094726562 1340.18554688 l 1,29,30
 643 1280 643 1280 703.796875 1211.16503906 c 0,31,32
 1185 666 1185 666 1184.93261719 325.642578125 c 4,15,16
EndSplineSet
EndChar

StartChar: uni06F6
Encoding: 1782 1782 92
Width: 990
VWidth: 2593
GlyphClass: 2
Flags: W
LayerCount: 2
Fore
SplineSet
325.874023438 931.9609375 m 0,0,1
 326 866 326 866 363.413085938 829.5546875 c 0,2,3
 400 793 400 793 486.50390625 781.30078125 c 0,4,5
 560 771 560 771 606.891601562 804.163085938 c 0,6,7
 687 861 687 861 766.865234375 917.34765625 c 2,8,-1
 802.896484375 942.892578125 l 1,9,-1
 934.537109375 711.7890625 l 1,10,11
 826 650 826 650 654 455 c 4,12,13
 515 296 515 296 366.758789062 -13.626953125 c 1,14,-1
 142.259765625 95.70703125 l 1,15,16
 296 375 296 375 434.203125 549.87890625 c 1,17,18
 176 588 176 588 106.366210938 781.244140625 c 0,19,20
 83 847 83 847 82.8466796875 926.3828125 c 0,21,22
 83 1100 83 1100 191.350585938 1219.56640625 c 0,23,24
 298 1337 298 1337 484.375 1343.96679688 c 0,25,26
 620.273039842 1349.01013283 620.273039842 1349.01013283 717.448242188 1289.3828125 c 2,27,-1
 736.668945312 1277.58886719 l 1,28,-1
 735.115234375 1031.19921875 l 1,29,-1
 677.147460938 1061.18945312 l 2,30,31
 677.575430789 1062.27780326 677.575430789 1062.27780326 645.19140625 1076.09277344 c 0,32,33
 629 1083 629 1083 613.580078125 1087.58789062 c 128,-1,34
 598 1092 598 1092 582.184570312 1095.73925781 c 0,35,36
 566 1099 566 1099 550.940429688 1100.62402344 c 0,37,38
 535 1102 535 1102 519.719726562 1102.30761719 c 0,39,40
 505 1102 505 1102 491.385742188 1101.37988281 c 0,41,42
 478 1100 478 1100 465.80078125 1098.015625 c 0,43,44
 454 1096 454 1096 443.041015625 1092.40234375 c 128,-1,45
 432 1089 432 1089 422.609375 1084.61132812 c 0,46,47
 389 1069 389 1069 367.24609375 1048.02636719 c 0,48,49
 346 1027 346 1027 335.778320312 998.416992188 c 0,50,51
 326 970 326 970 325.874023438 931.9609375 c 0,0,1
EndSplineSet
EndChar

StartChar: uniFB8F
Encoding: 64399 64399 107
Width: 2038
VWidth: 2593
GlyphClass: 2
Flags: W
AnchorPoint: "Anchor-7" 463.692 -250.794 basechar 0
AnchorPoint: "Anchor-10" 495.382 1412.92 basechar 0
LayerCount: 2
Fore
SplineSet
2043.73828125 0 m 2,0,-1
 2030.12792969 0 l 2,1,2
 1932.29199219 0 1932.29199219 0 1844.18457031 46.603515625 c 128,-1,3
 1756.07617188 93.20703125 1756.07617188 93.20703125 1680.06933594 182.83203125 c 1,4,5
 1579.21191406 0.54296875 1579.21191406 0.54296875 1322.19140625 0 c 2,6,-1
 493.7578125 -0.0966796875 l 2,7,8
 209.838867188 -0.025390625 209.838867188 -0.025390625 114.16796875 228.653320312 c 0,9,10
 70.40234375 334.432617188 70.40234375 334.432617188 70.2275390625 481.977539062 c 2,11,-1
 70.2265625 736.66015625 l 1,12,-1
 328.984375 736.66015625 l 1,13,-1
 328.984375 492.54296875 l 2,14,15
 328.991210938 371.696289062 328.991210938 371.696289062 367.486328125 320.442382812 c 128,-1,16
 405.981445312 269.188476562 405.981445312 269.188476562 486.543945312 269.200195312 c 2,17,-1
 1313.70800781 269.32421875 l 2,18,19
 1377.98242188 269.223632812 1377.98242188 269.223632812 1415.96191406 281.21484375 c 128,-1,20
 1453.94238281 293.206054688 1453.94238281 293.206054688 1467.65234375 312.861328125 c 128,-1,21
 1481.36230469 332.517578125 1481.36230469 332.517578125 1481.46972656 363.135742188 c 0,22,23
 1481.49414062 365.7578125 1481.49414062 365.7578125 1480.5390625 369.701171875 c 128,-1,24
 1479.58496094 373.645507812 1479.58496094 373.645507812 1477.45898438 379.165039062 c 128,-1,25
 1475.33300781 384.685546875 1475.33300781 384.685546875 1472.19726562 391.28515625 c 128,-1,26
 1469.06152344 397.883789062 1469.06152344 397.883789062 1464.45410156 406.088867188 c 128,-1,27
 1459.84765625 414.293945312 1459.84765625 414.293945312 1454.21777344 423.31640625 c 128,-1,28
 1448.58886719 432.33984375 1448.58886719 432.33984375 1441.18847656 442.998046875 c 128,-1,29
 1433.7890625 453.65625 1433.7890625 453.65625 1425.35351562 464.87109375 c 128,-1,30
 1416.91796875 476.084960938 1416.91796875 476.084960938 1406.41210938 488.96484375 c 128,-1,31
 1395.90625 501.844726562 1395.90625 501.844726562 1384.33496094 515.038085938 c 2,32,-1
 1113.54394531 823.770507812 l 2,33,34
 1100.39746094 838.760742188 1100.39746094 838.760742188 1088.859375 852.23828125 c 128,-1,35
 1077.32128906 865.715820312 1077.32128906 865.715820312 1067.12011719 878.005859375 c 128,-1,36
 1056.91894531 890.294921875 1056.91894531 890.294921875 1048.12988281 901.327148438 c 128,-1,37
 1039.34082031 912.359375 1039.34082031 912.359375 1031.90332031 922.208984375 c 0,38,39
 997.01171875 969.072265625 997.01171875 969.072265625 1001.79296875 1033.91113281 c 0,40,41
 1007.72167969 1109.79003906 1007.72167969 1109.79003906 1044.65332031 1162.84179688 c 128,-1,42
 1081.5859375 1215.89355469 1081.5859375 1215.89355469 1146.87597656 1238.64746094 c 2,43,-1
 1847.26074219 1482.72851562 l 1,44,-1
 1847.26074219 1213.63671875 l 1,45,-1
 1289.36035156 1018.92871094 l 1,46,-1
 1838.77929688 396.513671875 l 2,47,48
 1868.50195312 362.793945312 1868.50195312 362.793945312 1896.45996094 337.44140625 c 128,-1,49
 1924.41699219 312.087890625 1924.41699219 312.087890625 1947.46875 297.249023438 c 128,-1,50
 1970.51953125 282.411132812 1970.51953125 282.411132812 1989.35839844 275.205078125 c 128,-1,51
 2008.19726562 268 2008.19726562 268 2023.13378906 268 c 2,52,-1
 2043.73828125 268 l 2,53,54
 2097.74316406 268 2097.74316406 268 2128.24023438 231.797851562 c 128,-1,55
 2158.73828125 195.596679688 2158.73828125 195.596679688 2158.73828125 139 c 2,56,-1
 2158.73828125 128.059570312 l 2,57,58
 2158.90527344 71.8583984375 2158.90527344 71.8583984375 2128.36523438 35.9296875 c 128,-1,59
 2097.82421875 0 2097.82421875 0 2043.73828125 0 c 2,0,-1
EndSplineSet
EndChar

StartChar: uniFB9F
Encoding: 64415 64415 115
Width: 1630
VWidth: 2593
GlyphClass: 2
Flags: W
AnchorPoint: "Anchor-10" 342.402 839.573 basechar 0
AnchorPoint: "Anchor-7" 302.474 -662.176 basechar 0
LayerCount: 2
Fore
SplineSet
1634.9765625 0 m 2,0,-1
 1557.31738281 0 l 2,1,2
 1450.24121094 0 1450.24121094 0 1378.5234375 42.1748046875 c 1,3,4
 1365.8828125 -195.506835938 1365.8828125 -195.506835938 1207.51757812 -319.495117188 c 128,-1,5
 1049.15332031 -443.483398438 1049.15332031 -443.483398438 759.766601562 -450.33984375 c 2,6,-1
 734.395507812 -450.940429688 l 1,7,-1
 703.10546875 -450.940429688 l 2,8,9
 275.036132812 -450.983398438 275.036132812 -450.983398438 134.600585938 -166.899414062 c 0,10,11
 71.390625 -37.861328125 71.390625 -37.861328125 71.12109375 143.262695312 c 2,12,-1
 70.986328125 525.9921875 l 1,13,-1
 329.877929688 526.041015625 l 1,14,-1
 329.877929688 144.462890625 l 2,15,16
 329.93359375 -22.75390625 329.93359375 -22.75390625 420.057617188 -102.202148438 c 128,-1,17
 510.181640625 -181.650390625 510.181640625 -181.650390625 705.271484375 -181.643554688 c 2,18,-1
 733.500976562 -181.642578125 l 1,19,-1
 756.40234375 -181.065429688 l 2,20,21
 950.341796875 -176.293945312 950.341796875 -176.293945312 1038.29003906 -109.635742188 c 128,-1,22
 1126.23925781 -42.9775390625 1126.23925781 -42.9775390625 1126.16210938 88.5341796875 c 2,23,-1
 1125.79101562 724.798828125 l 1,24,-1
 1392.26757812 724.930664062 l 1,25,-1
 1392.26757812 459.271484375 l 2,26,27
 1392.20800781 407.795898438 1392.20800781 407.795898438 1402.63183594 371.806640625 c 128,-1,28
 1413.0546875 335.81640625 1413.0546875 335.81640625 1435.67480469 312.563476562 c 128,-1,29
 1458.29492188 289.309570312 1458.29492188 289.309570312 1492.75683594 278.654296875 c 128,-1,30
 1527.21777344 268 1527.21777344 268 1576.40722656 268 c 2,31,-1
 1634.9765625 268 l 2,32,33
 1688.98144531 268 1688.98144531 268 1719.47851562 231.797851562 c 128,-1,34
 1749.9765625 195.596679688 1749.9765625 195.596679688 1749.9765625 139 c 2,35,-1
 1749.9765625 128.010742188 l 2,36,37
 1749.98632812 91.3486328125 1749.98632812 91.3486328125 1736.90625 62.666015625 c 128,-1,38
 1723.82519531 33.982421875 1723.82519531 33.982421875 1697.43261719 16.9912109375 c 128,-1,39
 1671.04003906 0 1671.04003906 0 1634.9765625 0 c 2,0,-1
EndSplineSet
EndChar

StartChar: uniFBE8
Encoding: 64488 64488 118
Width: 698
VWidth: 2593
GlyphClass: 2
Flags: W
AnchorPoint: "Anchor-10" 379.938 1260.35 basechar 0
AnchorPoint: "Anchor-7" 417.497 -102.32 basechar 0
LayerCount: 2
Fore
SplineSet
-5.0283203125 0 m 2,0,1
 -58.8603515625 0 -58.8603515625 0 -89.4345703125 35.88671875 c 128,-1,2
 -120.008789062 71.7744140625 -120.008789062 71.7744140625 -120.0234375 128 c 2,3,-1
 -120.0234375 139 l 2,4,5
 -120.0234375 175.876953125 -120.0234375 175.876953125 -107.030273438 204.748046875 c 128,-1,6
 -94.0380859375 233.619140625 -94.0380859375 233.619140625 -67.638671875 250.809570312 c 128,-1,7
 -41.240234375 268 -41.240234375 268 -5.04296875 268 c 2,8,-1
 227.557617188 268.23046875 l 2,9,10
 301.124023438 268.303710938 301.124023438 268.303710938 334.44140625 308.330078125 c 128,-1,11
 367.758789062 348.357421875 367.758789062 348.357421875 367.56640625 444.583007812 c 2,12,-1
 367.56640625 770.689453125 l 1,13,-1
 626.322265625 770.689453125 l 1,14,-1
 626.322265625 450.48828125 l 2,15,16
 626.322265625 233.282226562 626.322265625 233.282226562 528.709960938 116.625976562 c 128,-1,17
 431.098632812 -0.0302734375 431.098632812 -0.0302734375 242.677734375 -0.06640625 c 2,18,-1
 -5.0283203125 0 l 2,0,1
EndSplineSet
EndChar

StartChar: uniFBE9
Encoding: 64489 64489 119
Width: 877
VWidth: 2593
GlyphClass: 2
Flags: W
AnchorPoint: "Anchor-10" 369.939 1166.45 basechar 0
AnchorPoint: "Anchor-7" 348.812 -107.016 basechar 0
LayerCount: 2
Fore
SplineSet
882.2265625 0 m 2,0,-1
 861.33203125 0 l 2,1,2
 750.374023438 0 750.374023438 0 661.317382812 32.1923828125 c 128,-1,3
 572.26171875 64.384765625 572.26171875 64.384765625 508.70703125 128.643554688 c 1,4,5
 383.026367188 0 383.026367188 0 156.1484375 0 c 2,6,-1
 -5.0234375 0 l 2,7,8
 -40.96484375 0 -40.96484375 0 -67.34765625 16.9580078125 c 128,-1,9
 -93.7314453125 33.916015625 -93.7314453125 33.916015625 -106.876953125 62.619140625 c 128,-1,10
 -120.0234375 91.3232421875 -120.0234375 91.3232421875 -120.0234375 128 c 2,11,-1
 -120.0234375 139.010742188 l 2,12,13
 -120.008789062 195.603515625 -120.008789062 195.603515625 -89.59765625 231.801757812 c 128,-1,14
 -59.1865234375 268 -59.1865234375 268 -5.0234375 268 c 2,15,-1
 161.162109375 268 l 2,16,17
 275.020507812 268 275.020507812 268 323.845703125 308.671875 c 128,-1,18
 372.671875 349.344726562 372.671875 349.344726562 372.671875 437.358398438 c 2,19,-1
 372.671875 731.372070312 l 1,20,-1
 637.15625 731.372070312 l 1,21,-1
 637.15625 437.350585938 l 2,22,23
 637.090820312 350.012695312 637.090820312 350.012695312 688.602539062 309.005859375 c 128,-1,24
 740.11328125 268 740.11328125 268 860.405273438 268 c 2,25,-1
 882.2265625 268 l 2,26,27
 936.231445312 268 936.231445312 268 966.728515625 231.797851562 c 128,-1,28
 997.2265625 195.596679688 997.2265625 195.596679688 997.2265625 139 c 2,29,-1
 997.2265625 127.948242188 l 2,30,31
 997.131835938 91.283203125 997.131835938 91.283203125 984.0390625 62.6259765625 c 128,-1,32
 970.9453125 33.9677734375 970.9453125 33.9677734375 944.588867188 16.9833984375 c 128,-1,33
 918.232421875 0 918.232421875 0 882.2265625 0 c 2,0,-1
EndSplineSet
EndChar

StartChar: uniFE73
Encoding: 65139 65139 127
Width: 683
VWidth: 2593
GlyphClass: 2
Flags: W
AnchorPoint: "Anchor-10" 252.404 1530.29 basechar 0
AnchorPoint: "Anchor-7" 252.404 -102.32 basechar 0
LayerCount: 2
Fore
SplineSet
382.298828125 440.2109375 m 2,0,1
 382.298828125 377.083984375 382.298828125 377.083984375 436.491210938 322.892578125 c 128,-1,2
 490.682617188 268.700195312 490.682617188 268.700195312 609.067382812 268.700195312 c 2,3,-1
 717.61328125 268.700195312 l 1,4,-1
 717.61328125 8.9091796875 l 1,5,-1
 539.997070312 8.9091796875 l 2,6,7
 355.719726562 8.9091796875 355.719726562 8.9091796875 239.114257812 125.513671875 c 128,-1,8
 122.509765625 242.119140625 122.509765625 242.119140625 122.509765625 425.141601562 c 2,9,-1
 122.509765625 493.498046875 l 1,10,-1
 382.298828125 493.498046875 l 1,11,-1
 382.298828125 440.2109375 l 2,0,1
EndSplineSet
EndChar

StartChar: uniFE8E
Encoding: 65166 65166 153
Width: 551
VWidth: 2593
GlyphClass: 2
Flags: W
AnchorPoint: "Anchor-10" 250.923 1503.04 basechar 0
AnchorPoint: "Anchor-7" 265.009 -252.554 basechar 0
LayerCount: 2
Fore
SplineSet
556.901367188 0 m 2,0,-1
 531.231445312 0 l 2,1,2
 329 0 329 0 223.264648438 117.94921875 c 0,3,4
 117.69140625 236.346077566 117.69140625 236.346077566 117.69140625 457.251953125 c 2,5,-1
 117.69140625 1367.18847656 l 5,6,-1
 376 1367.18847656 l 5,7,-1
 376 466.139648438 l 2,8,9
 376 359 376 359 413.84375 313.477539062 c 0,10,11
 452 268 452 268 534.014648438 268 c 2,12,-1
 556.901367188 268 l 2,13,14
 611 268 611 268 641.403320312 231.797851562 c 0,15,16
 671.901367188 196.115399541 671.901367188 196.115399541 671.901367188 139 c 2,17,-1
 671.901367188 128.022460938 l 2,18,19
 672 72 672 72 641.444335938 35.90625 c 128,-1,20
 611 0 611 0 556.901367188 0 c 2,0,-1
EndSplineSet
EndChar

StartChar: uniFEA2
Encoding: 65186 65186 173
Width: 1389
VWidth: 2593
GlyphClass: 2
Flags: W
AnchorPoint: "Anchor-10" 697.761 1501.94 basechar 0
AnchorPoint: "Anchor-7" 501.334 -853.653 basechar 0
LayerCount: 2
Fore
SplineSet
1393.9765625 0 m 2,0,-1
 1341.75683594 0 l 2,1,2
 1167.96191406 0 1167.96191406 0 1059.91992188 64.794921875 c 128,-1,3
 951.87890625 129.58984375 951.87890625 129.58984375 921.580078125 259.206054688 c 1,4,5
 615.96875 206.901367188 615.96875 206.901367188 471.109375 101.706054688 c 128,-1,6
 326.250976562 -3.4892578125 326.250976562 -3.4892578125 325.6875 -157.938476562 c 0,7,8
 324.93359375 -325.559570312 324.93359375 -325.559570312 447.08203125 -408.947265625 c 128,-1,9
 569.231445312 -492.3359375 569.231445312 -492.3359375 834.451171875 -492.172851562 c 2,10,-1
 1288.33007812 -491.89453125 l 1,11,-1
 1288.33007812 -755.55859375 l 1,12,-1
 822.388671875 -754.58203125 l 2,13,14
 418.592773438 -753.9765625 418.592773438 -753.9765625 244.374023438 -587.7109375 c 0,15,16
 66.7705078125 -417.326171875 66.7705078125 -417.326171875 70.1123046875 -175.166015625 c 0,17,18
 73.0771484375 105.540039062 73.0771484375 105.540039062 284.814453125 279.286132812 c 128,-1,19
 496.55078125 453.033203125 496.55078125 453.033203125 902.203125 519.7265625 c 1,20,-1
 737.169921875 596.186523438 l 2,21,22
 718.072265625 605.051757812 718.072265625 605.051757812 699.631835938 611.6953125 c 128,-1,23
 681.192382812 618.338867188 681.192382812 618.338867188 663.916015625 622.629882812 c 128,-1,24
 646.640625 626.921875 646.640625 626.921875 630.467773438 629.100585938 c 128,-1,25
 614.295898438 631.280273438 614.295898438 631.280273438 598.961914062 631.418945312 c 0,26,27
 533.333984375 630.154296875 533.333984375 630.154296875 483.141601562 592.567382812 c 2,28,-1
 297.6875 452.288085938 l 1,29,-1
 128.193359375 642.698242188 l 1,30,-1
 305.234375 792.055664062 l 2,31,32
 439.375976562 904.974609375 439.375976562 904.974609375 590.848632812 905.236328125 c 0,33,34
 626.602539062 905.149414062 626.602539062 905.149414062 663.005859375 898.758789062 c 128,-1,35
 699.409179688 892.368164062 699.409179688 892.368164062 735.698242188 880.005859375 c 128,-1,36
 771.987304688 867.64453125 771.987304688 867.64453125 808.854492188 849.268554688 c 2,37,-1
 1129.87402344 689.258789062 l 2,38,39
 1284.91894531 611.765625 1284.91894531 611.765625 1285.26367188 506.504882812 c 2,40,-1
 1285.16992188 327.66015625 l 1,41,-1
 1248.80761719 324.357421875 l 2,42,43
 1199.50585938 319.87890625 1199.50585938 319.87890625 1158.27734375 313.622070312 c 1,44,45
 1167.85449219 301.388671875 1167.85449219 301.388671875 1189.1328125 291.564453125 c 128,-1,46
 1210.41210938 281.740234375 1210.41210938 281.740234375 1250.6015625 274.870117188 c 128,-1,47
 1290.79101562 268 1290.79101562 268 1343.16308594 268 c 2,48,-1
 1393.9765625 268 l 2,49,50
 1447.98144531 268 1447.98144531 268 1478.47851562 231.797851562 c 128,-1,51
 1508.9765625 195.596679688 1508.9765625 195.596679688 1508.9765625 139 c 2,52,-1
 1508.9765625 128.010742188 l 2,53,54
 1508.99121094 71.791015625 1508.99121094 71.791015625 1478.48144531 35.8955078125 c 128,-1,55
 1447.97167969 0 1447.97167969 0 1393.9765625 0 c 2,0,-1
EndSplineSet
EndChar

StartChar: uniFEA3
Encoding: 65187 65187 174
Width: 1293
VWidth: 2593
GlyphClass: 2
Flags: W
AnchorPoint: "Anchor-10" 490.912 1279.39 basechar 0
AnchorPoint: "Anchor-7" 425.185 -253.728 basechar 0
LayerCount: 2
Fore
SplineSet
-5.0234375 0 m 2,0,1
 -58.85546875 0 -58.85546875 0 -89.431640625 35.8876953125 c 128,-1,2
 -120.008789062 71.775390625 -120.008789062 71.775390625 -120.0234375 128 c 2,3,-1
 -120.0234375 139.010742188 l 2,4,5
 -120.008789062 195.603515625 -120.008789062 195.603515625 -89.59765625 231.801757812 c 128,-1,6
 -59.1865234375 268 -59.1865234375 268 -5.0234375 268 c 2,7,-1
 320 268 l 2,8,9
 423.21875 268 423.21875 268 514.58984375 288.88671875 c 128,-1,10
 605.959960938 309.7734375 605.959960938 309.7734375 686.77734375 351.608398438 c 2,11,-1
 856.943359375 437.692382812 l 2,12,13
 880.860351562 449.791992188 880.860351562 449.791992188 900.114257812 459.764648438 c 1,14,-1
 885.40234375 467.5859375 l 1,15,-1
 644.5546875 592.506835938 l 2,16,17
 618.877929688 605.876953125 618.877929688 605.876953125 595.045898438 614.505859375 c 128,-1,18
 571.213867188 623.135742188 571.213867188 623.135742188 549.041992188 627.041992188 c 128,-1,19
 526.869140625 630.94921875 526.869140625 630.94921875 506.25 630.4375 c 128,-1,20
 485.629882812 629.926757812 485.629882812 629.926757812 466.06640625 624.880859375 c 128,-1,21
 446.502929688 619.833984375 446.502929688 619.833984375 428.221679688 610.702148438 c 128,-1,22
 409.939453125 601.569335938 409.939453125 601.569335938 392.130859375 588.098632812 c 2,23,-1
 206.676757812 447.819335938 l 1,24,-1
 37.1826171875 638.229492188 l 1,25,-1
 214.225585938 787.588867188 l 2,26,27
 330.657226562 885.693359375 330.657226562 885.693359375 458.797851562 900.1796875 c 128,-1,28
 586.9375 914.665039062 586.9375 914.665039062 718.866210938 844.271484375 c 2,29,-1
 1062.87207031 660.267578125 l 2,30,31
 1078.96289062 651.658203125 1078.96289062 651.658203125 1093.16210938 643.0234375 c 128,-1,32
 1107.36230469 634.388671875 1107.36230469 634.388671875 1120.45898438 625.200195312 c 128,-1,33
 1133.55664062 616.01171875 1133.55664062 616.01171875 1144.86328125 606.482421875 c 128,-1,34
 1156.17089844 596.954101562 1156.17089844 596.954101562 1166.0078125 586.908203125 c 128,-1,35
 1175.84570312 576.862304688 1175.84570312 576.862304688 1184.02539062 566.13671875 c 128,-1,36
 1192.20410156 555.41015625 1192.20410156 555.41015625 1198.578125 544.181640625 c 0,37,38
 1287.35742188 387.78125 1287.35742188 387.78125 996.604492188 224.133789062 c 2,39,-1
 834.581054688 133.12109375 l 2,40,41
 597.459960938 0 597.459960938 0 322 0 c 2,42,-1
 -5.0234375 0 l 2,0,1
EndSplineSet
EndChar

StartChar: uniFEA4
Encoding: 65188 65188 175
Width: 1319
VWidth: 2593
GlyphClass: 2
Flags: W
AnchorPoint: "Anchor-10" 454.527 1259.29 basechar 0
AnchorPoint: "Anchor-7" 494.433 -251.487 basechar 0
LayerCount: 2
Fore
SplineSet
1323.9765625 0 m 2,0,-1
 1236.07324219 0 l 2,1,2
 1027.99902344 0 1027.99902344 0 907.530273438 172.828125 c 1,3,-1
 833.270507812 131.948242188 l 2,4,5
 713.522460938 66.1123046875 713.522460938 66.1123046875 585.461914062 33.056640625 c 128,-1,6
 457.401367188 0 457.401367188 0 322 0 c 2,7,-1
 -5.0234375 0 l 2,8,9
 -40.96484375 0 -40.96484375 0 -67.34765625 16.9580078125 c 128,-1,10
 -93.7314453125 33.916015625 -93.7314453125 33.916015625 -106.876953125 62.619140625 c 128,-1,11
 -120.0234375 91.3232421875 -120.0234375 91.3232421875 -120.0234375 128 c 2,12,-1
 -120.0234375 139.010742188 l 2,13,14
 -120.008789062 195.603515625 -120.008789062 195.603515625 -89.59765625 231.801757812 c 128,-1,15
 -59.1865234375 268 -59.1865234375 268 -5.0234375 268 c 2,16,-1
 320 268 l 2,17,18
 524.359375 268 524.359375 268 685.77734375 350.608398438 c 2,19,-1
 855.625976562 437.530273438 l 1,20,-1
 898.749023438 460.063476562 l 1,21,-1
 644.37890625 593.598632812 l 2,22,23
 579.116210938 627.994140625 579.116210938 627.994140625 507.9765625 627.951171875 c 0,24,25
 497.041015625 627.958007812 497.041015625 627.958007812 486.654296875 626.9140625 c 128,-1,26
 476.266601562 625.869140625 476.266601562 625.869140625 466.279296875 623.744140625 c 128,-1,27
 456.291015625 621.619140625 456.291015625 621.619140625 446.743164062 618.416992188 c 128,-1,28
 437.1953125 615.21484375 437.1953125 615.21484375 427.944335938 610.88671875 c 128,-1,29
 418.693359375 606.55859375 418.693359375 606.55859375 409.774414062 601.127929688 c 128,-1,30
 400.85546875 595.698242188 400.85546875 595.698242188 392.130859375 589.098632812 c 2,31,-1
 206.676757812 448.819335938 l 1,32,-1
 37.1826171875 639.229492188 l 1,33,-1
 214.190429688 788.559570312 l 2,34,35
 348.385742188 902.024414062 348.385742188 902.024414062 499.813476562 901.767578125 c 0,36,37
 613.6484375 902.021484375 613.6484375 902.021484375 718.98828125 845.206054688 c 2,38,-1
 1062.015625 660.19140625 l 2,39,40
 1215.91992188 576.874023438 1215.91992188 576.874023438 1216.25292969 477.986328125 c 0,41,42
 1216.10839844 431.49609375 1216.10839844 431.49609375 1187.40625 387.6171875 c 128,-1,43
 1158.70507812 343.739257812 1158.70507812 343.739257812 1106.51171875 300.76953125 c 1,44,45
 1158.68457031 268 1158.68457031 268 1233.06835938 268 c 2,46,-1
 1323.9765625 268 l 2,47,48
 1377.98144531 268 1377.98144531 268 1408.47851562 231.797851562 c 128,-1,49
 1438.9765625 195.596679688 1438.9765625 195.596679688 1438.9765625 139 c 2,50,-1
 1438.9765625 128.010742188 l 2,51,52
 1438.99121094 71.791015625 1438.99121094 71.791015625 1408.48144531 35.8955078125 c 128,-1,53
 1377.97167969 0 1377.97167969 0 1323.9765625 0 c 2,0,-1
EndSplineSet
EndChar

StartChar: uniFEAA
Encoding: 65194 65194 181
Width: 1214
VWidth: 2593
GlyphClass: 2
Flags: W
AnchorPoint: "Anchor-10" 423.389 1356.77 basechar 0
AnchorPoint: "Anchor-7" 354.739 -246.099 basechar 0
LayerCount: 2
Fore
SplineSet
1218.9765625 0 m 2,0,-1
 1203.35644531 0 l 2,1,2
 1023.74414062 0 1023.74414062 0 887.018554688 142.065429688 c 1,3,4
 835.060546875 68.28125 835.060546875 68.28125 736.024414062 34.140625 c 128,-1,5
 636.989257812 0 636.989257812 0 492.64453125 0 c 2,6,-1
 71.8994140625 0 l 1,7,-1
 71.8994140625 268 l 1,8,-1
 479.596679688 268 l 2,9,10
 498.359375 268 498.359375 268 515.642578125 268.634765625 c 0,11,12
 699.184570312 275.37890625 699.184570312 275.37890625 696.537109375 345.548828125 c 0,13,14
 694.52734375 403.169921875 694.52734375 403.169921875 603.848632812 508.044921875 c 2,15,-1
 306.254882812 852.225585938 l 1,16,-1
 487.025390625 1050.15820312 l 1,17,-1
 1053.75195312 367.579101562 l 2,18,19
 1096.85546875 315.854492188 1096.85546875 315.854492188 1136.22558594 291.927734375 c 128,-1,20
 1175.59472656 268 1175.59472656 268 1210.41015625 268 c 2,21,-1
 1218.9765625 268 l 2,22,23
 1272.98144531 268 1272.98144531 268 1303.47851562 231.797851562 c 128,-1,24
 1333.9765625 195.596679688 1333.9765625 195.596679688 1333.9765625 139 c 2,25,-1
 1333.9765625 128.010742188 l 2,26,27
 1333.99121094 71.791015625 1333.99121094 71.791015625 1303.48144531 35.8955078125 c 128,-1,28
 1272.97167969 0 1272.97167969 0 1218.9765625 0 c 2,0,-1
EndSplineSet
EndChar

StartChar: uniFEAE
Encoding: 65198 65198 185
Width: 903
VWidth: 2593
GlyphClass: 2
Flags: W
AnchorPoint: "Anchor-10" 410.643 988.634 basechar 0
AnchorPoint: "Anchor-7" 294.358 -717.397 basechar 0
LayerCount: 2
Fore
SplineSet
908.022460938 0 m 2,0,-1
 891.923828125 0 l 2,1,2
 797.140625 0 797.140625 0 727.383789062 37.26953125 c 1,3,-1
 727.383789062 22.666015625 l 2,4,5
 727.178710938 -230.936523438 727.178710938 -230.936523438 577.916015625 -361.745117188 c 128,-1,6
 428.653320312 -492.553710938 428.653320312 -492.553710938 145.333984375 -492.412109375 c 2,7,-1
 1.896484375 -492.340820312 l 1,8,-1
 1.9013671875 -224.16796875 l 1,9,-1
 140.572265625 -224.265625 l 2,10,11
 309.692382812 -224.12890625 309.692382812 -224.12890625 385.638671875 -163.974609375 c 128,-1,12
 461.584960938 -103.8203125 461.584960938 -103.8203125 461.584960938 21.4990234375 c 2,13,-1
 461.584960938 688.3984375 l 1,14,-1
 726.209960938 689.913085938 l 1,15,-1
 726.209960938 385.928710938 l 2,16,17
 727.860351562 345.2109375 727.860351562 345.2109375 743.5703125 320.018554688 c 128,-1,18
 759.28125 294.827148438 759.28125 294.827148438 795.573242188 281.4140625 c 128,-1,19
 831.865234375 268 831.865234375 268 891.923828125 268 c 2,20,-1
 908.022460938 268 l 2,21,22
 962.02734375 268 962.02734375 268 992.524414062 231.797851562 c 128,-1,23
 1023.02246094 195.596679688 1023.02246094 195.596679688 1023.02246094 139 c 2,24,-1
 1023.02246094 127.990234375 l 2,25,26
 1023.0078125 71.7802734375 1023.0078125 71.7802734375 992.502929688 35.8896484375 c 128,-1,27
 961.998046875 0 961.998046875 0 908.022460938 0 c 2,0,-1
EndSplineSet
PairPos2: "'kern' Horizontal Kerning lookup 15-1" uniFEFB dx=-100 dy=0 dh=-100 dv=0 dx=0 dy=0 dh=0 dv=0
PairPos2: "'kern' Horizontal Kerning lookup 15-1" uniFEDF dx=-100 dy=0 dh=-100 dv=0 dx=0 dy=0 dh=0 dv=0
PairPos2: "'kern' Horizontal Kerning lookup 15-1" uni062F dx=-100 dy=0 dh=-100 dv=0 dx=0 dy=0 dh=0 dv=0
PairPos2: "'kern' Horizontal Kerning lookup 15-2" uniFB90 dx=-142 dy=0 dh=-142 dv=0 dx=0 dy=0 dh=0 dv=0
PairPos2: "'kern' Horizontal Kerning lookup 15-2" uniFB8E dx=-142 dy=0 dh=-142 dv=0 dx=0 dy=0 dh=0 dv=0
PairPos2: "'kern' Horizontal Kerning lookup 15-2" uni06A9 dx=-142 dy=0 dh=-142 dv=0 dx=0 dy=0 dh=0 dv=0
PairPos2: "'kern' Horizontal Kerning lookup 15-2" uniFEEB dx=-100 dy=0 dh=-100 dv=0 dx=0 dy=0 dh=0 dv=0
PairPos2: "'kern' Horizontal Kerning lookup 15-2" uni0647 dx=-100 dy=0 dh=-100 dv=0 dx=0 dy=0 dh=0 dv=0
PairPos2: "'kern' Horizontal Kerning lookup 15-2" uniFEE7 dx=-100 dy=0 dh=-100 dv=0 dx=0 dy=0 dh=0 dv=0
PairPos2: "'kern' Horizontal Kerning lookup 15-2" uniFEE3 dx=-100 dy=0 dh=-100 dv=0 dx=0 dy=0 dh=0 dv=0
PairPos2: "'kern' Horizontal Kerning lookup 15-2" uni0645 dx=-100 dy=0 dh=-100 dv=0 dx=0 dy=0 dh=0 dv=0
PairPos2: "'kern' Horizontal Kerning lookup 15-2" uniFEDB dx=-142 dy=0 dh=-142 dv=0 dx=0 dy=0 dh=0 dv=0
PairPos2: "'kern' Horizontal Kerning lookup 15-2" uni0643 dx=-100 dy=0 dh=-100 dv=0 dx=0 dy=0 dh=0 dv=0
PairPos2: "'kern' Horizontal Kerning lookup 15-2" uniFED7 dx=-100 dy=0 dh=-100 dv=0 dx=0 dy=0 dh=0 dv=0
PairPos2: "'kern' Horizontal Kerning lookup 15-2" uniFED3 dx=-100 dy=0 dh=-100 dv=0 dx=0 dy=0 dh=0 dv=0
PairPos2: "'kern' Horizontal Kerning lookup 15-2" uni0641 dx=-100 dy=0 dh=-100 dv=0 dx=0 dy=0 dh=0 dv=0
PairPos2: "'kern' Horizontal Kerning lookup 15-2" uniFECF dx=-100 dy=0 dh=-100 dv=0 dx=0 dy=0 dh=0 dv=0
PairPos2: "'kern' Horizontal Kerning lookup 15-2" uniFECB dx=-100 dy=0 dh=-100 dv=0 dx=0 dy=0 dh=0 dv=0
PairPos2: "'kern' Horizontal Kerning lookup 15-2" uniFEC7 dx=-100 dy=0 dh=-100 dv=0 dx=0 dy=0 dh=0 dv=0
PairPos2: "'kern' Horizontal Kerning lookup 15-2" uni0638 dx=-100 dy=0 dh=-100 dv=0 dx=0 dy=0 dh=0 dv=0
PairPos2: "'kern' Horizontal Kerning lookup 15-2" uniFEC3 dx=-100 dy=0 dh=-100 dv=0 dx=0 dy=0 dh=0 dv=0
PairPos2: "'kern' Horizontal Kerning lookup 15-2" uni0637 dx=-100 dy=0 dh=-100 dv=0 dx=0 dy=0 dh=0 dv=0
PairPos2: "'kern' Horizontal Kerning lookup 15-2" uniFEBF dx=-100 dy=0 dh=-100 dv=0 dx=0 dy=0 dh=0 dv=0
PairPos2: "'kern' Horizontal Kerning lookup 15-2" uni0636 dx=-100 dy=0 dh=-100 dv=0 dx=0 dy=0 dh=0 dv=0
PairPos2: "'kern' Horizontal Kerning lookup 15-2" uniFEBB dx=-100 dy=0 dh=-100 dv=0 dx=0 dy=0 dh=0 dv=0
PairPos2: "'kern' Horizontal Kerning lookup 15-2" uni0635 dx=-100 dy=0 dh=-100 dv=0 dx=0 dy=0 dh=0 dv=0
PairPos2: "'kern' Horizontal Kerning lookup 15-2" uniFEB7 dx=-100 dy=0 dh=-100 dv=0 dx=0 dy=0 dh=0 dv=0
PairPos2: "'kern' Horizontal Kerning lookup 15-2" uni0634 dx=-100 dy=0 dh=-100 dv=0 dx=0 dy=0 dh=0 dv=0
PairPos2: "'kern' Horizontal Kerning lookup 15-2" uniFEB3 dx=-100 dy=0 dh=-100 dv=0 dx=0 dy=0 dh=0 dv=0
PairPos2: "'kern' Horizontal Kerning lookup 15-2" uni0633 dx=-100 dy=0 dh=-100 dv=0 dx=0 dy=0 dh=0 dv=0
PairPos2: "'kern' Horizontal Kerning lookup 15-2" uniFEA7 dx=-100 dy=0 dh=-100 dv=0 dx=0 dy=0 dh=0 dv=0
PairPos2: "'kern' Horizontal Kerning lookup 15-2" uniFEA3 dx=-100 dy=0 dh=-100 dv=0 dx=0 dy=0 dh=0 dv=0
PairPos2: "'kern' Horizontal Kerning lookup 15-2" uniFE9F dx=-100 dy=0 dh=-100 dv=0 dx=0 dy=0 dh=0 dv=0
PairPos2: "'kern' Horizontal Kerning lookup 15-2" uniFE9B dx=-100 dy=0 dh=-100 dv=0 dx=0 dy=0 dh=0 dv=0
PairPos2: "'kern' Horizontal Kerning lookup 15-2" uni062B dx=-100 dy=0 dh=-100 dv=0 dx=0 dy=0 dh=0 dv=0
PairPos2: "'kern' Horizontal Kerning lookup 15-2" uniFE97 dx=-100 dy=0 dh=-100 dv=0 dx=0 dy=0 dh=0 dv=0
PairPos2: "'kern' Horizontal Kerning lookup 15-2" uni062A dx=-100 dy=0 dh=-100 dv=0 dx=0 dy=0 dh=0 dv=0
PairPos2: "'kern' Horizontal Kerning lookup 15-2" uni0629 dx=-100 dy=0 dh=-100 dv=0 dx=0 dy=0 dh=0 dv=0
PairPos2: "'kern' Horizontal Kerning lookup 15-2" uniFE91 dx=-47 dy=0 dh=-47 dv=0 dx=0 dy=0 dh=0 dv=0
PairPos2: "'kern' Horizontal Kerning lookup 15-2" uni0628 dx=-100 dy=0 dh=-100 dv=0 dx=0 dy=0 dh=0 dv=0
PairPos2: "'kern' Horizontal Kerning lookup 15-2" uni0627 dx=-100 dy=0 dh=-100 dv=0 dx=0 dy=0 dh=0 dv=0
PairPos2: "'kern' Horizontal Kerning lookup 15-2" uni0622 dx=-100 dy=0 dh=-100 dv=0 dx=0 dy=0 dh=0 dv=0
PairPos2: "'kern' Horizontal Kerning lookup 15-2" uni0621 dx=-100 dy=0 dh=-100 dv=0 dx=0 dy=0 dh=0 dv=0
PairPos2: "'kern' Horizontal Kerning lookup 15-2" uniFB94 dx=-142 dy=0 dh=-142 dv=0 dx=0 dy=0 dh=0 dv=0
PairPos2: "'kern' Horizontal Kerning lookup 15-2" uniFB92 dx=-142 dy=0 dh=-142 dv=0 dx=0 dy=0 dh=0 dv=0
PairPos2: "'kern' Horizontal Kerning lookup 15-2" afii57509 dx=-142 dy=0 dh=-142 dv=0 dx=0 dy=0 dh=0 dv=0
PairPos2: "'kern' Horizontal Kerning lookup 15-2" uniFB7C dx=-100 dy=0 dh=-100 dv=0 dx=0 dy=0 dh=0 dv=0
PairPos2: "'kern' Horizontal Kerning lookup 15-2" afii57506 dx=-100 dy=0 dh=-100 dv=0 dx=0 dy=0 dh=0 dv=0
PairPos2: "'kern' Horizontal Kerning lookup 15-2" afii57440 dx=-100 dy=0 dh=-100 dv=0 dx=0 dy=0 dh=0 dv=0
EndChar

StartChar: uniFEB2
Encoding: 65202 65202 189
Width: 2666
VWidth: 2593
GlyphClass: 2
Flags: W
AnchorPoint: "Anchor-10" 704.089 1069.03 basechar 0
AnchorPoint: "Anchor-7" 281.557 -585.885 basechar 0
LayerCount: 2
Fore
SplineSet
2671.71191406 0 m 2,0,-1
 2601.93945312 0 l 2,1,2
 2408.2734375 0 2408.2734375 0 2313.1875 118.624023438 c 1,3,4
 2286.52246094 78.6767578125 2286.52246094 78.6767578125 2247.63964844 52.0029296875 c 128,-1,5
 2208.75585938 25.3291015625 2208.75585938 25.3291015625 2161.06054688 12.640625 c 128,-1,6
 2113.36523438 -0.046875 2113.36523438 -0.046875 2056.3984375 -0.06640625 c 0,7,8
 1876.41601562 -0.0087890625 1876.41601562 -0.0087890625 1793.37011719 116.889648438 c 1,9,10
 1719.97753906 -0.8828125 1719.97753906 -0.8828125 1562.51269531 0.0009765625 c 0,11,12
 1449.60058594 0.681640625 1449.60058594 0.681640625 1379.04882812 43.884765625 c 1,13,14
 1365.55664062 -193.157226562 1365.55664062 -193.157226562 1209.35742188 -318.327148438 c 128,-1,15
 1053.15820312 -443.498046875 1053.15820312 -443.498046875 768.692382812 -452.186523438 c 2,16,-1
 749.025390625 -452.787109375 l 1,17,-1
 721.23828125 -452.787109375 l 2,18,19
 404.555664062 -452.897460938 404.555664062 -452.897460938 237.858398438 -317.383789062 c 128,-1,20
 71.16015625 -181.870117188 71.16015625 -181.870117188 71.16015625 83.2763671875 c 2,21,-1
 71.16015625 356.138671875 l 1,22,-1
 70.9501953125 525.9921875 l 1,23,-1
 329.91796875 526.041015625 l 1,24,-1
 329.91796875 84.4580078125 l 2,25,26
 329.954101562 -50.4794921875 329.954101562 -50.4794921875 423.502929688 -116.984375 c 128,-1,27
 517.051757812 -183.490234375 517.051757812 -183.490234375 723.396484375 -183.490234375 c 2,28,-1
 748.2578125 -183.490234375 l 1,29,-1
 775.552734375 -182.91015625 l 2,30,31
 1036.70800781 -177.586914062 1036.70800781 -177.586914062 1100.45800781 -36.529296875 c 0,32,33
 1123.74121094 16.140625 1123.74121094 16.140625 1123.88574219 88.537109375 c 2,34,-1
 1123.55859375 724.787109375 l 1,35,-1
 1393.79199219 725.025390625 l 1,36,-1
 1394.48339844 435.232421875 l 2,37,38
 1394.70800781 345.221679688 1394.70800781 345.221679688 1431.71191406 306.8046875 c 128,-1,39
 1468.71582031 268.387695312 1468.71582031 268.387695312 1553.17773438 268.67578125 c 0,40,41
 1607.13867188 268.795898438 1607.13867188 268.795898438 1633.35839844 305.99609375 c 128,-1,42
 1659.57714844 343.1953125 1659.57714844 343.1953125 1659.69042969 436.8359375 c 2,43,-1
 1660.046875 732.041992188 l 1,44,-1
 1923.84765625 732.041992188 l 1,45,-1
 1924.58886719 430.731445312 l 2,46,47
 1924.76953125 340.778320312 1924.76953125 340.778320312 1956.85449219 304.1484375 c 128,-1,48
 1988.93847656 267.518554688 1988.93847656 267.518554688 2060.84179688 268.56640625 c 0,49,50
 2115.1796875 269.466796875 2115.1796875 269.466796875 2141.78808594 307.987304688 c 128,-1,51
 2168.39550781 346.506835938 2168.39550781 346.506835938 2168.39550781 441.665039062 c 2,52,-1
 2168.39550781 732.979492188 l 1,53,-1
 2430.99511719 732.979492188 l 1,54,-1
 2432.15234375 439.80859375 l 2,55,56
 2432.51464844 349.333984375 2432.51464844 349.333984375 2477.33007812 308.666992188 c 128,-1,57
 2522.14648438 268 2522.14648438 268 2625.48144531 268 c 2,58,-1
 2671.71191406 268 l 2,59,60
 2725.71679688 268 2725.71679688 268 2756.21386719 231.797851562 c 128,-1,61
 2786.71191406 195.596679688 2786.71191406 195.596679688 2786.71191406 139 c 2,62,-1
 2786.71191406 128.065429688 l 2,63,64
 2786.89550781 71.8662109375 2786.89550781 71.8662109375 2756.3515625 35.9326171875 c 128,-1,65
 2725.80761719 0 2725.80761719 0 2671.71191406 0 c 2,0,-1
EndSplineSet
EndChar

StartChar: uniFEB3
Encoding: 65203 65203 190
Width: 1594
VWidth: 2593
GlyphClass: 2
Flags: W
AnchorPoint: "Anchor-10" 744.679 1153.53 basechar 0
AnchorPoint: "Anchor-7" 904.307 -287.179 basechar 0
LayerCount: 2
Fore
SplineSet
-5.0234375 0 m 2,0,1
 -58.85546875 0 -58.85546875 0 -89.431640625 35.8876953125 c 128,-1,2
 -120.008789062 71.775390625 -120.008789062 71.775390625 -120.0234375 128 c 2,3,-1
 -120.0234375 139 l 2,4,5
 -120.0234375 195.59765625 -120.0234375 195.59765625 -89.609375 231.798828125 c 128,-1,6
 -59.1962890625 268 -59.1962890625 268 -5.0234375 268 c 2,7,-1
 29.7529296875 268 l 2,8,9
 132.260742188 268 132.260742188 268 176.737304688 309.09765625 c 128,-1,10
 221.21484375 350.196289062 221.21484375 350.196289062 221.376953125 442.018554688 c 2,11,-1
 221.880859375 726.999023438 l 1,12,-1
 485.672851562 726.999023438 l 1,13,-1
 486.34765625 437.506835938 l 2,14,15
 486.45703125 390.532226562 486.45703125 390.532226562 494.548828125 358.180664062 c 128,-1,16
 502.640625 325.829101562 502.640625 325.829101562 519.858398438 305.891601562 c 128,-1,17
 537.076171875 285.955078125 537.076171875 285.955078125 562.043945312 277.079101562 c 128,-1,18
 587.01171875 268.203125 587.01171875 268.203125 622.754882812 267.999023438 c 0,19,20
 656.236328125 267.80078125 656.236328125 267.80078125 679.533203125 276.102539062 c 128,-1,21
 702.830078125 284.405273438 702.830078125 284.405273438 719.084960938 303.758789062 c 128,-1,22
 735.340820312 323.112304688 735.340820312 323.112304688 742.8671875 355.294921875 c 128,-1,23
 750.393554688 387.477539062 750.393554688 387.477539062 750.215820312 434.586914062 c 2,24,-1
 749.41796875 726.172851562 l 1,25,-1
 1011.63574219 726.172851562 l 1,26,-1
 1012.37695312 434.078125 l 2,27,28
 1012.60449219 344.30078125 1012.60449219 344.30078125 1046.63085938 306.358398438 c 128,-1,29
 1080.65820312 268.415039062 1080.65820312 268.415039062 1157.24121094 267.999023438 c 0,30,31
 1178.37597656 267.854492188 1178.37597656 267.854492188 1194.42871094 272.5703125 c 128,-1,32
 1210.48046875 277.287109375 1210.48046875 277.287109375 1223.79492188 288.75390625 c 128,-1,33
 1237.109375 300.220703125 1237.109375 300.220703125 1245.60351562 319.038085938 c 128,-1,34
 1254.09765625 337.85546875 1254.09765625 337.85546875 1258.74609375 366.303710938 c 128,-1,35
 1263.39453125 394.750976562 1263.39453125 394.750976562 1263.484375 433.0390625 c 2,36,-1
 1263.484375 770.362304688 l 1,37,-1
 1522.2421875 770.362304688 l 1,38,-1
 1522.2421875 425.029296875 l 2,39,40
 1522.2421875 289.75 1522.2421875 289.75 1482.44238281 195.118164062 c 128,-1,41
 1442.64160156 100.485351562 1442.64160156 100.485351562 1362.32128906 50.2421875 c 128,-1,42
 1282 0 1282 0 1164.95898438 0 c 0,43,44
 969.956054688 0 969.956054688 0 880.35546875 122.926757812 c 1,45,46
 841.412109375 61.328125 841.412109375 61.328125 778.119140625 30.6640625 c 128,-1,47
 714.825195312 -0 714.825195312 -0 631.8984375 0 c 0,48,49
 447.435546875 0 447.435546875 0 363.205078125 119.922851562 c 1,50,51
 262.0078125 0 262.0078125 0 28.82421875 0 c 2,52,-1
 -5.0234375 0 l 2,0,1
EndSplineSet
EndChar

StartChar: uniFEB4
Encoding: 65204 65204 191
Width: 1771
VWidth: 2588
GlyphClass: 2
Flags: W
AnchorPoint: "Anchor-10" 850.65 1147.67 basechar 0
AnchorPoint: "Anchor-7" 862.824 -247.272 basechar 0
LayerCount: 2
Fore
SplineSet
1776.8046875 0 m 2,0,-1
 1716.80078125 0 l 2,1,2
 1497.82617188 0 1497.82617188 0 1410.16699219 117.727539062 c 1,3,4
 1370.40429688 58.5146484375 1370.40429688 58.5146484375 1309.18457031 28.90234375 c 128,-1,5
 1247.96386719 -0.7109375 1247.96386719 -0.7109375 1169.63671875 -0.4892578125 c 0,6,7
 1083.38378906 -0.275390625 1083.38378906 -0.275390625 1015.40039062 30.6279296875 c 128,-1,8
 947.416992188 61.53125 947.416992188 61.53125 902.8984375 121.958007812 c 1,9,10
 822.764648438 0.0009765625 822.764648438 0.0009765625 649.478515625 0.0126953125 c 0,11,12
 461.599609375 0.0009765625 461.599609375 0.0009765625 378.5390625 119.91796875 c 1,13,14
 283.971679688 0 283.971679688 0 59.7490234375 0 c 2,15,-1
 -5.0234375 0 l 2,16,17
 -40.96484375 0 -40.96484375 0 -67.34765625 16.9580078125 c 128,-1,18
 -93.7314453125 33.916015625 -93.7314453125 33.916015625 -106.876953125 62.619140625 c 128,-1,19
 -120.0234375 91.3232421875 -120.0234375 91.3232421875 -120.0234375 128 c 2,20,-1
 -120.0234375 139.010742188 l 2,21,22
 -120.008789062 195.603515625 -120.008789062 195.603515625 -89.59765625 231.801757812 c 128,-1,23
 -59.1865234375 268 -59.1865234375 268 -5.0234375 268 c 2,24,-1
 58.099609375 268 l 2,25,26
 162.727539062 268 162.727539062 268 206.157226562 303.409179688 c 128,-1,27
 249.586914062 338.818359375 249.586914062 338.818359375 248.880859375 415.611328125 c 2,28,-1
 246.010742188 727.6875 l 1,29,-1
 514.544921875 727.6875 l 1,30,-1
 514.108398438 424.141601562 l 2,31,32
 514.061523438 339.115234375 514.061523438 339.115234375 546.717773438 303.545898438 c 128,-1,33
 579.375 267.977539062 579.375 267.977539062 654.171875 267.9609375 c 0,34,35
 712.499023438 267.975585938 712.499023438 267.975585938 739.370117188 302.719726562 c 128,-1,36
 766.240234375 337.46484375 766.240234375 337.46484375 766.149414062 424.69921875 c 2,37,-1
 765.833984375 727.6875 l 1,38,-1
 1030.78613281 727.6875 l 1,39,-1
 1032.34570312 426.85546875 l 2,40,41
 1032.63085938 340.189453125 1032.63085938 340.189453125 1065.11328125 304.127929688 c 128,-1,42
 1097.59570312 268.06640625 1097.59570312 268.06640625 1171.11425781 268.11328125 c 0,43,44
 1193.49804688 268.09375 1193.49804688 268.09375 1209.49414062 275.2265625 c 128,-1,45
 1225.49023438 282.359375 1225.49023438 282.359375 1237.99511719 299.608398438 c 128,-1,46
 1250.5 316.857421875 1250.5 316.857421875 1256.74316406 348.119140625 c 128,-1,47
 1262.98632812 379.380859375 1262.98632812 379.380859375 1263.10644531 425.295898438 c 2,48,-1
 1263.90722656 730.78515625 l 1,49,-1
 1527.04101562 730.78515625 l 1,50,-1
 1527.01757812 427.541992188 l 2,51,52
 1527.00976562 343.984375 1527.00976562 343.984375 1571.22070312 305.9921875 c 128,-1,53
 1615.43164062 268 1615.43164062 268 1719.37304688 268 c 2,54,-1
 1776.8046875 268 l 2,55,56
 1830.80957031 268 1830.80957031 268 1861.30664062 231.797851562 c 128,-1,57
 1891.8046875 195.596679688 1891.8046875 195.596679688 1891.8046875 139 c 2,58,-1
 1891.8046875 128.043945312 l 2,59,60
 1891.9296875 71.83984375 1891.9296875 71.83984375 1861.39746094 35.919921875 c 128,-1,61
 1830.86523438 0 1830.86523438 0 1776.8046875 0 c 2,0,-1
EndSplineSet
EndChar

StartChar: uniFEBA
Encoding: 65210 65210 197
Width: 2612
VWidth: 2593
GlyphClass: 2
Flags: W
AnchorPoint: "Anchor-10" 672.398 1186.4 basechar 0
AnchorPoint: "Anchor-7" 290.946 -652.786 basechar 0
LayerCount: 2
Fore
SplineSet
2617.67382812 0 m 2,0,-1
 2590.16699219 0 l 2,1,2
 2432.1875 0 2432.1875 0 2317.91015625 98.279296875 c 1,3,4
 2251.67089844 48.4697265625 2251.67089844 48.4697265625 2164.87695312 24.11328125 c 128,-1,5
 2078.08203125 -0.2431640625 2078.08203125 -0.2431640625 1971.45898438 -0.2958984375 c 2,6,-1
 1601.56347656 -0.48046875 l 2,7,8
 1463.828125 -0.8583984375 1463.828125 -0.8583984375 1379.74316406 55.609375 c 1,9,10
 1375.21484375 -66.2119140625 1375.21484375 -66.2119140625 1332.29394531 -159.821289062 c 128,-1,11
 1289.37304688 -253.430664062 1289.37304688 -253.430664062 1210.33007812 -316.524414062 c 128,-1,12
 1131.28613281 -379.6171875 1131.28613281 -379.6171875 1018.02636719 -413.670898438 c 128,-1,13
 904.765625 -447.723632812 904.765625 -447.723632812 758.65234375 -452.186523438 c 2,14,-1
 738.985351562 -452.787109375 l 1,15,-1
 711.202148438 -452.787109375 l 2,16,17
 397.9609375 -452.8984375 397.9609375 -452.8984375 234.508789062 -301.447265625 c 128,-1,18
 71.0576171875 -149.99609375 71.0576171875 -149.99609375 71.12109375 143.262695312 c 2,19,-1
 70.986328125 525.9921875 l 1,20,-1
 329.877929688 526.041015625 l 1,21,-1
 329.877929688 144.462890625 l 2,22,23
 329.93359375 -23.4677734375 329.93359375 -23.4677734375 421.995117188 -103.478515625 c 128,-1,24
 514.057617188 -183.490234375 514.057617188 -183.490234375 713.356445312 -183.490234375 c 2,25,-1
 738.217773438 -183.490234375 l 1,26,-1
 765.4921875 -182.911132812 l 2,27,28
 953.407226562 -178.704101562 953.407226562 -178.704101562 1038.66601562 -111.854492188 c 128,-1,29
 1123.92382812 -45.005859375 1123.92382812 -45.005859375 1123.84570312 88.5341796875 c 2,30,-1
 1123.47363281 724.797851562 l 1,31,-1
 1384.92773438 724.931640625 l 1,32,-1
 1385.0390625 506.596679688 l 2,33,34
 1385.01269531 354.020507812 1385.01269531 354.020507812 1437.78222656 308.967773438 c 1,35,36
 1470.66601562 384.564453125 1470.66601562 384.564453125 1505.77734375 449.637695312 c 128,-1,37
 1540.88769531 514.709960938 1540.88769531 514.709960938 1578.96484375 570.18359375 c 128,-1,38
 1617.04101562 625.657226562 1617.04101562 625.657226562 1657.4609375 670.216796875 c 128,-1,39
 1697.88085938 714.775390625 1697.88085938 714.775390625 1741.44042969 748.95703125 c 128,-1,40
 1785.00097656 783.138671875 1785.00097656 783.138671875 1831.01660156 806.041992188 c 128,-1,41
 1877.03222656 828.9453125 1877.03222656 828.9453125 1926.36230469 840.692382812 c 128,-1,42
 1975.69140625 852.440429688 1975.69140625 852.440429688 2027.59375 852.51953125 c 0,43,44
 2236.82324219 853.05078125 2236.82324219 853.05078125 2357.07324219 694.561523438 c 0,45,46
 2449.9375 571.479492188 2449.9375 571.479492188 2450.73632812 399.192382812 c 0,47,48
 2450.80859375 386.3671875 2450.80859375 386.3671875 2450.203125 373.19921875 c 128,-1,49
 2449.59765625 360.03125 2449.59765625 360.03125 2448.40039062 347.5390625 c 128,-1,50
 2447.20214844 335.046875 2447.20214844 335.046875 2445.46191406 323.432617188 c 1,51,52
 2507.73144531 268 2507.73144531 268 2598.29296875 268 c 2,53,-1
 2617.67382812 268 l 2,54,55
 2644.84472656 268 2644.84472656 268 2666.80566406 258.124023438 c 128,-1,56
 2688.76660156 248.247070312 2688.76660156 248.247070312 2703.0703125 230.83984375 c 128,-1,57
 2717.37402344 213.432617188 2717.37402344 213.432617188 2725.0234375 189.956054688 c 128,-1,58
 2732.67382812 166.479492188 2732.67382812 166.479492188 2732.67382812 139 c 2,59,-1
 2732.67382812 128.07421875 l 2,60,61
 2732.71875 116.000976562 2732.71875 116.000976562 2731.25390625 104.581054688 c 128,-1,62
 2729.7890625 93.1611328125 2729.7890625 93.1611328125 2726.81347656 82.65625 c 128,-1,63
 2723.83691406 72.1513671875 2723.83691406 72.1513671875 2719.48339844 62.634765625 c 128,-1,64
 2715.12890625 53.119140625 2715.12890625 53.119140625 2709.25683594 44.814453125 c 128,-1,65
 2703.38378906 36.5087890625 2703.38378906 36.5087890625 2696.27441406 29.53125 c 128,-1,66
 2689.16503906 22.5537109375 2689.16503906 22.5537109375 2680.52929688 17.0830078125 c 128,-1,67
 2671.89355469 11.6123046875 2671.89355469 11.6123046875 2662.16308594 7.8076171875 c 128,-1,68
 2652.43164062 4.0029296875 2652.43164062 4.0029296875 2641.16699219 2.001953125 c 128,-1,69
 2629.90234375 0 2629.90234375 0 2617.67382812 0 c 2,0,-1
2195.71582031 454.522460938 m 0,70,71
 2187.03613281 490.888671875 2187.03613281 490.888671875 2172.62109375 516.594726562 c 128,-1,72
 2158.20605469 542.301757812 2158.20605469 542.301757812 2136.37695312 559.147460938 c 128,-1,73
 2114.54785156 575.994140625 2114.54785156 575.994140625 2085.29589844 583.814453125 c 128,-1,74
 2056.04492188 591.634765625 2056.04492188 591.634765625 2017.30175781 591.533203125 c 0,75,76
 1941.52832031 591.709960938 1941.52832031 591.709960938 1859.96777344 513.28125 c 128,-1,77
 1778.40722656 434.852539062 1778.40722656 434.852539062 1696.62304688 271.046875 c 1,78,-1
 1991.44726562 271.046875 l 2,79,80
 2061.8203125 271.025390625 2061.8203125 271.025390625 2107.84472656 281.279296875 c 128,-1,81
 2153.86816406 291.533203125 2153.86816406 291.533203125 2170.49609375 306.323242188 c 0,82,83
 2180.42871094 315.270507812 2180.42871094 315.270507812 2187.04199219 326.435546875 c 128,-1,84
 2193.65625 337.599609375 2193.65625 337.599609375 2197.39160156 353.240234375 c 128,-1,85
 2201.12695312 368.881835938 2201.12695312 368.881835938 2201.17480469 388.491210938 c 0,86,87
 2201.12207031 402.155273438 2201.12207031 402.155273438 2200.39257812 414.768554688 c 128,-1,88
 2199.66308594 427.3828125 2199.66308594 427.3828125 2198.48046875 437.173828125 c 128,-1,89
 2197.296875 446.965820312 2197.296875 446.965820312 2195.71582031 454.522460938 c 0,70,71
EndSplineSet
EndChar

StartChar: uniFEBB
Encoding: 65211 65211 198
Width: 1648
VWidth: 2593
GlyphClass: 2
Flags: W
AnchorPoint: "Anchor-10" 630.109 1290.04 basechar 0
AnchorPoint: "Anchor-7" 630.109 -226.146 basechar 0
LayerCount: 2
Fore
SplineSet
-5.0234375 0 m 2,0,1
 -58.85546875 0 -58.85546875 0 -89.431640625 35.8876953125 c 128,-1,2
 -120.008789062 71.775390625 -120.008789062 71.775390625 -120.0234375 128 c 2,3,-1
 -120.0234375 139 l 2,4,5
 -120.0234375 195.59765625 -120.0234375 195.59765625 -89.609375 231.798828125 c 128,-1,6
 -59.1962890625 268 -59.1962890625 268 -5.0234375 268 c 2,7,-1
 51.2724609375 268 l 2,8,9
 145.955078125 268 145.955078125 268 186.913085938 307.646484375 c 128,-1,10
 227.87109375 347.29296875 227.87109375 347.29296875 227.774414062 437.512695312 c 2,11,-1
 227.774414062 729.1796875 l 1,12,-1
 484.580078125 729.1796875 l 1,13,-1
 485.829101562 434.166992188 l 2,14,15
 486.1171875 366.125976562 486.1171875 366.125976562 503.458007812 335.359375 c 128,-1,16
 520.798828125 304.592773438 520.798828125 304.592773438 552.520507812 297.538085938 c 1,17,18
 791.138671875 853 791.138671875 853 1147.5 853 c 0,19,20
 1357.8671875 853 1357.8671875 853 1476.9140625 696.021484375 c 0,21,22
 1569.953125 572.436523438 1569.953125 572.436523438 1570.5625 399.588867188 c 0,23,24
 1571.04785156 204.943359375 1571.04785156 204.943359375 1441.18847656 99.9267578125 c 0,25,26
 1318.18652344 -0.0126953125 1318.18652344 -0.0126953125 1091.25683594 0.1845703125 c 2,27,-1
 710.34375 0 l 2,28,29
 479.28125 -0.1123046875 479.28125 -0.1123046875 370.752929688 106.541015625 c 1,30,31
 272.02734375 0 272.02734375 0 58.154296875 0 c 2,32,-1
 -5.0234375 0 l 2,0,1
1315.55078125 454.962890625 m 0,33,34
 1306.91113281 491.213867188 1306.91113281 491.213867188 1292.50390625 516.877929688 c 128,-1,35
 1278.09667969 542.541015625 1278.09667969 542.541015625 1256.26171875 559.39453125 c 128,-1,36
 1234.42578125 576.248046875 1234.42578125 576.248046875 1205.15332031 584.12890625 c 128,-1,37
 1175.88183594 592.010742188 1175.88183594 592.010742188 1137.12402344 592.013671875 c 0,38,39
 994.07421875 592.00390625 994.07421875 592.00390625 849.196289062 333.362304688 c 0,40,41
 832.7578125 304.016601562 832.7578125 304.016601562 816.505859375 271.52734375 c 1,42,-1
 1111.19921875 271.52734375 l 2,43,44
 1181.12988281 271.7421875 1181.12988281 271.7421875 1227.25488281 282.045898438 c 128,-1,45
 1273.37988281 292.349609375 1273.37988281 292.349609375 1290.671875 307.114257812 c 0,46,47
 1305.86816406 320.779296875 1305.86816406 320.779296875 1313.43457031 340.21484375 c 128,-1,48
 1321 359.649414062 1321 359.649414062 1321 389 c 0,49,50
 1321 429.213867188 1321 429.213867188 1315.55078125 454.962890625 c 0,33,34
EndSplineSet
EndChar

StartChar: uniFEBC
Encoding: 65212 65212 199
Width: 1734
VWidth: 2593
GlyphClass: 2
Flags: W
AnchorPoint: "Anchor-10" 689.854 1292.04 basechar 0
AnchorPoint: "Anchor-7" 719.196 -263.704 basechar 0
LayerCount: 2
Fore
SplineSet
1738.9765625 0 m 2,0,-1
 1709.9921875 0 l 2,1,2
 1551.67773438 0 1551.67773438 0 1438.20800781 98.1103515625 c 1,3,4
 1312.45996094 0.2919921875 1312.45996094 0.2919921875 1091.28417969 0.1845703125 c 2,5,-1
 711.32421875 0 l 2,6,7
 478.125 0 478.125 0 370.547851562 106.274414062 c 1,8,9
 271.788085938 -0.423828125 271.788085938 -0.423828125 58.0927734375 -0.0966796875 c 2,10,-1
 -5.0537109375 0 l 2,11,12
 -58.859375 0 -58.859375 0 -89.44140625 35.89453125 c 128,-1,13
 -120.0234375 71.7890625 -120.0234375 71.7890625 -120.0234375 128 c 2,14,-1
 -120.0234375 139.010742188 l 2,15,16
 -120.008789062 195.603515625 -120.008789062 195.603515625 -89.59765625 231.801757812 c 128,-1,17
 -59.1865234375 268 -59.1865234375 268 -5.0234375 268 c 2,18,-1
 51.2763671875 268 l 2,19,20
 145.833984375 267.991210938 145.833984375 267.991210938 186.8046875 307.6484375 c 128,-1,21
 227.774414062 347.3046875 227.774414062 347.3046875 227.774414062 437.534179688 c 2,22,-1
 227.774414062 728.1796875 l 1,23,-1
 484.579101562 728.1796875 l 1,24,-1
 485.828125 434.213867188 l 2,25,26
 486.059570312 398.959960938 486.059570312 398.959960938 491.025390625 373.412109375 c 128,-1,27
 495.9921875 347.864257812 495.9921875 347.864257812 505.317382812 332.54296875 c 128,-1,28
 514.643554688 317.221679688 514.643554688 317.221679688 526.018554688 309.077148438 c 128,-1,29
 537.393554688 300.93359375 537.393554688 300.93359375 552.529296875 297.55859375 c 1,30,31
 791.138671875 853 791.138671875 853 1147.5 853 c 0,32,33
 1356.83984375 853 1356.83984375 853 1476.90136719 695.0390625 c 0,34,35
 1569.95214844 571.436523438 1569.95214844 571.436523438 1570.56152344 399.723632812 c 0,36,37
 1570.92578125 360.21875 1570.92578125 360.21875 1565.35253906 323.76953125 c 1,38,39
 1597.25683594 295.197265625 1597.25683594 295.197265625 1633.94824219 281.598632812 c 128,-1,40
 1670.63867188 268 1670.63867188 268 1716.11816406 268 c 2,41,-1
 1738.9765625 268 l 2,42,43
 1792.98144531 268 1792.98144531 268 1823.47851562 231.797851562 c 128,-1,44
 1853.9765625 195.596679688 1853.9765625 195.596679688 1853.9765625 139 c 2,45,-1
 1853.9765625 128.010742188 l 2,46,47
 1853.99121094 71.791015625 1853.99121094 71.791015625 1823.48144531 35.8955078125 c 128,-1,48
 1792.97167969 -0 1792.97167969 -0 1738.9765625 0 c 2,0,-1
1315.55078125 454.962890625 m 0,49,50
 1306.91113281 491.213867188 1306.91113281 491.213867188 1292.50390625 516.877929688 c 128,-1,51
 1278.09667969 542.541015625 1278.09667969 542.541015625 1256.26171875 559.39453125 c 128,-1,52
 1234.42578125 576.248046875 1234.42578125 576.248046875 1205.15332031 584.12890625 c 128,-1,53
 1175.88183594 592.010742188 1175.88183594 592.010742188 1137.12402344 592.013671875 c 0,54,55
 994.07421875 592.00390625 994.07421875 592.00390625 849.196289062 333.362304688 c 0,56,57
 832.7578125 304.016601562 832.7578125 304.016601562 816.505859375 271.52734375 c 1,58,-1
 1111.19921875 271.52734375 l 2,59,60
 1181.12988281 271.7421875 1181.12988281 271.7421875 1227.25488281 282.045898438 c 128,-1,61
 1273.37988281 292.349609375 1273.37988281 292.349609375 1290.671875 307.114257812 c 0,62,63
 1305.86816406 320.779296875 1305.86816406 320.779296875 1313.43457031 340.21484375 c 128,-1,64
 1321 359.649414062 1321 359.649414062 1321 389 c 0,65,66
 1321 429.213867188 1321 429.213867188 1315.55078125 454.962890625 c 0,49,50
EndSplineSet
EndChar

StartChar: uniFEC2
Encoding: 65218 65218 205
Width: 1407
VWidth: 2593
GlyphClass: 2
Flags: W
AnchorPoint: "Anchor-7" 545.078 -244.734 basechar 0
AnchorPoint: "Anchor-10" 423.545 1463.1 basechar 0
LayerCount: 2
Fore
SplineSet
1411.9765625 0 m 2,0,-1
 1384.49316406 0 l 2,1,2
 1226 0 1226 0 1111.94726562 99.2392578125 c 1,3,4
 979.330610611 0.24678620898 979.330610611 0.24678620898 764.952148438 0.1845703125 c 2,5,-1
 71.7705078125 -0.0166015625 l 1,6,-1
 71.7705078125 269.266601562 l 1,7,-1
 205.73828125 269.044921875 l 1,8,9
 231 328 231 328 295.905273438 452 c 1,10,-1
 295.905273438 1368.640625 l 5,11,-1
 551 1368.64355469 l 5,12,-1
 551 751.250976562 l 1,13,14
 617 802 617 802 683.696289062 827.411132812 c 0,15,16
 751 853 751 853 820.17578125 853 c 0,17,18
 1035 853 1035 853 1151.66308594 697.923828125 c 0,19,20
 1245 573 1245 573 1244.23730469 399.258789062 c 0,21,22
 1244 382 1244 382 1242.828125 362.885742188 c 0,23,24
 1242 344 1242 344 1239.12890625 324.889648438 c 1,25,26
 1302 268 1302 268 1389.61914062 268 c 2,27,-1
 1411.9765625 268 l 2,28,29
 1466 268 1466 268 1496.47851562 231.797851562 c 0,30,31
 1526.9765625 196.027489231 1526.9765625 196.027489231 1526.9765625 139 c 2,32,-1
 1526.9765625 128.010742188 l 2,33,34
 1527 72 1527 72 1496.48144531 35.8955078125 c 0,35,36
 1466 0 1466 0 1411.9765625 0 c 2,0,-1
989.270507812 454.779296875 m 0,37,38
 972.438476562 526.928710938 972.438476562 526.928710938 931.734375 559.467773438 c 128,-1,39
 891.03125 592.0078125 891.03125 592.0078125 817.799804688 592.013671875 c 0,40,41
 792.16796875 592.01171875 792.16796875 592.01171875 766.172851562 583.888671875 c 128,-1,42
 740.177734375 575.764648438 740.177734375 575.764648438 713.142578125 559.17578125 c 128,-1,43
 686.106445312 542.5859375 686.106445312 542.5859375 658.552734375 516.391601562 c 128,-1,44
 630.999023438 490.197265625 630.999023438 490.197265625 603.197265625 455.055664062 c 128,-1,45
 575.396484375 419.9140625 575.396484375 419.9140625 546.858398438 373.6171875 c 128,-1,46
 518.321289062 327.319335938 518.321289062 327.319335938 490.266601562 271.52734375 c 1,47,-1
 784.875 271.52734375 l 2,48,49
 855.026367188 271.7421875 855.026367188 271.7421875 901.1875 282.026367188 c 128,-1,50
 947.348632812 292.310546875 947.348632812 292.310546875 964.330078125 307.09765625 c 0,51,52
 979.498046875 320.4453125 979.498046875 320.4453125 987.15234375 339.950195312 c 128,-1,53
 994.806640625 359.456054688 994.806640625 359.456054688 994.674804688 389.055664062 c 0,54,55
 994.825195312 409.858398438 994.825195312 409.858398438 993.423828125 426.251953125 c 128,-1,56
 992.022460938 442.645507812 992.022460938 442.645507812 989.270507812 454.779296875 c 0,37,38
EndSplineSet
EndChar

StartChar: uniFEC3
Encoding: 65219 65219 206
Width: 1166
VWidth: 2593
GlyphClass: 2
Flags: W
AnchorPoint: "Anchor-10" 250.277 1457.82 basechar 0
AnchorPoint: "Anchor-7" 348.078 -262.734 basechar 0
LayerCount: 2
Fore
SplineSet
-5.0234375 0 m 2,0,1
 -41 0 -41 0 -67.34765625 16.9580078125 c 0,2,3
 -94 34 -94 34 -106.876953125 62.619140625 c 0,4,5
 -120.0234375 91.0506876488 -120.0234375 91.0506876488 -120.0234375 128 c 2,6,-1
 -120.0234375 139.010742188 l 2,7,8
 -120 196 -120 196 -89.59765625 231.801757812 c 0,9,10
 -59 268 -59 268 -5.0234375 268 c 2,11,-1
 50.685546875 268 l 1,12,13
 76 326 76 326 140.689453125 452.0625 c 1,14,-1
 140.689453125 1368.84375 l 5,15,-1
 395.784179688 1368.84375 l 5,16,-1
 395.784179688 751.220703125 l 1,17,18
 462 802 462 802 528.3125 827.580078125 c 0,19,20
 595 853 595 853 663.955078125 853.200195312 c 0,21,22
 880 853 880 853 996.412109375 698.170898438 c 0,23,24
 1087.9617647 576.381178186 1087.9617647 576.381178186 1089.02246094 399.791992188 c 0,25,26
 1090 219 1090 219 961.41015625 101.641601562 c 0,27,28
 849 0 849 0 609.724609375 0 c 2,29,-1
 -5.0234375 0 l 2,0,1
834.12890625 454.663085938 m 0,30,31
 816.999023438 526.564453125 816.999023438 526.564453125 774.647460938 559.342773438 c 128,-1,32
 732.295898438 592.12109375 732.295898438 592.12109375 655.578125 592.213867188 c 0,33,34
 579.799804688 592.1328125 579.799804688 592.1328125 498.1484375 512.973632812 c 128,-1,35
 416.497070312 433.815429688 416.497070312 433.815429688 334.701171875 268.727539062 c 1,36,-1
 629.685546875 268.727539062 l 2,37,38
 677.455078125 268.811523438 677.455078125 268.811523438 715.905273438 274.1484375 c 128,-1,39
 754.35546875 279.485351562 754.35546875 279.485351562 776.25390625 287.141601562 c 128,-1,40
 798.15234375 294.797851562 798.15234375 294.797851562 808.965820312 304.16796875 c 0,41,42
 819.180664062 313.426757812 819.180664062 313.426757812 825.794921875 324.782226562 c 128,-1,43
 832.409179688 336.137695312 832.409179688 336.137695312 836.008789062 352.205078125 c 128,-1,44
 839.609375 368.272460938 839.609375 368.272460938 839.4609375 388.872070312 c 0,45,46
 839.043945312 434.103515625 839.043945312 434.103515625 834.12890625 454.663085938 c 0,30,31
EndSplineSet
EndChar

StartChar: uniFEC4
Encoding: 65220 65220 207
Width: 1254
VWidth: 2593
GlyphClass: 2
Flags: W
AnchorPoint: "Anchor-10" 260.783 1458.53 basechar 0
AnchorPoint: "Anchor-7" 490.837 -254.314 basechar 0
LayerCount: 2
Fore
SplineSet
1258.9765625 0 m 2,0,-1
 1232.27734375 0 l 2,1,2
 1073 0 1073 0 959.58984375 99.5595703125 c 1,3,4
 824.339815031 0.516549354248 824.339815031 0.516549354248 612.75 0.384765625 c 2,5,-1
 -5.0234375 0 l 2,6,7
 -41 -0 -41 -0 -67.34765625 16.9580078125 c 0,8,9
 -94 34 -94 34 -106.876953125 62.619140625 c 0,10,11
 -120.0234375 91.0506876488 -120.0234375 91.0506876488 -120.0234375 128 c 2,12,-1
 -120.0234375 139.010742188 l 2,13,14
 -120 196 -120 196 -89.59765625 231.801757812 c 0,15,16
 -59 268 -59 268 -5.0234375 268 c 2,17,-1
 53.685546875 268 l 1,18,19
 79 326 79 326 143.689453125 452.0625 c 1,20,-1
 143.689453125 1368.84375 l 5,21,-1
 398.784179688 1368.84375 l 5,22,-1
 398.784179688 751.305664062 l 1,23,24
 531 853 531 853 667.955078125 853.200195312 c 0,25,26
 883 853 883 853 999.395507812 698.192382812 c 0,27,28
 1093 574 1093 574 1092.02246094 399.537109375 c 0,29,30
 1092 364 1092 364 1086.984375 325.022460938 c 1,31,32
 1119 296 1119 296 1155.734375 282.00390625 c 0,33,34
 1193 268 1193 268 1237.40332031 268 c 2,35,-1
 1258.9765625 268 l 2,36,37
 1313 268 1313 268 1343.47851562 231.797851562 c 0,38,39
 1373.9765625 196.027489231 1373.9765625 196.027489231 1373.9765625 139 c 2,40,-1
 1373.9765625 128.010742188 l 2,41,42
 1374 91 1374 91 1360.90625 62.666015625 c 0,43,44
 1348 34 1348 34 1321.43261719 16.9912109375 c 128,-1,45
 1295 0 1295 0 1258.9765625 0 c 2,0,-1
837.07421875 454.893554688 m 0,46,47
 830.322265625 483.959960938 830.322265625 483.959960938 819.9921875 506.166015625 c 128,-1,48
 809.661132812 528.373046875 809.661132812 528.373046875 795.228515625 544.759765625 c 128,-1,49
 780.795898438 561.147460938 780.795898438 561.147460938 761.678710938 571.583984375 c 128,-1,50
 742.561523438 582.021484375 742.561523438 582.021484375 718.830078125 587.098632812 c 128,-1,51
 695.098632812 592.176757812 695.098632812 592.176757812 665.577148438 592.213867188 c 0,52,53
 586.143554688 592.131835938 586.143554688 592.131835938 503.103515625 513.828125 c 128,-1,54
 420.063476562 435.524414062 420.063476562 435.524414062 337.955078125 271.727539062 c 1,55,-1
 632.685546875 271.727539062 l 2,56,57
 703.098632812 271.8515625 703.098632812 271.8515625 749.100585938 282.103515625 c 128,-1,58
 795.102539062 292.35546875 795.102539062 292.35546875 812.149414062 307.329101562 c 0,59,60
 842.11328125 333.342773438 842.11328125 333.342773438 842.461914062 389.565429688 c 0,61,62
 842.944335938 429.6484375 842.944335938 429.6484375 837.07421875 454.893554688 c 0,46,47
EndSplineSet
EndChar

StartChar: uniFECA
Encoding: 65226 65226 213
Width: 1297
VWidth: 2593
GlyphClass: 2
Flags: W
AnchorPoint: "Anchor-10" 574.282 1388.27 basechar 0
AnchorPoint: "Anchor-7" 242.935 -721.024 basechar 0
LayerCount: 2
Fore
SplineSet
1301.9765625 0 m 2,0,-1
 1148.21679688 0 l 2,1,2
 1012.75488281 0 1012.75488281 0 890.680664062 37.2431640625 c 128,-1,3
 768.607421875 74.4853515625 768.607421875 74.4853515625 662.977539062 147.885742188 c 1,4,5
 329.353515625 40.5654296875 329.353515625 40.5654296875 325.681640625 -158.447265625 c 0,6,7
 323.145507812 -325.775390625 323.145507812 -325.775390625 445.182617188 -409.0859375 c 128,-1,8
 567.220703125 -492.396484375 567.220703125 -492.396484375 834.442382812 -492.172851562 c 2,9,-1
 1177.33007812 -491.885742188 l 1,10,-1
 1177.33007812 -755.587890625 l 1,11,-1
 822.309570312 -754.58203125 l 2,12,13
 419.0078125 -752.934570312 419.0078125 -752.934570312 244.487304688 -587.817382812 c 0,14,15
 66.763671875 -417.869140625 66.763671875 -417.869140625 70.1142578125 -175.044921875 c 0,16,17
 72.98828125 -1.99609375 72.98828125 -1.99609375 162.975585938 124.33203125 c 128,-1,18
 252.962890625 250.661132812 252.962890625 250.661132812 423.512695312 324.372070312 c 1,19,20
 324.869140625 402.774414062 324.869140625 402.774414062 274.493164062 473.5546875 c 128,-1,21
 224.1171875 544.333984375 224.1171875 544.333984375 225.482421875 613.887695312 c 0,22,23
 227 685.916015625 227 685.916015625 268.740234375 741.8125 c 128,-1,24
 310.481445312 797.708007812 310.481445312 797.708007812 386.26171875 834.015625 c 0,25,26
 482.943359375 879.985351562 482.943359375 879.985351562 685.1328125 880.323242188 c 0,27,28
 819.943359375 880.153320312 819.943359375 880.153320312 914.525390625 856.30859375 c 128,-1,29
 1009.10644531 832.462890625 1009.10644531 832.462890625 1065.26757812 780.58203125 c 0,30,31
 1103.50488281 745.638671875 1103.50488281 745.638671875 1123.83203125 702.596679688 c 128,-1,32
 1144.16015625 659.553710938 1144.16015625 659.553710938 1144.40625 611.05859375 c 0,33,34
 1144.30371094 563.389648438 1144.30371094 563.389648438 1129.09570312 518.844726562 c 128,-1,35
 1113.88769531 474.298828125 1113.88769531 474.298828125 1084.49804688 434.208007812 c 128,-1,36
 1055.109375 394.116210938 1055.109375 394.116210938 1013.46191406 358.125976562 c 128,-1,37
 971.815429688 322.135742188 971.815429688 322.135742188 917.418945312 289.4921875 c 1,38,39
 961.174804688 278.876953125 961.174804688 278.876953125 1021.72558594 273.438476562 c 128,-1,40
 1082.27539062 268 1082.27539062 268 1159.4453125 268 c 2,41,-1
 1301.9765625 268 l 2,42,43
 1355.98144531 268 1355.98144531 268 1386.47851562 231.797851562 c 128,-1,44
 1416.9765625 195.596679688 1416.9765625 195.596679688 1416.9765625 139 c 2,45,-1
 1416.9765625 128.010742188 l 2,46,47
 1416.99121094 71.791015625 1416.99121094 71.791015625 1386.48144531 35.8955078125 c 128,-1,48
 1355.97167969 0 1355.97167969 0 1301.9765625 0 c 2,0,-1
876.833007812 580.30859375 m 0,49,50
 876.727539062 585.518554688 876.727539062 585.518554688 872.41015625 591.373046875 c 128,-1,51
 868.09375 597.227539062 868.09375 597.227539062 854.901367188 604.625976562 c 128,-1,52
 841.709960938 612.0234375 841.709960938 612.0234375 821.302734375 617.798828125 c 128,-1,53
 800.895507812 623.573242188 800.895507812 623.573242188 764.576171875 627.641601562 c 128,-1,54
 728.2578125 631.708984375 728.2578125 631.708984375 681.71875 631.885742188 c 0,55,56
 639.008789062 631.908203125 639.008789062 631.908203125 605.975585938 628.263671875 c 128,-1,57
 572.942382812 624.619140625 572.942382812 624.619140625 555.142578125 619.500976562 c 128,-1,58
 537.34375 614.381835938 537.34375 614.381835938 526.01953125 607.897460938 c 128,-1,59
 514.6953125 601.413085938 514.6953125 601.413085938 511.391601562 596.787109375 c 128,-1,60
 508.086914062 592.16015625 508.086914062 592.16015625 508.056640625 588.469726562 c 0,61,62
 508.225585938 587.598632812 508.225585938 587.598632812 509.119140625 585.833984375 c 128,-1,63
 510.012695312 584.069335938 510.012695312 584.069335938 511.678710938 581.356445312 c 128,-1,64
 513.344726562 578.643554688 513.344726562 578.643554688 516.055664062 575.029296875 c 128,-1,65
 518.766601562 571.416015625 518.766601562 571.416015625 522.237304688 567.172851562 c 128,-1,66
 525.70703125 562.9296875 525.70703125 562.9296875 530.56640625 557.7578125 c 128,-1,67
 535.42578125 552.584960938 535.42578125 552.584960938 541.029296875 547.102539062 c 128,-1,68
 546.633789062 541.620117188 546.633789062 541.620117188 553.970703125 535.178710938 c 128,-1,69
 561.307617188 528.737304688 561.307617188 528.737304688 569.3984375 522.284179688 c 0,70,71
 648.3671875 458.713867188 648.3671875 458.713867188 679.619140625 435.297851562 c 1,72,73
 707.567382812 445.89453125 707.567382812 445.89453125 732.759765625 458.01171875 c 128,-1,74
 757.951171875 470.129882812 757.951171875 470.129882812 780.5 483.743164062 c 128,-1,75
 803.047851562 497.356445312 803.047851562 497.356445312 823.9609375 512.970703125 c 0,76,77
 877.500976562 553.508789062 877.500976562 553.508789062 876.833007812 580.30859375 c 0,49,50
EndSplineSet
EndChar

StartChar: uniFECB
Encoding: 65227 65227 214
Width: 1083
VWidth: 2593
GlyphClass: 2
Flags: W
AnchorPoint: "Anchor-10" 394.602 1461.91 basechar 0
AnchorPoint: "Anchor-7" 545.228 -222.038 basechar 0
LayerCount: 2
Fore
SplineSet
-5.0234375 0 m 2,0,1
 -58.85546875 0 -58.85546875 0 -89.431640625 35.8876953125 c 128,-1,2
 -120.008789062 71.775390625 -120.008789062 71.775390625 -120.0234375 128 c 2,3,-1
 -120.0234375 139 l 2,4,5
 -120.0234375 195.59765625 -120.0234375 195.59765625 -89.609375 231.798828125 c 128,-1,6
 -59.1962890625 268 -59.1962890625 268 -5.0234375 268 c 2,7,-1
 215.159179688 268 l 1,8,9
 127.060546875 380.536132812 127.060546875 380.536132812 127.352539062 523.323242188 c 0,10,11
 128.060546875 712.34765625 128.060546875 712.34765625 248.344726562 835.586914062 c 0,12,13
 370.172851562 959.986328125 370.172851562 959.986328125 584.305664062 960.165039062 c 0,14,15
 810.118164062 959.984375 810.118164062 959.984375 944.114257812 794.138671875 c 2,16,-1
 960.93359375 773.3203125 l 1,17,-1
 848.520507812 567.448242188 l 1,18,-1
 810.762695312 604.25 l 2,19,20
 780.438476562 633.805664062 780.438476562 633.805664062 746.20703125 653.180664062 c 128,-1,21
 711.975585938 672.555664062 711.975585938 672.555664062 672.729492188 682.190429688 c 128,-1,22
 633.482421875 691.825195312 633.482421875 691.825195312 588.620117188 691.75 c 0,23,24
 521.625 691.862304688 521.625 691.862304688 477.166992188 673.750976562 c 128,-1,25
 432.709960938 655.638671875 432.709960938 655.638671875 406.3046875 620.44921875 c 0,26,27
 401.9296875 614.609375 401.9296875 614.609375 398.170898438 608.387695312 c 128,-1,28
 394.412109375 602.165039062 394.412109375 602.165039062 391.188476562 595.37109375 c 128,-1,29
 387.96484375 588.577148438 387.96484375 588.577148438 385.376953125 581.34375 c 128,-1,30
 382.788085938 574.110351562 382.788085938 574.110351562 380.784179688 566.249023438 c 128,-1,31
 378.78125 558.388671875 378.78125 558.388671875 377.427734375 550.03125 c 128,-1,32
 376.07421875 541.673828125 376.07421875 541.673828125 375.35546875 532.633789062 c 128,-1,33
 374.63671875 523.59375 374.63671875 523.59375 374.584960938 514 c 0,34,35
 374.92578125 426.3125 374.92578125 426.3125 463.807617188 355.370117188 c 0,36,37
 494.9296875 330.388671875 494.9296875 330.388671875 524.857421875 318.8125 c 128,-1,38
 554.784179688 307.235351562 554.784179688 307.235351562 585.483398438 307.395507812 c 0,39,40
 608.669921875 307.271484375 608.669921875 307.271484375 632.23046875 308.971679688 c 128,-1,41
 655.791992188 310.671875 655.791992188 310.671875 680.0234375 314.232421875 c 128,-1,42
 704.254882812 317.79296875 704.254882812 317.79296875 729.26171875 323.239257812 c 2,43,-1
 1012 385.086914062 l 1,44,-1
 1012 114.727539062 l 1,45,-1
 982.866210938 106.50390625 l 2,46,47
 605.537109375 0 605.537109375 0 304.7578125 0 c 2,48,-1
 -5.0234375 0 l 2,0,1
EndSplineSet
EndChar

StartChar: uniFECC
Encoding: 65228 65228 215
Width: 1104
VWidth: 2593
GlyphClass: 2
Flags: W
AnchorPoint: "Anchor-10" 505.677 1248.6 basechar 0
AnchorPoint: "Anchor-7" 456.382 -223.212 basechar 0
LayerCount: 2
Fore
SplineSet
1108.9765625 0 m 2,0,-1
 1058.58203125 0 l 2,1,2
 898.486328125 0 898.486328125 0 773.330078125 27.69921875 c 128,-1,3
 648.173828125 55.3984375 648.173828125 55.3984375 558.478515625 111.834960938 c 1,4,5
 395.3203125 0 395.3203125 0 35.9580078125 0 c 2,6,-1
 -5.0234375 0 l 2,7,8
 -58.85546875 0 -58.85546875 0 -89.431640625 35.8876953125 c 128,-1,9
 -120.008789062 71.775390625 -120.008789062 71.775390625 -120.0234375 128 c 2,10,-1
 -120.0234375 139 l 2,11,12
 -120.0234375 195.59765625 -120.0234375 195.59765625 -89.609375 231.798828125 c 128,-1,13
 -59.1962890625 268 -59.1962890625 268 -5.0234375 268 c 2,14,-1
 35.330078125 268 l 2,15,16
 213.869140625 268 213.869140625 268 312.935546875 282.752929688 c 1,17,18
 79.0234375 430.4765625 79.0234375 430.4765625 82.4833984375 583.935546875 c 0,19,20
 83.98046875 656.791992188 83.98046875 656.791992188 124.081054688 712.932617188 c 128,-1,21
 164.180664062 769.072265625 164.180664062 769.072265625 237.275390625 804.022460938 c 0,22,23
 333.944335938 849.985351562 333.944335938 849.985351562 542.142578125 850.323242188 c 0,24,25
 745.916992188 849.987304688 745.916992188 849.987304688 859.141601562 803.5390625 c 0,26,27
 894.072265625 789.297851562 894.072265625 789.297851562 921.231445312 767.463867188 c 128,-1,28
 948.389648438 745.629882812 948.389648438 745.629882812 966.745117188 717.46875 c 128,-1,29
 985.099609375 689.307617188 985.099609375 689.307617188 994.885742188 655.0390625 c 128,-1,30
 1004.671875 620.770507812 1004.671875 620.770507812 1005.34277344 581.56640625 c 0,31,32
 1006.97460938 435.485351562 1006.97460938 435.485351562 790.470703125 282.249023438 c 1,33,34
 894.795898438 268 894.795898438 268 1065.32910156 268 c 2,35,-1
 1108.9765625 268 l 2,36,37
 1162.98925781 268 1162.98925781 268 1193.49023438 231.794921875 c 128,-1,38
 1223.99121094 195.58984375 1223.99121094 195.58984375 1223.9765625 139 c 2,39,-1
 1223.9765625 128.010742188 l 2,40,41
 1223.99121094 71.791015625 1223.99121094 71.791015625 1193.48144531 35.8955078125 c 128,-1,42
 1162.97167969 -0 1162.97167969 -0 1108.9765625 0 c 2,0,-1
730.83984375 550.009765625 m 0,43,44
 730.778320312 553.024414062 730.778320312 553.024414062 729.6015625 556.1953125 c 128,-1,45
 728.423828125 559.366210938 728.423828125 559.366210938 725.376953125 563.235351562 c 128,-1,46
 722.330078125 567.104492188 722.330078125 567.104492188 717.64453125 570.784179688 c 128,-1,47
 712.959960938 574.46484375 712.959960938 574.46484375 705.280273438 578.327148438 c 128,-1,48
 697.600585938 582.189453125 697.600585938 582.189453125 687.801757812 585.529296875 c 128,-1,49
 678.001953125 588.869140625 678.001953125 588.869140625 664.083984375 591.875976562 c 128,-1,50
 650.166015625 594.8828125 650.166015625 594.8828125 633.646484375 597.033203125 c 128,-1,51
 617.126953125 599.18359375 617.126953125 599.18359375 595.364257812 600.484375 c 128,-1,52
 573.6015625 601.786132812 573.6015625 601.786132812 548.71484375 601.885742188 c 0,53,54
 476.9765625 601.922851562 476.9765625 601.922851562 432.352539062 592.069335938 c 128,-1,55
 387.728515625 582.216796875 387.728515625 582.216796875 376.389648438 572.67578125 c 128,-1,56
 365.049804688 563.134765625 365.049804688 563.134765625 365.055664062 554.227539062 c 0,57,58
 365.053710938 553.104492188 365.053710938 553.104492188 366.301757812 550.232421875 c 128,-1,59
 367.548828125 547.359375 367.548828125 547.359375 371.540039062 541.60546875 c 128,-1,60
 375.53125 535.8515625 375.53125 535.8515625 381.591796875 529.166992188 c 128,-1,61
 387.65234375 522.482421875 387.65234375 522.482421875 398.75 513.083007812 c 128,-1,62
 409.848632812 503.684570312 409.848632812 503.684570312 423.836914062 494.174804688 c 0,63,64
 471.943359375 461.629882812 471.943359375 461.629882812 506.578125 439.030273438 c 128,-1,65
 541.213867188 416.431640625 541.213867188 416.431640625 559.057617188 405.84765625 c 1,66,67
 575.918945312 416.485351562 575.918945312 416.485351562 605.134765625 437.73828125 c 128,-1,68
 634.350585938 458.9921875 634.350585938 458.9921875 675.670898438 490.750976562 c 0,69,70
 722.6875 527.204101562 722.6875 527.204101562 730.83984375 550.009765625 c 0,43,44
EndSplineSet
EndChar

StartChar: uniFEDA
Encoding: 65242 65242 229
Width: 2059
VWidth: 2593
GlyphClass: 2
Flags: W
AnchorPoint: "Anchor-10" 657.624 1569.46 basechar 0
AnchorPoint: "Anchor-7" 564.902 -273.681 basechar 0
LayerCount: 2
Fore
SplineSet
2064.75195312 -1.06640625 m 2,0,-1
 2007.74121094 -1.06640625 l 2,1,2
 1821 -1 1821 -1 1709.96777344 106.541992188 c 1,3,4
 1598.93147836 -1.06640625 1598.93147836 -1.06640625 1415.66992188 -1.06640625 c 2,5,-1
 513.987304688 -1.06640625 l 2,6,7
 468 -1 468 -1 426.064453125 5.84765625 c 0,8,9
 384 13 384 13 348.344726562 26.3046875 c 0,10,11
 312 40 312 40 281.0625 59.9814453125 c 128,-1,12
 250 80 250 80 224.28125 106.5 c 0,13,14
 199 133 199 133 178.245117188 165.541992188 c 0,15,16
 158 198 158 198 143.017578125 236.729492188 c 0,17,18
 128 275 128 275 118.842773438 319.744140625 c 0,19,20
 109 364 109 364 105.795898438 414.2109375 c 0,21,22
 102.19602335 457.635414763 102.19602335 457.635414763 102.1953125 480.825195312 c 2,23,-1
 102.1875 735.689453125 l 1,24,-1
 360.944335938 735.689453125 l 1,25,-1
 360.944335938 491.580078125 l 2,26,27
 361 371 361 371 399.467773438 319.48828125 c 0,28,29
 437.827524363 268.23046875 437.827524363 268.23046875 518.510742188 268.23046875 c 2,30,-1
 1422.79980469 268.23046875 l 2,31,32
 1505 268 1505 268 1542.97460938 311.796875 c 0,33,34
 1580.45605469 355.532148003 1580.45605469 355.532148003 1580.45605469 456.446289062 c 2,35,-1
 1580.45605469 1367.22460938 l 5,36,-1
 1839.21289062 1367.18847656 l 5,37,-1
 1839.21289062 430.97265625 l 2,38,39
 1839 348 1839 348 1880.67871094 309.0859375 c 0,40,41
 1922.49574471 270.54307084 1922.49574471 270.54307084 2019.15332031 268.098632812 c 2,42,-1
 2065.76171875 266.919921875 l 2,43,44
 2101 266 2101 266 2127.50390625 248.78515625 c 0,45,46
 2154 232 2154 232 2166.67382812 202.954101562 c 0,47,48
 2179.734375 174.577129974 2179.734375 174.577129974 2179.734375 137.93359375 c 2,49,-1
 2179.734375 126.994140625 l 2,50,51
 2180 71 2180 71 2149.36328125 34.9033203125 c 0,52,53
 2119 -1 2119 -1 2064.75195312 -1.06640625 c 2,0,-1
759.555664062 823.330078125 m 2,54,55
 772.923828125 821.645507812 772.923828125 821.645507812 785.088867188 820.315429688 c 128,-1,56
 797.25390625 818.986328125 797.25390625 818.986328125 807.864257812 818.041992188 c 128,-1,57
 818.474609375 817.096679688 818.474609375 817.096679688 827.833984375 816.497070312 c 128,-1,58
 837.193359375 815.897460938 837.193359375 815.897460938 845.063476562 815.650390625 c 128,-1,59
 852.93359375 815.404296875 852.93359375 815.404296875 859.50390625 815.4921875 c 0,60,61
 927.755859375 815.267578125 927.755859375 815.267578125 970.731445312 826.237304688 c 128,-1,62
 1013.70800781 837.206054688 1013.70800781 837.206054688 1029.97460938 853.928710938 c 0,63,64
 1047.89355469 872.219726562 1047.89355469 872.219726562 1048.09863281 882.260742188 c 0,65,66
 1047.83984375 899.908203125 1047.83984375 899.908203125 990.938476562 908.998046875 c 0,67,68
 956.923828125 914.404296875 956.923828125 914.404296875 929.290039062 923.8984375 c 128,-1,69
 901.65625 933.393554688 901.65625 933.393554688 878.061523438 949.056640625 c 128,-1,70
 854.466796875 964.720703125 854.466796875 964.720703125 838.368164062 985.91796875 c 0,71,72
 771.669921875 1074.34667969 771.669921875 1074.34667969 801.8828125 1170.54003906 c 0,73,74
 856.951171875 1344.63574219 856.951171875 1344.63574219 1148.52148438 1366.29980469 c 2,75,-1
 1220.75488281 1371.66699219 l 1,76,-1
 1220.75488281 1191.28027344 l 1,77,-1
 1158.9375 1186.25097656 l 2,78,79
 1107.0234375 1182.07910156 1107.0234375 1182.07910156 1069.78027344 1173.47753906 c 128,-1,80
 1032.53710938 1164.875 1032.53710938 1164.875 1014.17285156 1154.04882812 c 128,-1,81
 995.80859375 1143.22265625 995.80859375 1143.22265625 987.875976562 1133.3046875 c 128,-1,82
 979.942382812 1123.38574219 979.942382812 1123.38574219 979.63671875 1113.24023438 c 0,83,84
 979.743164062 1107.47949219 979.743164062 1107.47949219 980.46484375 1104.23242188 c 128,-1,85
 981.185546875 1100.98535156 981.185546875 1100.98535156 983.809570312 1097.41992188 c 128,-1,86
 986.432617188 1093.85449219 986.432617188 1093.85449219 991.802734375 1091.09667969 c 128,-1,87
 997.172851562 1088.33789062 997.172851562 1088.33789062 1006.30566406 1085.34082031 c 0,88,89
 1030.41503906 1077.05957031 1030.41503906 1077.05957031 1078.67382812 1070.15136719 c 0,90,91
 1142.45800781 1060.70214844 1142.45800781 1060.70214844 1185.66503906 1019.35058594 c 0,92,93
 1232.10546875 975.013671875 1232.10546875 975.013671875 1231.65039062 901.016601562 c 0,94,95
 1232.07128906 832.469726562 1232.07128906 832.469726562 1202.16113281 785.444335938 c 0,96,97
 1075.69140625 584.154296875 1075.69140625 584.154296875 740.762695312 636.504882812 c 2,98,-1
 683.897460938 645.393554688 l 1,99,-1
 683.897460938 832.864257812 l 1,100,-1
 759.555664062 823.330078125 l 2,54,55
EndSplineSet
EndChar

StartChar: uniFEDB
Encoding: 65243 65243 230
Width: 908
VWidth: 2593
GlyphClass: 2
Flags: W
AnchorPoint: "Anchor-10" 296.18 1486.67 basechar 0
AnchorPoint: "Anchor-7" 421.179 -234.565 basechar 0
LayerCount: 2
Fore
SplineSet
-5.033203125 0 m 2,0,1
 -40.970703125 0.0087890625 -40.970703125 0.0087890625 -67.3505859375 16.9677734375 c 128,-1,2
 -93.7314453125 33.92578125 -93.7314453125 33.92578125 -106.876953125 62.626953125 c 128,-1,3
 -120.0234375 91.3271484375 -120.0234375 91.3271484375 -120.0234375 128 c 2,4,-1
 -120.0234375 139.010742188 l 2,5,6
 -120.008789062 195.603515625 -120.008789062 195.603515625 -89.59765625 231.801757812 c 128,-1,7
 -59.1865234375 268 -59.1865234375 268 -5.0234375 268 c 2,8,-1
 342.91796875 268 l 2,9,10
 391.456054688 268 391.456054688 268 424.7578125 274.478515625 c 128,-1,11
 458.05859375 280.95703125 458.05859375 280.95703125 476.529296875 293.916015625 c 128,-1,12
 495 306.875 495 306.875 502.793945312 323.447265625 c 128,-1,13
 510.587890625 340.018554688 510.587890625 340.018554688 510.708984375 362.9765625 c 0,14,15
 510.783203125 377.446289062 510.783203125 377.446289062 486.173828125 418.836914062 c 128,-1,16
 461.564453125 460.227539062 461.564453125 460.227539062 413.575195312 514.94140625 c 2,17,-1
 142.7890625 823.668945312 l 2,18,19
 113.256835938 857.333007812 113.256835938 857.333007812 93.025390625 881.689453125 c 128,-1,20
 72.794921875 906.046875 72.794921875 906.046875 61.2998046875 921.87890625 c 0,21,22
 25.9521484375 969.083007812 25.9521484375 969.083007812 31.75390625 1043.66308594 c 0,23,24
 34.1650390625 1071.90429688 34.1650390625 1071.90429688 41.5537109375 1097.10351562 c 128,-1,25
 48.9423828125 1122.30175781 48.9423828125 1122.30175781 61.22265625 1143.95605469 c 128,-1,26
 73.5029296875 1165.61132812 73.5029296875 1165.61132812 90.322265625 1183.39941406 c 128,-1,27
 107.141601562 1201.1875 107.141601562 1201.1875 128.748046875 1214.875 c 128,-1,28
 150.354492188 1228.56347656 150.354492188 1228.56347656 176.061523438 1237.56054688 c 2,29,-1
 876.5 1482.71875 l 1,30,-1
 876.5 1213.55371094 l 1,31,-1
 316.465820312 1017.81445312 l 1,32,-1
 597.005859375 698.8828125 l 2,33,34
 771.64453125 500.2109375 771.64453125 500.2109375 752.454101562 321.092773438 c 0,35,36
 746.286132812 264.764648438 746.286132812 264.764648438 725.540039062 215.684570312 c 128,-1,37
 704.793945312 166.60546875 704.793945312 166.60546875 670.08203125 125.916992188 c 128,-1,38
 635.370117188 85.228515625 635.370117188 85.228515625 587.369140625 53.6474609375 c 0,39,40
 505.810546875 -0.125 505.810546875 -0.125 391.416992188 -0.0966796875 c 2,41,-1
 -5.033203125 0 l 2,0,1
EndSplineSet
EndChar

StartChar: uniFEDC
Encoding: 65244 65244 231
Width: 1066
VWidth: 2593
GlyphClass: 2
Flags: W
AnchorPoint: "Anchor-10" 293.27 1421.68 basechar 0
AnchorPoint: "Anchor-7" 307.814 -291.873 basechar 0
LayerCount: 2
Fore
SplineSet
1071.19628906 -0.48046875 m 2,0,-1
 1056.40234375 -0.48046875 l 2,1,2
 861.220703125 -0.017578125 861.220703125 -0.017578125 706.432617188 181.881835938 c 1,3,4
 606.862304688 -1.794921875 606.862304688 -1.794921875 358.3984375 -1.06640625 c 2,5,-1
 -5.08203125 0 l 2,6,7
 -58.8544921875 0 -58.8544921875 0 -89.439453125 35.8984375 c 128,-1,8
 -120.0234375 71.796875 -120.0234375 71.796875 -120.0234375 128 c 2,9,-1
 -120.0234375 139.010742188 l 2,10,11
 -120.008789062 195.603515625 -120.008789062 195.603515625 -89.59765625 231.801757812 c 128,-1,12
 -59.1865234375 268 -59.1865234375 268 -5.0234375 268 c 2,13,-1
 340.0078125 268 l 2,14,15
 388.559570312 268 388.559570312 268 421.893554688 274.451171875 c 128,-1,16
 455.227539062 280.903320312 455.227539062 280.903320312 473.6640625 293.765625 c 128,-1,17
 492.100585938 306.62890625 492.100585938 306.62890625 499.881835938 322.999023438 c 128,-1,18
 507.6640625 339.369140625 507.6640625 339.369140625 507.798828125 361.990234375 c 0,19,20
 507.811523438 365.4375 507.811523438 365.4375 506.196289062 371.030273438 c 128,-1,21
 504.581054688 376.622070312 504.581054688 376.622070312 500.93359375 384.825195312 c 128,-1,22
 497.286132812 393.028320312 497.286132812 393.028320312 491.959960938 402.84765625 c 128,-1,23
 486.633789062 412.666992188 486.633789062 412.666992188 478.647460938 425.150390625 c 128,-1,24
 470.661132812 437.634765625 470.661132812 437.634765625 460.983398438 451.166992188 c 128,-1,25
 451.3046875 464.698242188 451.3046875 464.698242188 438.33984375 480.94921875 c 128,-1,26
 425.374023438 497.200195312 425.374023438 497.200195312 410.665039062 513.970703125 c 2,27,-1
 139.978515625 822.5859375 l 2,28,29
 92.998046875 875.319335938 92.998046875 875.319335938 58.6904296875 920.697265625 c 0,30,31
 22.923828125 968.004882812 22.923828125 968.004882812 28.845703125 1042.69335938 c 0,32,33
 34.8544921875 1114.28613281 34.8544921875 1114.28613281 71.8486328125 1164.71875 c 128,-1,34
 108.842773438 1215.15039062 108.842773438 1215.15039062 173.206054688 1237.58105469 c 2,35,-1
 873.58984375 1481.66113281 l 1,36,-1
 873.58984375 1212.44335938 l 1,37,-1
 313.495117188 1019.62109375 l 1,38,-1
 850.416015625 410.084960938 l 2,39,40
 893.1328125 361.68359375 893.1328125 361.68359375 932.21484375 328.922851562 c 128,-1,41
 971.296875 296.162109375 971.296875 296.162109375 999.108398438 282.27734375 c 128,-1,42
 1026.91992188 268.392578125 1026.91992188 268.392578125 1047.33691406 267.9921875 c 2,43,-1
 1071.87890625 267.51171875 l 2,44,45
 1107.60644531 266.787109375 1107.60644531 266.787109375 1133.77539062 249.58203125 c 128,-1,46
 1159.9453125 232.377929688 1159.9453125 232.377929688 1173.00683594 203.706054688 c 128,-1,47
 1186.06835938 175.03515625 1186.06835938 175.03515625 1186.06835938 138.51953125 c 2,48,-1
 1186.06835938 127.48828125 l 2,49,50
 1186.02441406 71.51171875 1186.02441406 71.51171875 1155.53027344 35.6884765625 c 128,-1,51
 1125.03613281 -0.134765625 1125.03613281 -0.134765625 1071.19628906 -0.48046875 c 2,0,-1
EndSplineSet
EndChar

